<svg width="57" height="41" viewBox="0 0 57 41" fill="none" xmlns="http://www.w3.org/2000/svg">
<g clip-path="url(#clip0_116_681)">
<path opacity="0.3" d="M2.84961 18.2303L12.8246 13.2303L51.2996 32.516L41.3246 37.516L2.84961 18.2303Z" fill="black"/>
<path d="M50.5165 21.3731L50.8728 21.5874C51.4428 21.9445 51.9415 22.516 52.2265 23.1588C52.4403 23.6588 52.7253 24.1588 52.7253 24.6588V25.4445C52.7253 25.7303 52.5115 26.016 52.2978 26.1588C52.084 26.3017 51.8703 26.1588 51.8703 25.9445V24.7303C51.8703 24.5874 51.9415 24.4445 51.9415 24.3731C52.084 24.1588 52.2265 23.8731 52.084 23.5874C51.799 22.8017 51.229 22.0874 50.5878 21.7303L50.374 21.5874C50.374 21.516 50.4453 21.3731 50.5165 21.3731Z" fill="#2D3134"/>
<g opacity="0.39">
<path d="M50.5165 21.3731L50.8728 21.5874C51.4428 21.9445 51.9415 22.516 52.2265 23.1588C52.4403 23.6588 52.7253 24.1588 52.7253 24.6588V25.4445C52.7253 25.7303 52.5115 26.016 52.2978 26.1588C52.084 26.3017 51.8703 26.1588 51.8703 25.9445V24.7303C51.8703 24.5874 51.9415 24.4445 51.9415 24.3731C52.084 24.1588 52.2265 23.8731 52.084 23.5874C51.799 22.8017 51.229 22.0874 50.5878 21.7303L50.374 21.5874C50.374 21.516 50.4453 21.3731 50.5165 21.3731Z" fill="black"/>
</g>
<path d="M11.1152 20.6588L12.9677 19.7303V18.7303H11.1152V20.6588Z" fill="#2D3134"/>
<path opacity="0.39" d="M11.1152 20.6588L12.9677 19.7303V18.7303H11.1152V20.6588Z" fill="black"/>
<path d="M31.0654 30.6588L32.9179 29.7303V28.7303H31.0654V30.6588Z" fill="#2D3134"/>
<path opacity="0.39" d="M31.0654 30.6588L32.9179 29.7303V28.7303H31.0654V30.6588Z" fill="black"/>
<path d="M14.3929 18.9445C13.8941 18.6588 13.3954 18.6588 13.0391 18.8017L12.0416 19.3017C11.6854 19.4445 11.4004 19.8731 11.4004 20.4445C11.4004 21.516 12.3266 22.8731 13.3954 23.4445C13.9654 23.7303 14.4641 23.7303 14.8204 23.5874C14.8204 23.5874 15.8179 23.0874 15.8891 23.016C16.2454 22.8017 16.3879 22.4445 16.3879 21.9445C16.3879 20.8017 15.4616 19.4445 14.3929 18.9445Z" fill="#2D3134"/>
<path opacity="0.39" d="M14.8203 23.516C14.9628 23.4445 15.8178 23.016 15.8891 23.016C16.2453 22.8017 16.3878 22.4445 16.3878 21.9445C16.3878 21.516 16.2453 21.016 16.0316 20.5874L15.0341 21.0874C15.2478 21.516 15.3903 22.016 15.3903 22.4445C15.3903 22.9445 15.1766 23.3731 14.8203 23.516Z" fill="black"/>
<path d="M14.8919 22.1588C14.8919 23.016 14.2507 23.3017 13.3957 22.8731C12.5407 22.4445 11.8994 21.4445 11.8994 20.5874C11.8994 19.7303 12.5407 19.4445 13.3957 19.8731C14.2507 20.3017 14.8919 21.3017 14.8919 22.1588Z" fill="#A9ABB0"/>
<path d="M13.5382 22.8731C12.6832 22.4445 12.0419 21.4445 12.0419 20.5874C12.0419 20.1588 12.1844 19.8731 12.4694 19.7303C12.1132 19.8017 11.8994 20.1588 11.8994 20.5874C11.8994 21.4445 12.5407 22.4445 13.3957 22.8731C13.8232 23.0874 14.1794 23.0874 14.4644 22.9445C14.1794 23.0874 13.8944 23.016 13.5382 22.8731Z" fill="#808285"/>
<path d="M14.179 21.6588C14.179 22.016 13.894 22.1588 13.5377 21.9445C13.1815 21.7303 12.8965 21.3731 12.8965 21.016C12.8965 20.6588 13.1815 20.516 13.5377 20.7303C13.894 20.9445 14.179 21.3017 14.179 21.6588Z" fill="#2D3134"/>
<path opacity="0.39" d="M14.179 21.6588C14.179 22.016 13.894 22.1588 13.5377 21.9445C13.1815 21.7303 12.8965 21.3731 12.8965 21.016C12.8965 20.6588 13.1815 20.516 13.5377 20.7303C13.894 20.9445 14.179 21.3017 14.179 21.6588Z" fill="black"/>
<path d="M14.0364 21.7303C14.0364 22.0874 13.7514 22.2303 13.3952 22.016C13.0389 21.8731 12.7539 21.4446 12.7539 21.0874C12.7539 20.7303 13.0389 20.5874 13.3952 20.8017C13.7514 20.9446 14.0364 21.3731 14.0364 21.7303Z" fill="#2D3134"/>
<path opacity="0.06" d="M15.3904 22.4445C15.3904 23.516 14.4641 24.016 13.3954 23.4445C12.3266 22.8731 11.4004 21.516 11.4004 20.4445C11.4004 19.3731 12.3266 18.8731 13.3954 19.4445C14.4641 19.9445 15.3904 21.3017 15.3904 22.4445Z" fill="black"/>
<path d="M34.3421 28.8731C33.8434 28.5874 33.3446 28.5874 32.9884 28.7302L31.9909 29.2303C31.6346 29.3731 31.3496 29.8017 31.3496 30.3731C31.3496 31.4445 32.2759 32.8017 33.3446 33.3731C33.9146 33.6588 34.4134 33.6588 34.7696 33.516C34.7696 33.516 35.7671 33.016 35.8384 32.9445C36.1946 32.7303 36.3371 32.3731 36.3371 31.8731C36.3371 30.8017 35.4109 29.4445 34.3421 28.8731Z" fill="#2D3134"/>
<path opacity="0.39" d="M34.7695 33.516C34.912 33.4445 35.767 33.016 35.8383 33.016C36.1945 32.8017 36.337 32.4445 36.337 31.9445C36.337 31.516 36.1945 31.016 35.9808 30.5874L34.9833 31.0874C35.197 31.516 35.3395 32.016 35.3395 32.4445C35.3395 32.9445 35.1258 33.3017 34.7695 33.516Z" fill="black"/>
<path d="M34.8411 32.1588C34.8411 33.016 34.1999 33.3017 33.3449 32.8731C32.4899 32.4445 31.8486 31.4445 31.8486 30.5874C31.8486 29.7303 32.4899 29.4445 33.3449 29.8731C34.1999 30.3017 34.8411 31.3017 34.8411 32.1588Z" fill="#A9ABB0"/>
<path d="M33.4874 32.8017C32.6324 32.3731 31.9911 31.3731 31.9911 30.516C31.9911 30.0874 32.1336 29.8017 32.4186 29.6588C32.0624 29.7302 31.8486 30.0874 31.8486 30.516C31.8486 31.3731 32.4899 32.3731 33.3449 32.8017C33.7724 33.016 34.1286 33.016 34.4136 32.8731C34.1286 33.016 33.8436 33.016 33.4874 32.8017Z" fill="#808285"/>
<path d="M34.0569 31.6588C34.0569 32.016 33.7719 32.1588 33.4157 31.9445C33.0594 31.8017 32.7744 31.3731 32.7744 31.016C32.7744 30.6588 33.0594 30.516 33.4157 30.7303C33.8432 30.8731 34.0569 31.3017 34.0569 31.6588Z" fill="#2D3134"/>
<path opacity="0.39" d="M34.0569 31.6588C34.0569 32.016 33.7719 32.1588 33.4157 31.9445C33.0594 31.8017 32.7744 31.3731 32.7744 31.016C32.7744 30.6588 33.0594 30.516 33.4157 30.7303C33.8432 30.8731 34.0569 31.3017 34.0569 31.6588Z" fill="black"/>
<path d="M33.9856 31.7302C33.9856 32.0874 33.7006 32.2302 33.3444 32.016C32.9881 31.8731 32.7031 31.4445 32.7031 31.0874C32.7031 30.7302 32.9881 30.5874 33.3444 30.8017C33.7006 30.9445 33.9856 31.3731 33.9856 31.7302Z" fill="#2D3134"/>
<path opacity="0.06" d="M35.3396 32.3731C35.3396 33.4445 34.4134 33.9445 33.3446 33.3731C32.2759 32.8017 31.3496 31.516 31.3496 30.3731C31.3496 29.2302 32.2759 28.8017 33.3446 29.3731C34.4134 29.9445 35.3396 31.3017 35.3396 32.3731Z" fill="black"/>
<path d="M47.0959 18.016L11.3996 0.0874023L2.84961 4.37312V15.0874L4.70211 16.016L11.4709 19.3731C11.6846 19.0874 12.1121 18.8731 12.5396 18.8731C12.8959 18.8731 13.1809 18.9445 13.5371 19.1588C14.3921 19.5874 15.1759 20.516 15.5321 21.4445L17.0996 22.2303V23.6588L22.7996 26.516V25.0874L31.3496 29.3731C31.5634 29.016 31.9909 28.8731 32.4184 28.8731C32.7746 28.8731 33.0596 28.9445 33.4159 29.1588C34.3421 29.5874 35.0546 30.516 35.4109 31.4445L42.7496 35.0874L51.2996 30.8017V24.8017C51.2996 21.9445 49.6609 19.3017 47.0959 18.016Z" fill="#CC291F"/>
<path d="M42.75 36.516L51.3 32.2303V30.8017L42.75 35.0874V36.516Z" fill="#262626"/>
<path opacity="0.3" d="M3.41992 12.3017V7.01596L16.5299 13.5874V18.8731L3.41992 12.3017Z" fill="black"/>
<path d="M16.3875 13.6588L3.5625 7.23026V12.2303L16.3875 18.6588V13.6588Z" fill="#656565"/>
<path opacity="0.2" d="M16.3875 13.6588L3.5625 7.23026L16.3875 16.4445V13.6588Z" fill="black"/>
<path opacity="0.3" d="M3.705 12.1588V7.30168L3.5625 7.23026V12.2303L16.3875 18.6588V18.516L3.705 12.1588Z" fill="black"/>
<path opacity="0.3" d="M17.0996 12.9445V23.6588L19.9496 25.0874V14.3731L17.0996 12.9445ZM19.8071 24.8731L17.2421 23.5874V13.1588L19.8071 14.4445V24.8731Z" fill="black"/>
<path opacity="0.3" d="M19.9502 14.3731V25.0874L22.8002 26.516V15.8017L19.9502 14.3731ZM22.6577 26.3017L20.0927 25.016V14.5874L22.6577 15.8731V26.3017Z" fill="black"/>
<path opacity="0.3" d="M41.1826 30.6588V26.016L41.4676 25.9445C41.9664 26.9445 42.1801 28.016 42.1801 29.0874V31.1588L41.1826 30.6588Z" fill="black"/>
<path d="M41.3252 26.016V30.5874L42.0377 30.9446V29.0874C42.0377 28.016 41.7527 26.9446 41.3252 26.016Z" fill="#656565"/>
<path opacity="0.3" d="M37.7627 23.3017V32.5874L40.6127 34.016V24.7303L37.7627 23.3017ZM40.4702 33.8017L37.9052 32.516V23.516L40.4702 24.8017V33.8017Z" fill="black"/>
<path opacity="0.3" d="M20.5195 20.516V15.9445L22.2295 16.8017V21.3731L20.5195 20.516Z" fill="black"/>
<path d="M20.6621 16.1588L22.0871 16.8731V21.1588L20.6621 20.4446V16.1588Z" fill="#656565"/>
<path opacity="0.3" d="M38.332 29.4446V24.8017L40.042 25.6588V30.3017L38.332 29.4446Z" fill="black"/>
<path d="M38.4746 25.0874L39.8996 25.8017V30.0874L38.4746 29.3731V25.0874Z" fill="#656565"/>
<path opacity="0.3" d="M38.6171 29.3017V25.1588L38.4746 25.0874V29.3731L39.8996 30.0874V29.9445L38.6171 29.3017Z" fill="black"/>
<path opacity="0.3" d="M17.6699 19.0874V14.516L19.3799 15.3731V19.9445L17.6699 19.0874Z" fill="black"/>
<path d="M17.8125 14.7303L19.2375 15.4445V19.7303L17.8125 19.016V14.7303Z" fill="#656565"/>
<path opacity="0.3" d="M20.8046 20.3731V16.2303L20.6621 16.1588V20.4446L22.0871 21.1588V21.016L20.8046 20.3731Z" fill="black"/>
<path opacity="0.3" d="M17.955 18.9445V14.8017L17.8125 14.7303V19.016L19.2375 19.7303V19.5874L17.955 18.9445Z" fill="black"/>
<path opacity="0.3" d="M23.3701 22.3017V17.016L37.1926 23.9445V29.2302L23.3701 22.3017Z" fill="black"/>
<path d="M37.0502 24.016L23.5127 17.2303V22.2303L37.0502 29.016V24.016Z" fill="#656565"/>
<path opacity="0.2" d="M37.0502 24.016L23.5127 17.2303L37.0502 26.4445V24.016Z" fill="black"/>
<path opacity="0.3" d="M23.6552 22.1588V17.3017L23.5127 17.2303V22.2303L37.0502 29.016V28.8731L23.6552 22.1588Z" fill="black"/>
<path d="M44.175 33.6588L42.75 34.3731V33.6588L44.175 32.9445V33.6588Z" fill="#999999"/>
<path d="M42.0371 34.016L42.7496 34.3731V33.6588L42.0371 33.3017V34.016Z" fill="#FF9900"/>
<path d="M51.3 30.0874L49.875 30.8017V30.0874L51.3 29.3731V30.0874Z" fill="#999999"/>
<path d="M45.5996 33.8017V34.516L49.1621 32.7302V32.016L45.5996 33.8017Z" fill="#999999"/>
<path opacity="0.3" d="M43.3202 29.0874C43.3202 27.1588 42.6789 25.3017 41.4677 23.8731L41.3252 23.7303L48.8064 19.9445L48.8777 20.016C50.0889 21.3017 50.7302 23.016 50.7302 24.8017V27.6588L43.3202 31.3731V29.0874Z" fill="black"/>
<path d="M43.4629 31.1588L50.5879 27.5874V24.8017C50.5879 23.0874 49.9466 21.3731 48.8066 20.1588L41.6104 23.8017C42.8216 25.3017 43.5341 27.1588 43.5341 29.1588L43.4629 31.1588Z" fill="#656565"/>
<path opacity="0.1" d="M39.9 16.3731L35.625 18.516L28.5 14.9446L32.775 12.8017L39.9 16.3731Z" fill="white"/>
<path opacity="0.06" d="M35.625 18.6588V18.516L28.5 14.9445V15.0874L35.625 18.6588Z" fill="black"/>
<path opacity="0.39" d="M35.625 18.6589V18.516L39.9 16.3731V16.516L35.625 18.6589Z" fill="black"/>
<path opacity="0.1" d="M19.9498 6.37313L15.6748 8.51598L8.5498 4.94455L12.8248 2.8017L19.9498 6.37313Z" fill="white"/>
<path opacity="0.06" d="M15.6748 8.65884V8.51598L8.5498 4.94455V5.08741L15.6748 8.65884Z" fill="black"/>
<path opacity="0.39" d="M15.6748 8.65885V8.516L19.9498 6.37314V6.516L15.6748 8.65885Z" fill="black"/>
<path opacity="0.3" d="M42.75 33.0874L51.3 28.8017V28.6588L42.75 32.9446V33.0874Z" fill="black"/>
<path opacity="0.6" d="M44.8877 32.7303L49.1627 30.5874V30.4445L44.8877 32.5874V32.7303Z" fill="black"/>
<path opacity="0.6" d="M44.8877 33.016L49.1627 30.8731V30.7303L44.8877 32.8731V33.016Z" fill="black"/>
<path opacity="0.6" d="M44.8877 33.3017L49.1627 31.1588V31.016L44.8877 33.1588V33.3017Z" fill="black"/>
<path opacity="0.6" d="M44.8877 33.5874L49.1627 31.4446V31.3017L44.8877 33.4446V33.5874Z" fill="black"/>
<path opacity="0.15" d="M42.75 33.2303L51.3 28.9446V28.8017L42.75 33.0874V33.2303Z" fill="white"/>
<path opacity="0.3" d="M42.7498 33.0874L40.6123 32.016V31.8731L42.7498 32.9445V33.0874Z" fill="black"/>
<path opacity="0.15" d="M42.7498 33.2302L40.6123 32.1588V32.016L42.7498 33.0874V33.2302Z" fill="white"/>
<path opacity="0.3" d="M37.7623 30.5874L22.7998 23.0874V22.9445L37.7623 30.4445V30.5874Z" fill="black"/>
<path opacity="0.15" d="M37.7623 30.7303L22.7998 23.2303V23.0874L37.7623 30.5874V30.7303Z" fill="white"/>
<path opacity="0.3" d="M17.0996 20.2303L2.84961 13.0874V12.9445L17.0996 20.0874V20.2303Z" fill="black"/>
<path opacity="0.15" d="M17.0996 20.3731L2.84961 13.2303V13.0874L17.0996 20.2303V20.3731Z" fill="white"/>
<path d="M11.1146 20.4445C11.1146 20.016 11.2571 19.6588 11.4709 19.4445L2.84961 15.0874V16.516L11.1146 20.6588C11.1146 20.5874 11.1146 20.516 11.1146 20.4445Z" fill="#262626"/>
<path d="M15.4609 21.4445C15.6034 21.8017 15.6747 22.0874 15.6747 22.4445C15.6747 22.5874 15.6747 22.8017 15.6034 22.9445L17.0997 23.6588V22.2303L15.4609 21.4445Z" fill="#262626"/>
<path d="M31.0648 30.3731C31.0648 29.9445 31.2073 29.5874 31.3498 29.3731L22.7998 25.0874V26.516L31.0648 30.6588C31.0648 30.5874 31.0648 30.516 31.0648 30.3731Z" fill="#262626"/>
<path d="M35.4824 31.4445C35.6249 31.8017 35.6249 32.0874 35.6249 32.4445C35.6249 32.6588 35.6249 32.8017 35.5537 32.9445L42.7499 36.516V35.0874L35.4824 31.4445Z" fill="#262626"/>
<path opacity="0.5" d="M43.3203 31.3731V30.6588L50.7303 26.9445V27.6588L43.3203 31.3731Z" fill="black"/>
<path opacity="0.5" d="M41.1826 30.6588V29.9445L42.1801 30.4446V31.1588L41.1826 30.6588Z" fill="black"/>
<path d="M47.2384 27.0874C47.1671 27.016 47.0959 27.016 47.0246 27.0874L44.3171 30.1588C44.2459 30.2303 44.2459 30.3017 44.3171 30.3731C44.3884 30.4446 44.4596 30.4446 44.5309 30.3731L45.2434 29.516V30.2303L45.4571 30.0874V29.3017L47.2384 27.2303C47.3096 27.2303 47.3096 27.1588 47.2384 27.0874Z" fill="#2D3134"/>
<path d="M49.8038 25.6588C49.7325 25.5874 49.6613 25.5874 49.59 25.6588L46.8825 28.7303C46.8113 28.8017 46.8113 28.8731 46.8825 28.9445C46.9538 29.016 47.025 29.016 47.0963 28.9445L47.7375 28.2303V29.016L47.9513 28.9445V27.9445L49.8038 25.8017C49.875 25.8017 49.875 25.7303 49.8038 25.6588Z" fill="#2D3134"/>
<path opacity="0.2" d="M46.5972 21.0874C46.9534 22.2303 47.1671 23.3731 47.1671 24.5874C47.1671 26.6588 46.5971 28.5874 45.6709 30.2303L46.9534 29.5874C46.9534 29.5874 49.5184 27.1588 49.5184 23.6588C49.5184 22.3731 49.2334 21.0874 48.7347 19.9445L46.5972 21.0874Z" fill="black"/>
<path opacity="0.2" d="M22.0871 21.0874V18.6588L20.6621 17.0874V18.8731L22.0871 21.0874Z" fill="black"/>
<path opacity="0.2" d="M19.2375 17.8017V16.2303L17.8125 14.6588V15.5874L19.2375 17.8017Z" fill="black"/>
<path opacity="0.2" d="M43.5148 33.4432C43.3906 33.5961 43.3641 33.7807 43.4557 33.8554C43.5473 33.9301 43.7222 33.8667 43.8464 33.7137C43.9706 33.5607 43.9971 33.3761 43.9055 33.3014C43.8139 33.2267 43.639 33.2902 43.5148 33.4432Z" fill="black"/>
<path opacity="0.2" d="M43.0744 33.6296C42.9502 33.7826 42.9237 33.9671 43.0153 34.0419C43.1068 34.1166 43.2817 34.0531 43.406 33.9001C43.5302 33.7472 43.5566 33.5626 43.4651 33.4879C43.3735 33.4131 43.1986 33.4766 43.0744 33.6296Z" fill="black"/>
<path opacity="0.2" d="M50.7111 29.8721C50.5869 30.0251 50.5604 30.2097 50.652 30.2844C50.7436 30.3591 50.9185 30.2957 51.0427 30.1427C51.1669 29.9897 51.1934 29.8051 51.1018 29.7304C51.0102 29.6557 50.8353 29.7192 50.7111 29.8721Z" fill="black"/>
<path opacity="0.2" d="M50.2707 30.0585C50.1465 30.2115 50.12 30.3961 50.2116 30.4708C50.3031 30.5455 50.478 30.4821 50.6022 30.3291C50.7265 30.1761 50.7529 29.9915 50.6614 29.9168C50.5698 29.8421 50.3949 29.9056 50.2707 30.0585Z" fill="black"/>
<path opacity="0.2" d="M44.175 33.6588L42.75 34.3731V33.6588H44.175Z" fill="white"/>
<path opacity="0.2" d="M51.3 30.0874L49.875 30.8017L51.3 29.3731V30.0874Z" fill="white"/>
<path d="M42.608 25.516L42.9642 25.6588C43.5342 26.016 44.033 26.5874 44.318 27.2302C44.5317 27.7302 44.8167 28.2302 44.8167 28.7302V29.516C44.8167 29.8017 44.603 30.0874 44.3892 30.2302C44.1755 30.3731 43.9617 30.2302 43.9617 30.016V28.8017C43.9617 28.6588 44.033 28.516 44.033 28.4445C44.1755 28.2302 44.318 27.9445 44.1755 27.6588C43.8905 26.8731 43.3205 26.1588 42.6792 25.8017L42.4655 25.6588C42.3942 25.6588 42.4655 25.516 42.608 25.516Z" fill="#2D3134"/>
<path opacity="0.39" d="M51.2997 24.8017C51.2997 22.6588 50.4447 20.6588 48.9484 19.2303L40.3984 23.516C41.8947 24.9445 42.7497 26.9445 42.7497 29.0874V36.516L51.2997 32.2303V24.8017Z" fill="black"/>
<path opacity="0.06" d="M38.5459 22.2303L2.84961 4.37311V16.516L11.1146 20.6588C11.1146 20.5874 11.1146 20.516 11.1146 20.4445C11.1146 20.016 11.2571 19.6588 11.4709 19.4445C11.6846 19.1588 12.1121 18.9445 12.5396 18.9445C12.8959 18.9445 13.1809 19.016 13.5371 19.2303C14.3921 19.6588 15.1759 20.5874 15.5321 21.516C15.6746 21.8731 15.7459 22.1588 15.7459 22.516C15.7459 22.6588 15.7459 22.8731 15.6746 23.016L31.1359 30.7303C31.1359 30.6588 31.1359 30.516 31.1359 30.4445C31.1359 30.016 31.2784 29.6588 31.4209 29.4445C31.6346 29.0874 32.0621 28.9445 32.4896 28.9445C32.8459 28.9445 33.1309 29.016 33.4871 29.2303C34.4134 29.6588 35.1259 30.5874 35.4821 31.516C35.6246 31.8731 35.6246 32.1588 35.6246 32.516C35.6246 32.7303 35.6246 32.8731 35.5534 33.016L42.7496 36.516V29.0874C42.7496 26.2302 41.1109 23.5874 38.5459 22.2303Z" fill="black"/>
</g>
<defs>
<clipPath id="clip0_116_681">
<rect width="57" height="40" fill="white" transform="translate(0 0.0874023)"/>
</clipPath>
</defs>
</svg>
