<svg width="385" height="37" viewBox="0 0 385 37" fill="none" xmlns="http://www.w3.org/2000/svg">
<rect x="0.641846" y="17.3281" width="384.13" height="18.9226" rx="9.46132" fill="#C1C1C1"/>
<line x1="2.34009" y1="25.7896" x2="382.621" y2="25.7896" stroke="white" stroke-width="2" stroke-linecap="round" stroke-dasharray="11 11"/>
<g clip-path="url(#clip0_54_26)">
<path d="M326.467 14.531C328.265 11.5414 330.738 9.01408 333.687 7.15099C335.016 6.30863 336.531 5.80443 338.1 5.68241C339.669 5.56039 341.244 5.82426 342.687 6.45099C343.95 7.04649 345.048 7.94036 345.888 9.0554C346.728 10.1704 347.283 11.4731 347.507 12.851C347.587 13.341 347.657 13.851 347.717 14.251H348.717C349.06 14.247 349.4 14.3111 349.718 14.4395C350.035 14.5678 350.324 14.758 350.568 14.9989C350.812 15.2398 351.005 15.5267 351.137 15.8429C351.269 16.1591 351.337 16.4983 351.337 16.841V25.391C351.337 25.6191 351.247 25.8378 351.085 25.9991C350.924 26.1604 350.705 26.251 350.477 26.251H348.747V25.861C348.75 24.9351 348.529 24.0221 348.105 23.1993C347.68 22.3764 347.064 21.6678 346.308 21.1334C345.552 20.5989 344.678 20.2542 343.761 20.1285C342.843 20.0028 341.909 20.0997 341.037 20.411L342.037 21.411C342.836 21.2641 343.659 21.3331 344.422 21.6109C345.185 21.8886 345.86 22.3651 346.377 22.991C346.644 23.2586 346.858 23.5741 347.007 23.921C347.315 24.5164 347.486 25.1731 347.507 25.843C347.529 26.5129 347.4 27.1791 347.131 27.793C346.862 28.4068 346.459 28.9529 345.952 29.3912C345.445 29.8295 344.847 30.149 344.2 30.3264C343.554 30.5038 342.876 30.5346 342.216 30.4165C341.557 30.2984 340.932 30.0344 340.387 29.6438C339.842 29.2532 339.392 28.7459 339.068 28.1589C338.745 27.5719 338.556 26.9201 338.517 26.251H333.037V25.861C333.039 24.9363 332.819 24.0246 332.395 23.2028C331.971 22.381 331.355 21.6732 330.601 21.139C329.846 20.6047 328.974 20.2597 328.058 20.133C327.142 20.0063 326.209 20.1017 325.337 20.411L326.337 21.411C327.136 21.2641 327.959 21.3331 328.722 21.6109C329.485 21.8886 330.16 22.3651 330.677 22.991C330.944 23.2586 331.158 23.5741 331.307 23.921C331.611 24.5163 331.778 25.1718 331.796 25.8398C331.815 26.5078 331.684 27.1716 331.414 27.7828C331.144 28.3941 330.742 28.9376 330.235 29.3738C329.729 29.81 329.132 30.128 328.488 30.3047C327.843 30.4813 327.167 30.5122 326.51 30.3951C325.852 30.2781 325.228 30.0159 324.684 29.6277C324.14 29.2396 323.689 28.7351 323.365 28.151C323.04 27.5669 322.85 26.9179 322.807 26.251H320.197C319.969 26.251 319.75 26.1604 319.589 25.9991C319.428 25.8378 319.337 25.6191 319.337 25.391V23.611C319.345 21.5196 320.05 19.4906 321.342 17.8458C322.633 16.2009 324.437 15.0343 326.467 14.531ZM341.337 14.251H345.337C345.337 13.901 345.237 13.541 345.177 13.181C345.009 12.0877 344.566 11.0552 343.889 10.1805C343.212 9.3058 342.323 8.61772 341.307 8.18099L341.337 14.251ZM342.977 28.611C343.472 28.611 343.955 28.4644 344.366 28.1897C344.777 27.915 345.098 27.5245 345.287 27.0677C345.476 26.6109 345.526 26.1082 345.429 25.6233C345.333 25.1383 345.095 24.6929 344.745 24.3432C344.395 23.9936 343.95 23.7555 343.465 23.659C342.98 23.5626 342.477 23.6121 342.02 23.8013C341.564 23.9905 341.173 24.3109 340.898 24.7221C340.624 25.1332 340.477 25.6165 340.477 26.111C340.477 26.774 340.741 27.4099 341.209 27.8788C341.678 28.3476 342.314 28.611 342.977 28.611ZM334.337 19.251H337.337V17.251H334.337V19.251ZM340.337 14.251V7.72099C338.458 7.46523 336.549 7.87185 334.937 8.87099C332.723 10.263 330.817 12.094 329.337 14.251H340.337ZM327.277 28.611C327.772 28.611 328.255 28.4644 328.666 28.1897C329.077 27.915 329.398 27.5245 329.587 27.0677C329.776 26.6109 329.826 26.1082 329.729 25.6233C329.633 25.1383 329.395 24.6929 329.045 24.3432C328.695 23.9936 328.25 23.7555 327.765 23.659C327.28 23.5626 326.777 23.6121 326.32 23.8013C325.864 23.9905 325.473 24.3109 325.198 24.7221C324.924 25.1332 324.777 25.6165 324.777 26.111C324.777 26.774 325.041 27.4099 325.509 27.8788C325.978 28.3476 326.614 28.611 327.277 28.611Z" fill="url(#paint0_linear_54_26)"/>
</g>
<rect x="357.461" y="9.86334" width="24.1738" height="1.90527" rx="0.952637" fill="#ED2241"/>
<rect x="357.461" y="21.5828" width="18.6758" height="1.91" rx="0.955" fill="#ED2241"/>
<rect x="353.337" y="15.7205" width="14.9951" height="1.91" rx="0.955" fill="#ED2241"/>
<defs>
<linearGradient id="paint0_linear_54_26" x1="335.337" y1="5.65338" x2="348.908" y2="29.3802" gradientUnits="userSpaceOnUse">
<stop stop-color="#ED2241"/>
<stop offset="1" stop-color="#A60A22"/>
</linearGradient>
<clipPath id="clip0_54_26">
<rect width="36" height="36" fill="white" transform="translate(317.337 0.250977)"/>
</clipPath>
</defs>
</svg>
