<svg width="65" height="41" viewBox="0 0 65 41" fill="none" xmlns="http://www.w3.org/2000/svg">
<g clip-path="url(#clip0_51_476)">
<g opacity="0.3" filter="url(#filter0_f_51_476)">
<path d="M45.2601 40.2497L64.5098 30.6249L20.5105 8.62521L1.26074 18.2501L45.2601 40.2497Z" fill="#262626"/>
</g>
<path d="M10.4531 18.4426L17.3555 16.5176L12.5981 13.7814L10.1919 16.1051L10.4531 18.4426Z" fill="#2D3134"/>
<path d="M36.9073 32.1649L43.8097 30.2399L39.0385 27.5037L36.6323 29.8274L36.9073 32.1649Z" fill="#2D3134"/>
<path opacity="0.29" d="M10.4531 18.4426L17.3555 16.5176L12.5981 13.7814L10.1919 16.1051L10.4531 18.4426Z" fill="black"/>
<path opacity="0.29" d="M36.9073 32.1649L43.8097 30.2399L39.0385 27.5037L36.6323 29.8274L36.9073 32.1649Z" fill="black"/>
<path d="M41.9533 29.4286C41.0321 28.9612 40.1933 28.9062 39.5746 29.1949L38.2684 29.8961C37.6084 30.1986 37.1821 30.8724 37.1821 31.8624C37.1821 33.7736 38.7359 36.111 40.6471 37.0598C41.5958 37.5273 42.4483 37.5823 43.0808 37.2798C43.0808 37.2798 44.3733 36.5923 44.5108 36.5098C45.0745 36.1798 45.4183 35.5336 45.4183 34.6398C45.4183 32.7149 43.8645 30.3911 41.9533 29.4286Z" fill="#2D3134"/>
<path opacity="0.29" d="M43.1226 37.266C43.3701 37.1423 44.3875 36.5923 44.5113 36.5098C45.075 36.1798 45.4188 35.5336 45.4188 34.6398C45.4188 33.8698 45.1713 33.0311 44.745 32.2474L43.4388 32.9486C43.865 33.7323 44.1125 34.5711 44.1125 35.3411C44.1263 36.276 43.7413 36.9498 43.1226 37.266Z" fill="black"/>
<path d="M44.1262 35.3411C44.1262 37.2523 42.5725 38.036 40.6612 37.0735C38.75 36.1111 37.1963 33.7873 37.1963 31.8761C37.1963 29.9649 38.75 29.1812 40.6612 30.1436C42.5725 31.0924 44.1262 33.4298 44.1262 35.3411Z" fill="#2D3134"/>
<path d="M43.3564 34.9561C43.3564 36.4548 42.1464 37.0598 40.6477 36.3173C39.1489 35.5748 37.939 33.7461 37.939 32.2474C37.939 30.7486 39.1489 30.1437 40.6477 30.8861C42.1464 31.6424 43.3564 33.4574 43.3564 34.9561Z" fill="#E5E5E5"/>
<path d="M42.435 36.1661C42.8475 35.9323 43.095 35.4786 43.095 34.8323C43.095 34.7773 43.095 34.7223 43.095 34.6811L41.5825 34.4473L42.435 36.1661Z" fill="#2D3134"/>
<path d="M41.2249 33.1824L42.8061 33.5261C42.4762 32.7424 41.8849 31.9724 41.1699 31.4774L41.2249 33.1824Z" fill="#2D3134"/>
<path d="M40.0842 32.6186L40.1392 30.9687C39.4242 30.7624 38.8329 30.9274 38.5029 31.3811L40.0842 32.6186Z" fill="#2D3134"/>
<path d="M38.2139 32.2336C38.2139 32.2886 38.2139 32.3299 38.2139 32.3849C38.2139 33.0311 38.4614 33.7324 38.8739 34.3786L39.7401 33.5261L38.2139 32.2336Z" fill="#2D3134"/>
<path d="M40.6479 34.6398L39.7129 35.3961C40.0016 35.6573 40.3179 35.8773 40.6479 36.0423C40.9779 36.2073 41.2941 36.3036 41.5829 36.3173L40.6479 34.6398Z" fill="#2D3134"/>
<path opacity="0.11" d="M44.1262 35.3411C44.1262 37.2523 42.5725 38.036 40.6612 37.0735C38.75 36.1111 37.1963 33.7873 37.1963 31.8761C37.1963 29.9649 38.75 29.1812 40.6612 30.1436C42.5725 31.0924 44.1262 33.4298 44.1262 35.3411Z" fill="black"/>
<path d="M15.5265 16.1326C14.6053 15.6651 13.7666 15.6101 13.1478 15.8989L11.8416 16.6001C11.1816 16.9026 10.7554 17.5763 10.7554 18.5663C10.7554 20.4775 12.3091 22.815 14.2203 23.7637C15.1691 24.2312 16.0215 24.2862 16.654 23.9837C16.654 23.9837 17.9465 23.2962 18.084 23.2137C18.6478 22.8837 18.9915 22.2375 18.9915 21.3438C19.0052 19.4188 17.4515 17.0951 15.5265 16.1326Z" fill="#2D3134"/>
<path opacity="0.29" d="M16.709 23.97C16.9565 23.8462 17.974 23.2962 18.0977 23.2137C18.6615 22.8837 19.0052 22.2375 19.0052 21.3438C19.0052 20.5738 18.7577 19.735 18.3315 18.9513L17.0252 19.6525C17.4515 20.4363 17.699 21.275 17.699 22.045C17.699 22.98 17.314 23.64 16.709 23.97Z" fill="black"/>
<path d="M17.6994 22.0313C17.6994 23.9425 16.1457 24.7262 14.2345 23.7637C12.3233 22.8012 10.7695 20.4775 10.7695 18.5663C10.7695 16.6551 12.3233 15.8713 14.2345 16.8338C16.1457 17.7963 17.6994 20.12 17.6994 22.0313Z" fill="#2D3134"/>
<path d="M16.9433 21.66C16.9433 23.1587 15.7333 23.7637 14.2346 23.0212C12.7359 22.2788 11.5259 20.45 11.5259 18.9513C11.5259 17.4526 12.7359 16.8476 14.2346 17.5901C15.7333 18.3326 16.9433 20.1613 16.9433 21.66Z" fill="#E5E5E5"/>
<path d="M16.0219 22.8562C16.4344 22.6225 16.6819 22.1687 16.6819 21.5225C16.6819 21.4675 16.6819 21.4125 16.6819 21.3713L15.1694 21.1375L16.0219 22.8562Z" fill="#2D3134"/>
<path d="M14.7977 19.8725L16.3789 20.2163C16.0489 19.4325 15.4577 18.6625 14.7427 18.1676L14.7977 19.8725Z" fill="#2D3134"/>
<path d="M13.6701 19.3088L13.7251 17.6588C13.0101 17.4526 12.4189 17.6176 12.0889 18.0713L13.6701 19.3088Z" fill="#2D3134"/>
<path d="M11.8003 18.9238C11.8003 18.9788 11.8003 19.02 11.8003 19.075C11.8003 19.7213 12.0478 20.4225 12.4603 21.0688L13.3265 20.2163L11.8003 18.9238Z" fill="#2D3134"/>
<path d="M14.2338 21.3438L13.2988 22.1C13.5876 22.3612 13.9038 22.5812 14.2338 22.7462C14.5638 22.9112 14.8801 23.0075 15.1688 23.0212L14.2338 21.3438Z" fill="#2D3134"/>
<path opacity="0.11" d="M17.6994 22.0313C17.6994 23.9425 16.1457 24.7262 14.2345 23.7637C12.3233 22.8012 10.7695 20.4775 10.7695 18.5663C10.7695 16.6551 12.3233 15.8713 14.2345 16.8338C16.1457 17.7963 17.6994 20.12 17.6994 22.0313Z" fill="black"/>
<path d="M61.5609 21.825C58.9072 19.46 47.4674 10.4677 45.5562 9.05145C43.6449 7.63523 36.7288 3.29029 32.0814 2.09406C27.4339 0.897827 26.8564 1.59907 25.9077 1.39282C24.959 1.18657 22.1403 0.526583 17.9878 1.80531C16.2141 2.3553 14.1104 2.9603 12.3917 4.50027C10.1092 6.53524 8.34921 9.69769 7.49672 11.4164L7.31798 11.9939C7.00173 13.0251 7.13923 14.1526 7.68922 15.0739C8.15671 15.8576 8.74796 16.7651 9.18795 17.2601C9.57294 17.6863 10.0404 18.1401 10.4392 18.5251C10.4392 18.4976 10.4392 18.4563 10.4392 18.4288C10.4392 16.9713 11.2917 16.0363 12.6116 16.0363C13.1341 16.0363 13.6979 16.1876 14.2754 16.4763C16.2691 17.4663 17.8778 19.9 17.8778 21.8938C17.8778 22.155 17.8503 22.4025 17.7953 22.6362L36.8938 32.1786C36.88 32.0274 36.8663 31.8761 36.8663 31.7386C36.8663 30.2811 37.7188 29.3461 39.0388 29.3461C39.5612 29.3461 40.125 29.4974 40.7025 29.7861C42.6962 30.7761 44.3049 33.2098 44.3049 35.2036C44.3049 35.4373 44.2774 35.6436 44.2362 35.8498L45.7624 36.606C45.7624 36.606 48.6224 37.3485 50.4511 37.1835C52.2798 37.0185 56.0472 35.781 59.0722 34.2823C62.0972 32.7836 64.6546 30.1436 64.7096 28.7687C64.7371 28.2462 64.2146 24.19 61.5609 21.825Z" fill="#F8EBCB"/>
<path d="M50.9459 13.7814C50.9459 13.7814 50.7809 12.6264 50.9459 12.3239C51.1109 12.0352 51.3996 11.5814 51.7709 11.9114C52.1421 12.2414 52.5546 13.1901 52.1834 14.0701C51.8121 14.9501 50.9459 13.7814 50.9459 13.7814Z" fill="#F8EBCB"/>
<path opacity="0.3" d="M9.00879 9.27145C9.00879 9.27145 17.8637 15.3901 28.0385 20.8625C38.2133 26.3349 43.562 29.4424 43.562 29.4424L37.2784 24.0525L14.7425 10.9077L9.00879 9.27145Z" fill="white"/>
<path d="M14.9629 11.0452L37.2651 24.0662C37.2651 24.0662 35.1063 14.5789 27.489 10.7564C19.8716 6.93399 14.9629 11.0452 14.9629 11.0452Z" fill="#2D3134"/>
<path d="M24.258 4.00528C27.228 2.6028 29.6479 2.17656 29.6479 1.88781C29.6479 1.59907 22.0168 1.22782 17.3006 3.59279C12.5844 5.95775 12.8182 7.99272 14.6057 7.77272C16.3931 7.55273 18.7856 7.36023 19.5418 6.98899C20.2981 6.61774 21.728 5.20151 24.258 4.00528Z" fill="#2D3134"/>
<path d="M14.5227 7.45648C14.344 7.45648 13.9177 7.41523 13.849 7.09899C13.739 6.63149 14.3715 5.32526 17.5752 3.73029C21.0814 1.98406 26.0175 1.84657 27.4475 1.84657C28.1763 1.84657 28.7262 1.87406 29.0975 1.91531C28.905 1.98406 28.6987 2.05281 28.4787 2.12156C27.4888 2.43781 25.99 2.91905 24.3263 3.71654C22.6351 4.51403 21.3976 5.43526 20.5864 6.0265C20.1601 6.329 19.8301 6.57649 19.5964 6.70024C19.0189 6.98899 17.2314 7.18149 15.6639 7.36023C15.3477 7.40148 15.0314 7.42898 14.7427 7.45648C14.6602 7.45648 14.5915 7.45648 14.5227 7.45648Z" fill="#656565"/>
<path d="M34.5284 14.7439C34.2534 15.5001 38.6671 22.9525 40.0421 23.3237C41.4033 23.695 45.5145 23.5712 49.5707 21.33C53.6269 19.0888 54.3831 17.3563 54.1769 16.7238C53.9706 16.1051 46.1745 9.54644 44.8958 9.4227C43.617 9.29895 34.8584 13.8226 34.5284 14.7439Z" fill="#2D3134"/>
<path opacity="0.2" d="M45.3501 30.8999C45.3501 30.8999 45.9276 30.1299 47.4813 29.9511C49.035 29.7861 50.9325 29.9374 52.3487 31.2024C53.4075 32.1511 53.7925 32.5499 53.7925 32.5499C53.7925 32.5499 50.795 33.5261 49.31 33.3198C47.8388 33.1136 45.3501 30.8999 45.3501 30.8999Z" fill="white"/>
<path d="M45.6387 30.6386C45.6387 30.6386 46.1749 29.9236 47.6049 29.7724C49.0349 29.6211 50.7948 29.7586 52.1011 30.9274C53.0773 31.7936 53.4348 32.1649 53.4348 32.1649C53.4348 32.1649 50.6711 33.0723 49.2961 32.8798C47.9211 32.6873 45.6387 30.6386 45.6387 30.6386Z" fill="#E5E5E5"/>
<path opacity="0.2" d="M62.0284 28.2049C62.0284 28.2049 64.1184 26.2524 64.0084 25.7025C63.8984 25.1387 62.2897 22.3613 62.0834 22.7737C61.8772 23.1862 61.4372 23.8462 61.6022 24.41C61.7672 24.9737 62.0697 27.7099 62.0284 28.2049Z" fill="white"/>
<path d="M62.0149 27.8199C62.0149 27.8199 63.9811 25.8674 63.8848 25.3175C63.7748 24.7537 62.1661 21.9763 61.9599 22.3888C61.7536 22.8012 61.3136 23.4612 61.4786 24.025C61.6436 24.575 62.0561 27.3112 62.0149 27.8199Z" fill="#E5E5E5"/>
<path d="M49.5575 36.056L49.4888 36.661C49.4888 36.661 55.6349 35.8773 59.4986 33.4986C63.3486 31.1199 64.2835 29.2636 64.2835 29.2636C64.2835 29.2636 61.3136 32.4811 57.6836 33.9661C53.8749 35.506 49.5575 36.056 49.5575 36.056Z" fill="#2D3134"/>
<path d="M53.2978 16.2151C52.5965 15.5414 51.2628 14.3589 49.5716 12.9976C46.8216 10.7702 45.2129 9.73894 44.8279 9.71144H44.8141C44.2504 9.71144 42.0092 10.6464 39.5067 11.9389C36.633 13.4101 35.093 14.4551 34.873 14.7714C34.9005 15.1564 35.6568 16.7926 37.0593 19.0476C38.613 21.5363 39.7405 22.7737 40.1117 22.8837C40.318 22.9387 40.5792 22.98 40.8817 23.0075C42.6967 22.7325 45.8316 22.0313 48.8841 20.23C51.469 18.7038 52.7065 17.2326 53.2978 16.2151Z" fill="#656565"/>
<path d="M16.8469 10.5227L16.5581 11.3889L25.138 16.3938L26.513 10.8664L26.4717 10.8114C24.6567 10.0139 22.8693 9.6152 21.123 9.6152C19.2943 9.62895 17.8368 10.0827 16.8469 10.5227Z" fill="#656565"/>
<path d="M34.9277 22.1138L35.2715 20.01C35.1202 19.6938 34.969 19.3775 34.7902 19.0476C33.4977 16.6001 31.2153 13.3139 27.5991 11.3752L26.7466 17.3288L34.9277 22.1138Z" fill="#656565"/>
<path opacity="0.2" d="M18.2768 14.7576C18.2768 15.1564 17.9468 15.3214 17.5481 15.1289C17.1493 14.9226 16.8193 14.4414 16.8193 14.0289C16.8193 13.6164 17.1493 13.4651 17.5481 13.6576C17.9468 13.8639 18.2768 14.3451 18.2768 14.7576Z" fill="black"/>
<path d="M16.3792 13.5201L16.063 13.8776C16.063 13.8776 18.3592 15.3764 18.5655 15.0739C18.7854 14.7851 16.3792 13.5201 16.3792 13.5201Z" fill="#F8EBCB"/>
<path opacity="0.2" d="M28.0664 20.3263C28.0664 20.725 27.7364 20.89 27.3376 20.6975C26.9389 20.4913 26.6089 20.01 26.6089 19.5976C26.6089 19.1988 26.9389 19.0338 27.3376 19.2263C27.7364 19.4326 28.0664 19.9138 28.0664 20.3263Z" fill="black"/>
<path d="M26.1693 19.0751L25.853 19.4326C25.853 19.4326 28.1492 20.9313 28.3555 20.6288C28.5755 20.34 26.1693 19.0751 26.1693 19.0751Z" fill="#F8EBCB"/>
<path opacity="0.2" d="M37.2098 24.0525C37.2098 24.0662 36.9623 25.015 36.756 26.1699C36.5635 27.2149 36.4535 30.6799 36.426 31.2986L25.4812 25.7574C25.4675 25.5375 25.3162 23.4887 25.3162 21.6188C25.3162 19.6525 25.8112 17.4663 25.8112 17.4526L25.6875 17.4251C25.6875 17.4526 25.1925 19.6525 25.1925 21.6188C25.1925 23.3512 25.3162 25.2487 25.3575 25.6887L19.9125 22.9387C19.7888 22.7737 18.4688 20.9725 17.1763 18.2363C15.8426 15.4176 16.1589 11.8427 16.1726 11.8014L16.0489 11.7877C16.0489 11.8289 15.7189 15.4314 17.0663 18.2913C18.4276 21.1513 19.8163 23.0075 19.83 23.0212L19.8438 23.035L36.536 31.5049V31.4086C36.536 31.3674 36.6598 27.3387 36.866 26.1974C37.0723 25.0562 37.3198 24.0937 37.3198 24.0937L37.2098 24.0525Z" fill="black"/>
<path opacity="0.3" d="M50.3002 30.7899C50.3002 31.2849 49.9014 31.8761 49.4064 32.1236C48.9114 32.3711 48.5127 32.1649 48.5127 31.6836C48.5127 31.1886 48.9114 30.5974 49.4064 30.3499C49.9014 30.1024 50.3002 30.2949 50.3002 30.7899Z" fill="black"/>
<path opacity="0.3" d="M51.675 31.1474C51.675 31.4911 51.4 31.9036 51.0562 32.0824C50.7125 32.2474 50.4375 32.1099 50.4375 31.7661C50.4375 31.4224 50.7125 31.0099 51.0562 30.8311C51.4 30.6661 51.675 30.8036 51.675 31.1474Z" fill="black"/>
<path d="M48.3201 31.6011C48.3201 31.7799 48.1689 32.0136 47.9902 32.0961C47.8114 32.1923 47.6602 32.1098 47.6602 31.9311C47.6602 31.7524 47.8114 31.5186 47.9902 31.4361C48.1689 31.3399 48.3201 31.4086 48.3201 31.6011Z" fill="white"/>
<path opacity="0.4" d="M49.9288 31.1611C49.9288 31.4086 49.7226 31.7111 49.4888 31.8349C49.2413 31.9586 49.0488 31.8624 49.0488 31.6149C49.0488 31.3674 49.2551 31.0649 49.4888 30.9411C49.7226 30.8174 49.9288 30.9136 49.9288 31.1611Z" fill="white"/>
<path opacity="0.4" d="M51.4412 31.3949C51.4412 31.5736 51.29 31.8074 51.1112 31.8899C50.9325 31.9861 50.7812 31.9036 50.7812 31.7249C50.7812 31.5461 50.9325 31.3124 51.1112 31.2299C51.29 31.1336 51.4412 31.2161 51.4412 31.3949Z" fill="white"/>
<path d="M47.8245 30.4874C47.8245 30.6661 47.6733 30.8999 47.4945 30.9824C47.3158 31.0786 47.1646 30.9961 47.1646 30.8174C47.1646 30.6386 47.3158 30.4049 47.4945 30.3224C47.6733 30.2261 47.8245 30.3086 47.8245 30.4874Z" fill="white"/>
<path d="M62.5238 23.255C62.5238 23.4337 62.3725 23.6675 62.1938 23.75C62.015 23.8462 61.8638 23.7637 61.8638 23.585C61.8638 23.4062 62.015 23.1725 62.1938 23.09C62.3725 22.9937 62.5238 23.0625 62.5238 23.255Z" fill="white"/>
<path d="M63.1424 24.1212C63.1424 24.3 62.9912 24.5337 62.8124 24.6162C62.6337 24.7125 62.4824 24.63 62.4824 24.4512C62.4824 24.2725 62.6337 24.0387 62.8124 23.9562C62.9912 23.86 63.1424 23.9425 63.1424 24.1212Z" fill="white"/>
<path opacity="0.3" d="M63.3344 24.6987C63.3344 25.125 62.9907 25.6337 62.5644 25.8399C62.1382 26.0462 61.7944 25.8812 61.7944 25.455C61.7944 25.0287 62.1382 24.52 62.5644 24.3137C62.9907 24.1075 63.3344 24.2862 63.3344 24.6987Z" fill="black"/>
<path opacity="0.4" d="M62.8808 25.1525C62.8808 25.3725 62.7021 25.6337 62.4958 25.7437C62.2758 25.8537 62.1108 25.7575 62.1108 25.5512C62.1108 25.345 62.2896 25.07 62.4958 24.96C62.7021 24.85 62.8808 24.9325 62.8808 25.1525Z" fill="white"/>
<path opacity="0.3" d="M62.7156 25.8537C62.7156 25.51 62.4406 25.3725 62.0969 25.5375C61.9869 25.5925 61.8906 25.6612 61.8081 25.7575C61.8631 26.1287 61.9181 26.5137 61.9594 26.8437C62.0006 26.8299 62.0556 26.8162 62.1106 26.7887C62.4406 26.6237 62.7156 26.1974 62.7156 25.8537Z" fill="black"/>
<path opacity="0.3" d="M45.6387 30.6249C46.3124 30.5699 48.2099 30.4736 49.4061 30.7624C50.6023 31.0511 52.6786 31.8486 53.4211 32.1511C53.3386 32.0686 52.9536 31.6836 52.1011 30.9274C50.7948 29.7586 49.0349 29.6211 47.6049 29.7724C46.2987 29.9099 45.7349 30.5149 45.6387 30.6249Z" fill="black"/>
<path d="M34.1574 20.7113C34.1574 20.7113 35.1887 21.2063 35.6561 21.825C36.1099 22.4437 36.1099 22.7737 36.1099 22.7737C36.1099 22.7737 33.2499 23.3925 31.8337 22.485C30.335 21.5088 34.1574 20.7113 34.1574 20.7113Z" fill="#F8EBCB"/>
<path d="M41.6787 23.1037L42.2012 23.0625L47.0136 20.725L47.2749 20.2438L50.2036 18.8826L50.0798 18.6488L44.4837 21.1375L44.6487 21.3438L46.8211 20.3813L46.6974 20.5188L41.995 22.7737L41.6787 23.1037Z" fill="#2D3134"/>
<path d="M46.7666 21.8113H47.2203L51.0565 18.9651L51.524 17.8651L52.9953 15.9951L52.899 15.8576L50.1353 19.0063L50.2453 19.1713L50.9878 18.5113L50.7815 18.8826L46.8903 21.5775L46.7666 21.8113Z" fill="#2D3134"/>
<path d="M52.5684 30.8861L54.1633 32.3161C54.1633 32.3161 56.4733 31.8761 58.5358 30.8174C60.5982 29.7586 61.8357 28.3287 61.8357 28.3287L61.6707 26.2387C61.6707 26.2387 60.7357 27.9299 58.0408 29.2636C55.6483 30.4599 52.5684 30.8861 52.5684 30.8861Z" fill="#2D3134"/>
<path opacity="0.29" d="M58.976 33.9111C61.9872 32.3986 64.5584 29.8411 64.6134 28.4662C64.6272 28.2324 64.6409 27.8474 64.3109 26.7612C64.2834 26.6649 64.1597 26.6512 64.1047 26.7337C63.046 28.2462 61.2447 30.2124 58.4398 31.5599C55.5248 32.9623 51.9499 34.1586 49.1999 34.0211C48.5537 33.9936 48.4437 34.6398 48.3887 35.6573C48.3612 36.3173 48.9112 36.8673 49.5712 36.7985C51.9361 36.5648 55.7311 35.5336 58.976 33.9111Z" fill="black"/>
<path opacity="0.11" d="M46.051 32.1099C45.0885 31.0236 39.5886 25.2487 38.1586 22.9937C36.2886 20.065 33.2362 12.9014 27.6125 10.2202C21.9751 7.53898 15.5952 8.68021 13.6702 8.81771C12.5015 8.88646 10.6865 8.46022 9.42154 8.10272C8.59655 9.35395 7.95031 10.5639 7.52407 11.4302L7.34532 12.0077C7.02908 13.0389 7.16657 14.1664 7.71657 15.0876C8.18406 15.8714 8.7753 16.7788 9.21529 17.2738C9.60029 17.7001 10.0678 18.1538 10.4665 18.5388C10.4665 18.5113 10.4665 18.4701 10.4665 18.4426C10.4665 16.9851 11.319 16.0501 12.639 16.0501C13.1615 16.0501 13.7252 16.2013 14.3027 16.4901C16.2964 17.4801 17.9052 19.9138 17.9052 21.9075C17.9052 22.1688 17.8777 22.4163 17.8227 22.65L36.9211 32.1924C36.9074 32.0411 36.8936 31.8899 36.8936 31.7524C36.8936 30.2949 37.7461 29.3599 39.0661 29.3599C39.5886 29.3599 40.1523 29.5111 40.7298 29.7999C42.7235 30.7899 44.3323 33.2236 44.3323 35.2173C44.3323 35.4511 44.3048 35.6573 44.2635 35.8636L45.7897 36.6198C45.7897 36.6198 46.5872 36.826 47.6047 37.0048C47.3572 34.9836 46.8485 33.0173 46.051 32.1099Z" fill="black"/>
<path d="M7.7165 11.8564C7.7165 11.8564 8.58274 9.64269 9.06398 8.9552C9.54522 8.26772 10.0815 7.64897 10.0815 7.64897L9.93022 7.23648C9.93022 7.23648 8.91273 7.59397 8.73399 7.89647C8.54149 8.21272 7.51025 11.4164 7.51025 11.4164L7.7165 11.8564Z" fill="#CC291F"/>
<path opacity="0.2" d="M53.0361 16.6138C53.1324 16.4763 53.2149 16.3388 53.2836 16.2151C52.5824 15.5414 51.2486 14.3589 49.5574 12.9976C46.8075 10.7702 45.1987 9.73894 44.8137 9.71144H44.8C44.2362 9.71144 41.995 10.6464 39.4926 11.9389C36.6189 13.4101 35.0789 14.4551 34.8589 14.7714C34.8726 14.8951 34.9551 15.1701 35.1201 15.5414C40.9913 13.6439 47.4124 14.0151 53.0361 16.6138Z" fill="black"/>
<path d="M57.0786 33.1273V35.1348L60.6948 33.3336V31.3399L57.0786 33.1273Z" fill="#E5E5E5"/>
<path opacity="0.2" d="M62.0149 27.8199C62.0149 27.8199 63.9811 25.8674 63.8848 25.3175C63.7748 24.7537 62.1661 21.9763 61.9599 22.3888C61.7536 22.8012 61.3136 23.4612 61.4786 24.025C61.6436 24.575 62.0561 27.3112 62.0149 27.8199Z" fill="black"/>
<path d="M34.7219 15.3489C34.2819 14.2626 31.2294 10.7977 27.847 9.13395C23.5846 7.04398 19.8721 7.04399 19.1159 7.15398L19.0884 6.97524C19.8584 6.86524 23.6258 6.86524 27.9295 8.96896C29.4282 9.6977 31.0507 10.8939 32.5219 12.3239C33.6907 13.4514 34.6394 14.6476 34.9006 15.2801L34.7219 15.3489Z" fill="#2D3134"/>
<path d="M45.6251 10.0002L45.6113 9.98644C44.2364 8.9827 40.5652 6.31524 37.1827 4.66527C32.934 2.58905 29.6203 1.94281 28.8916 1.94281V1.75031C29.6341 1.75031 32.989 2.39655 37.2652 4.50027C40.6614 6.164 44.3326 8.83146 45.7213 9.83519L45.7351 9.84894L45.6251 10.0002Z" fill="#2D3134"/>
</g>
<defs>
<filter id="filter0_f_51_476" x="-6.12151" y="1.24295" width="78.0135" height="46.389" filterUnits="userSpaceOnUse" color-interpolation-filters="sRGB">
<feFlood flood-opacity="0" result="BackgroundImageFix"/>
<feBlend mode="normal" in="SourceGraphic" in2="BackgroundImageFix" result="shape"/>
<feGaussianBlur stdDeviation="3.69113" result="effect1_foregroundBlur_51_476"/>
</filter>
<clipPath id="clip0_51_476">
<rect width="63.9795" height="40.1923" fill="white" transform="translate(0.706055 0.460724)"/>
</clipPath>
</defs>
</svg>
