<svg width="24" height="24" viewBox="0 0 24 24" fill="none" xmlns="http://www.w3.org/2000/svg">
<path d="M19.145 0.938477H4.14502C1.93588 0.938477 0.14502 2.72934 0.14502 4.93848V19.9385C0.14502 22.1476 1.93588 23.9385 4.14502 23.9385H19.145C21.3542 23.9385 23.145 22.1476 23.145 19.9385V4.93848C23.145 2.72934 21.3542 0.938477 19.145 0.938477Z" fill="#253138"/>
<path d="M3.37535 15.1496H4.41101C4.45308 16.0079 5.1624 16.6906 6.03121 16.6906C6.90002 16.6906 7.60935 16.0079 7.6514 15.1496H14.9889C15.031 16.0079 15.7403 16.6906 16.6091 16.6906C17.4779 16.6906 18.1872 16.0079 18.2293 15.1496H19.0781C19.1734 15.1496 19.26 15.1068 19.3225 15.0379C19.385 14.9689 19.4237 14.8739 19.4237 14.7686C19.4237 14.678 19.3945 14.5903 19.341 14.5213L19.1649 14.2939C19.5583 13.4029 19.4204 12.1262 19.2892 11.3912C19.2139 10.9679 18.9826 10.5978 18.6491 10.3722C18.2495 10.1017 17.5689 9.73206 16.4472 9.33795C14.2147 8.55376 10.2681 9.23526 9.49098 9.87278C8.87176 10.3805 7.64663 11.5843 6.0937 11.7625C5.28672 11.855 4.59568 12.091 4.1179 12.2967C3.69264 12.4795 3.40813 12.9252 3.39266 13.4279L3.37578 13.973L3.10646 14.171C3.03895 14.2206 2.98502 14.287 2.94791 14.3635C2.91083 14.4398 2.89062 14.5263 2.89062 14.6155C2.89065 14.9105 3.10767 15.1496 3.37535 15.1496ZM17.6338 15.1496C17.5925 15.6785 17.1487 16.0964 16.6091 16.0964C16.0695 16.0964 15.6257 15.6785 15.5844 15.1496C15.5822 15.123 15.581 15.0959 15.581 15.0685C15.581 14.5016 16.0422 14.0405 16.6091 14.0405C17.1761 14.0405 17.6372 14.5016 17.6372 15.0685C17.6372 15.0959 17.636 15.123 17.6338 15.1496ZM18.9471 12.5477C19.0264 12.5641 19.0843 12.632 19.0887 12.7129C19.1082 13.0726 19.0548 13.443 19.0192 13.641C19.004 13.7256 18.9303 13.7869 18.8444 13.7869H18.7256C18.621 13.7869 18.539 13.6969 18.5488 13.5927L18.6201 12.8314C18.6237 12.7933 18.6395 12.7574 18.6652 12.729L18.7793 12.6026C18.8215 12.5558 18.8854 12.5349 18.9471 12.5477ZM15.463 10.8957L15.5825 10.3394C15.6348 10.0961 15.8376 9.91393 16.0852 9.88797L16.1865 9.87732C16.2078 9.88438 16.2295 9.8913 16.2503 9.8986C17.3486 10.2845 17.9799 10.6367 18.316 10.8643C18.5154 10.9991 18.6568 11.2291 18.7042 11.4954C18.7099 11.5277 18.7155 11.56 18.7209 11.5921H16.0257C15.9028 11.5921 15.7832 11.5528 15.6843 11.4799C15.5021 11.3457 15.4155 11.117 15.463 10.8957ZM13.0039 12.8836H12.4097C12.2981 12.8836 12.2076 12.7932 12.2076 12.6816C12.2076 12.57 12.2981 12.4795 12.4097 12.4795H13.0039C13.1155 12.4795 13.206 12.57 13.206 12.6816C13.206 12.7932 13.1155 12.8836 13.0039 12.8836ZM9.62823 10.5346C9.71939 10.4568 9.79809 10.3895 9.86781 10.3323C9.97133 10.2474 10.406 10.0371 11.3108 9.84866C12.0636 9.69184 12.8987 9.59911 13.6889 9.58297L13.4126 11.168C13.3429 11.5681 13.0035 11.8653 12.5978 11.8818L8.47158 12.0493C8.23659 12.0588 8.01043 11.9719 7.84285 11.8128C8.5921 11.4197 9.19734 10.9029 9.62823 10.5346ZM6.03121 14.0405C6.59816 14.0405 7.05928 14.5016 7.05928 15.0685C7.05928 15.0959 7.05809 15.123 7.05595 15.1496C7.01459 15.6785 6.5708 16.0964 6.03121 16.0964C5.49162 16.0964 5.04782 15.6785 5.00648 15.1496C5.00432 15.123 5.00313 15.0959 5.00313 15.0685C5.00316 14.5016 5.4643 14.0405 6.03121 14.0405ZM4.01468 12.8995C4.17661 12.8995 4.30785 13.0981 4.30785 13.3432C4.30785 13.5883 4.17661 13.7869 4.01468 13.7869C3.85278 13.7869 3.72152 13.5883 3.72152 13.3432C3.72155 13.0981 3.85278 12.8995 4.01468 12.8995Z" fill="white"/>
</svg>
