<svg width="28" height="29" viewBox="0 0 28 29" fill="none" xmlns="http://www.w3.org/2000/svg">
<g clip-path="url(#clip0_316_26)">
<path d="M21.2497 9.00323C21.1418 8.8804 20.988 8.81038 20.825 8.80808H16.4973V7.1895C16.4973 6.86807 16.5662 6.50073 17.0827 6.50073H20.5265C20.6792 6.50762 20.8273 6.44449 20.9283 6.32854C21.0293 6.22408 21.0867 6.08403 21.089 5.93825V1.3465C21.089 1.02967 20.8319 0.772537 20.5151 0.772537H15.5445C10.0344 0.772537 9.60968 5.47907 9.60968 6.91399V8.80808H6.73984C6.42301 8.80808 6.16587 9.06522 6.16587 9.38205V13.9738C6.16587 14.2906 6.42301 14.5478 6.73984 14.5478H9.60968V27.749C9.60968 28.0658 9.86681 28.323 10.1836 28.323H15.9233C16.2402 28.323 16.4973 28.0658 16.4973 27.749V14.5478H20.3429C20.639 14.5489 20.887 14.3251 20.9168 14.0312L21.399 9.43945C21.4127 9.27989 21.3588 9.12147 21.2497 9.00323Z" fill="#2273ED"/>
</g>
<defs>
<clipPath id="clip0_316_26">
<rect width="27.5504" height="27.5504" fill="white" transform="translate(0.426239 0.772537)"/>
</clipPath>
</defs>
</svg>
