<svg width="29" height="28" viewBox="0 0 29 28" fill="none" xmlns="http://www.w3.org/2000/svg">
<g clip-path="url(#clip0_1_200)">
<path d="M10.1068 0.920933C7.20928 1.89146 4.71043 3.73355 2.97734 6.17663C1.24424 8.6197 0.368245 11.535 0.478016 14.4943C0.587788 17.4536 1.67754 20.3009 3.58721 22.618C5.49688 24.9351 8.12581 26.5999 11.0878 27.3678C13.4892 27.9661 16.0052 27.9924 18.4194 27.4444C20.6065 26.9701 22.6284 25.9555 24.2874 24.5C26.014 22.9389 27.2672 20.9529 27.9124 18.7556C28.6134 16.3661 28.7382 13.8533 28.2771 11.41H14.7921V16.8109H22.6017C22.4457 17.6723 22.1112 18.4945 21.6184 19.2282C21.1255 19.9619 20.4844 20.592 19.7335 21.0809C18.7799 21.6902 17.7049 22.1001 16.5775 22.2841C15.4468 22.4871 14.287 22.4871 13.1564 22.2841C12.0103 22.0555 10.9262 21.5988 9.97315 20.9431C8.44193 19.8966 7.29219 18.4098 6.688 16.695C6.07376 14.948 6.07376 13.0542 6.688 11.3072C7.11807 10.0827 7.82904 8.96773 8.76784 8.04562C9.84218 6.971 11.2023 6.20286 12.6991 5.82548C14.1958 5.44809 15.7712 5.47603 17.2526 5.90625C18.4099 6.24908 19.4681 6.84835 20.3429 7.65625C21.2235 6.81041 22.1026 5.96239 22.9801 5.11218C23.4332 4.655 23.9271 4.21968 24.3735 3.75156C23.038 2.55175 21.4704 1.6181 19.7607 1.00406C16.647 -0.0875264 13.2401 -0.116862 10.1068 0.920933Z" fill="white"/>
<path d="M10.1068 0.920944C13.2399 -0.117557 16.6468 -0.0889937 19.7607 1.00188C21.4707 1.62009 23.0375 2.55824 24.3712 3.76251C23.9181 4.23063 23.44 4.66813 22.9778 5.12313C22.0988 5.97042 21.2205 6.8148 20.3429 7.65626C19.4681 6.84837 18.4099 6.24909 17.2526 5.90626C15.7717 5.47453 14.1963 5.44497 12.6992 5.82082C11.2021 6.19666 9.84109 6.96339 8.76557 8.03688C7.82677 8.95899 7.11581 10.0739 6.68573 11.2984L1.98909 7.78751C3.6702 4.56873 6.58094 2.10662 10.1068 0.920944Z" fill="#E33629"/>
<path d="M0.742998 11.2656C0.995251 10.0576 1.41436 8.8878 1.98909 7.78751L6.68573 11.3072C6.0715 13.0542 6.0715 14.948 6.68573 16.695C5.12094 17.8617 3.55539 19.0342 1.98909 20.2125C0.550761 17.4482 0.112095 14.2986 0.742998 11.2656Z" fill="#F8BD00"/>
<path d="M14.7921 11.4078H28.2771C28.7382 13.8511 28.6134 16.3639 27.9124 18.7534C27.2672 20.9507 26.014 22.9367 24.2874 24.4978C22.7717 23.3559 21.2492 22.2228 19.7335 21.0809C20.4849 20.5915 21.1263 19.9607 21.6192 19.2262C22.112 18.4917 22.4462 17.6687 22.6018 16.8066H14.7921C14.7899 15.0084 14.7921 13.2081 14.7921 11.4078Z" fill="#587DBD"/>
<path d="M1.98683 20.2125C3.55313 19.0458 5.11868 17.8733 6.68347 16.695C7.28886 18.4104 8.44025 19.8973 9.97316 20.9431C10.9291 21.5958 12.0156 22.0488 13.1632 22.2731C14.2938 22.4762 15.4536 22.4762 16.5843 22.2731C17.7117 22.0891 18.7868 21.6793 19.7403 21.07C21.256 22.2119 22.7785 23.345 24.2942 24.4869C22.6355 25.9432 20.6135 26.9585 18.4262 27.4334C16.012 27.9814 13.496 27.9552 11.0946 27.3569C9.19538 26.8673 7.42133 26.0041 5.88371 24.8216C4.25637 23.5739 2.92714 22.0017 1.98683 20.2125Z" fill="#319F43"/>
</g>
<defs>
<clipPath id="clip0_1_200">
<rect width="29" height="28" fill="white" transform="translate(0.00440979)"/>
</clipPath>
</defs>
</svg>
