<svg width="188" height="88" viewBox="0 0 188 88" fill="none" xmlns="http://www.w3.org/2000/svg">
<path d="M41.8664 80.357L41.8664 31.7247C41.8664 25.1817 47.1706 19.8776 53.7136 19.8776H65.3501" stroke="#FCDA3B" stroke-width="12.4531" stroke-linecap="square"/>
<path d="M82.486 18.6663C82.894 19.0716 82.8946 19.7315 82.4873 20.1375L68.4321 34.1486C67.7782 34.8004 66.6625 34.3379 66.6617 33.4146L66.6367 5.41761C66.6358 4.4943 67.7507 4.02973 68.4057 4.68041L82.486 18.6663Z" fill="#FCDA3B"/>
<path d="M12.7377 13.1019H40.2137L37.4128 15.9029C35.219 18.0967 33.4639 20.689 32.2418 23.5407L31.5292 25.2034L12.7147 24.8725C12.6663 24.8716 12.6185 24.8614 12.574 24.8423C7.66425 22.7381 7.38421 15.8828 12.106 13.3851L12.5563 13.147C12.6122 13.1174 12.6745 13.1019 12.7377 13.1019Z" fill="#FCDA3B" stroke="#FCE00F" stroke-width="0.518878"/>
<path d="M58.413 79.4103L58.413 60.7814C58.413 52.1843 65.3823 45.215 73.9794 45.215H78.3379" stroke="#ED2241" stroke-width="12.4531" stroke-linecap="square"/>
<rect x="90.0595" y="52.5807" width="8.20175" height="32.0939" fill="#ED2241"/>
<rect x="90.0595" y="38.8229" width="8.53878" height="9.89538" fill="#ED2241"/>
<rect x="143.794" y="52.5807" width="8.20175" height="32.0939" fill="#ED2241"/>
<rect x="143.794" y="38.8229" width="8.53878" height="9.89538" fill="#ED2241"/>
<path d="M187.356 61.2288V84.6746H178.968V83.736C178.968 83.558 178.796 83.4307 178.626 83.4826L176.116 84.2481C175.189 84.5309 174.225 84.6746 173.256 84.6746H168.311L168.167 84.6574C161.834 83.9021 156.79 79.0022 155.852 72.6939C155.779 72.2049 155.743 71.7112 155.743 71.2168V60.5961C155.743 60.283 155.771 59.9705 155.828 59.6626C156.947 53.6035 161.815 48.9389 167.917 48.0805L168.863 47.9474L174.717 47.9474C180.35 48.5739 185.057 52.52 186.657 57.9572L187.105 59.4801C187.272 60.048 187.356 60.6368 187.356 61.2288Z" fill="#ED2241" stroke="#ED2241" stroke-width="0.264959"/>
<path d="M116.575 70.3035V69.389C116.575 65.956 119.358 63.173 122.791 63.173H125.099H125.394C126.708 63.173 127.774 62.1074 127.774 60.7929L127.774 53.2594C127.774 52.2711 126.973 51.47 125.984 51.47H125.577H117.874H117.725C116.023 51.47 114.643 52.8494 114.643 54.551V54.5867V87.042H101.671V51.9409C102.35 45.9139 106.631 40.9079 112.48 39.3008L114.219 38.8229H127.512L128.952 39.0964C134.843 40.2155 139.409 44.8939 140.385 50.8107L140.385 63.173C139.456 70.2852 133.396 75.605 126.223 75.605H121.876C118.948 75.605 116.575 73.2314 116.575 70.3035Z" fill="#ED2241" stroke="#ED2241" stroke-width="0.256756"/>
<rect x="163.932" y="56.4904" width="15.1091" height="19.6571" rx="6.09406" fill="white"/>
<path d="M4.35098 19.2565L25.2699 19.1036C25.4934 19.102 25.623 19.2744 25.5594 19.4887C25.4957 19.703 25.2629 19.878 25.0394 19.8797L4.12048 20.0326C3.89694 20.0342 3.76731 19.8618 3.83096 19.6475C3.89462 19.4332 4.12743 19.2582 4.35098 19.2565Z" fill="white"/>
<path d="M6.872 21.2638L27.7909 21.1109C28.0144 21.1093 28.1441 21.2817 28.0804 21.496C28.0168 21.7103 27.7839 21.8853 27.5604 21.8869L6.6415 22.0398C6.41795 22.0415 6.28833 21.8691 6.35198 21.6548C6.41563 21.4405 6.64845 21.2654 6.872 21.2638Z" fill="white"/>
<path d="M7.75738 17.2417L31.7306 16.9369C31.9864 16.9337 32.1342 17.1297 32.0607 17.3747C31.9872 17.6198 31.7203 17.821 31.4645 17.8243L7.49132 18.1291C7.23552 18.1323 7.08771 17.9363 7.16118 17.6913C7.23465 17.4462 7.50158 17.245 7.75738 17.2417Z" fill="white"/>
<path d="M26.7712 19.1131L27.6262 19.1022C27.8497 19.0993 27.9789 19.2706 27.9147 19.4848C27.8505 19.6989 27.6172 19.8748 27.3937 19.8776L26.5387 19.8885C26.3152 19.8914 26.186 19.7201 26.2502 19.5059C26.3144 19.2918 26.5477 19.1159 26.7712 19.1131Z" fill="white"/>
<path d="M28.4185 19.5537L28.4559 19.429C28.5098 19.2493 28.7056 19.1017 28.8931 19.0993C29.0807 19.0969 29.1891 19.2407 29.1353 19.4204L29.0979 19.545C29.044 19.7247 28.8482 19.8724 28.6606 19.8747C28.4731 19.8771 28.3647 19.7334 28.4185 19.5537Z" fill="white"/>
<path d="M26.8723 14.6726L28.6707 14.6352C28.894 14.6305 29.0425 14.8049 29.0023 15.0246C28.9621 15.2444 28.7484 15.4263 28.525 15.431L26.7267 15.4684C26.5033 15.4731 26.3548 15.2987 26.395 15.079C26.4353 14.8592 26.6489 14.6773 26.8723 14.6726Z" fill="white"/>
<path d="M29.5135 15.0996L29.5368 14.9722C29.5706 14.7876 29.75 14.6348 29.9376 14.6309C30.1252 14.627 30.2499 14.7734 30.2161 14.958L30.1928 15.0854C30.159 15.27 29.9796 15.4228 29.792 15.4267C29.6044 15.4306 29.4797 15.2842 29.5135 15.0996Z" fill="white"/>
<path d="M4.7816 14.7972L25.7012 14.5467C25.9245 14.5441 26.0733 14.7201 26.0335 14.9399C25.9936 15.1597 25.7802 15.34 25.5569 15.3427L4.63732 15.5932C4.41396 15.5959 4.26519 15.4199 4.30503 15.2001C4.34488 14.9803 4.55824 14.7999 4.7816 14.7972Z" fill="white"/>
<path d="M4.06906 23.0902L24.9879 22.9373C25.2115 22.9357 25.3411 23.1081 25.2775 23.3224C25.2138 23.5367 24.981 23.7118 24.7575 23.7134L3.83856 23.8663C3.61501 23.8679 3.48539 23.6955 3.54904 23.4812C3.61269 23.2669 3.84551 23.0919 4.06906 23.0902Z" fill="white"/>
</svg>
