<svg width="414" height="106" viewBox="0 0 414 106" fill="none" xmlns="http://www.w3.org/2000/svg">
<g filter="url(#filter0_d_41_76)">
<g clip-path="url(#clip0_41_76)">
<path d="M412.296 64.2612C412.296 43.8156 395.722 27.2412 375.276 27.2412H36.8076C16.362 27.2412 -0.212402 43.8156 -0.212402 64.2612V106.57H412.296V64.2612Z" fill="white"/>
<g opacity="0.3">
<g clip-path="url(#clip1_41_76)">
<path d="M57.3516 62.7486C59.0465 63.8446 61.309 63.359 62.4049 61.664C63.5009 59.9691 63.0153 57.7066 61.3203 56.6107C59.6254 55.5147 57.3629 56.0003 56.267 57.6953C55.171 59.3902 55.6566 61.6527 57.3516 62.7486Z" stroke="url(#paint0_linear_41_76)" stroke-width="2" stroke-miterlimit="10" stroke-linecap="round" stroke-linejoin="round"/>
<path d="M71.1522 61.1901L71.2442 59.3651C71.2955 58.357 70.5194 57.4994 69.5113 57.4482L68.9569 57.4205C66.8499 57.3137 65.6476 54.9663 66.7931 53.1947L67.0948 52.7283C67.6429 51.8804 67.4003 50.7498 66.5525 50.2016L65.018 49.2094C64.1702 48.6612 63.0395 48.9039 62.4913 49.7517L62.1897 50.2182C61.0442 51.9897 58.4097 51.8574 57.4482 49.979L57.1954 49.4848C56.735 48.5866 55.6345 48.2307 54.7362 48.6911L53.1097 49.5239C52.2114 49.9843 51.8556 51.0849 52.316 51.9832L52.5687 52.4774C53.5302 54.3557 52.0985 56.57 49.991 56.464L49.4366 56.4363C48.4285 56.385 47.5709 57.1611 47.5197 58.1692L47.4277 59.9942C47.3764 61.0023 48.1526 61.8599 49.1607 61.9112L49.715 61.9389C51.8225 62.0449 53.0243 64.393 51.8788 66.1646L51.5772 66.6311C51.029 67.4789 51.2717 68.6096 52.1195 69.1578L53.654 70.15C54.5018 70.6982 55.6325 70.4555 56.1806 69.6077L56.4823 69.1412C57.6278 67.3696 60.2622 67.5019 61.2237 69.3803L61.4765 69.8745C61.9369 70.7728 63.0375 71.1286 63.9357 70.6682L65.5622 69.8354C66.4605 69.375 66.8164 68.2745 66.3559 67.3762L66.1032 66.882C65.1417 65.0036 66.5734 62.7894 68.6809 62.8954L69.2353 62.9231C70.2434 62.9743 71.1018 62.1987 71.1522 61.1901Z" stroke="url(#paint1_linear_41_76)" stroke-width="2" stroke-miterlimit="10" stroke-linecap="round" stroke-linejoin="round"/>
</g>
</g>
<path d="M333.414 104.454C333.414 108.945 345.577 112.585 360.58 112.585C375.583 112.585 387.746 108.945 387.746 104.454C387.746 99.9643 375.583 96.3242 360.58 96.3242C345.577 96.3242 333.414 99.9643 333.414 104.454Z" fill="url(#paint2_linear_41_76)"/>
<g opacity="0.4">
<g clip-path="url(#clip2_41_76)">
<path d="M275.306 49.9928C275.098 49.8511 274.861 49.7647 274.613 49.7413C274.366 49.7179 274.117 49.7581 273.888 49.8585L267.481 52.7193L261.071 49.8585C261.081 49.8642 261.074 49.9012 261.082 49.9117C260.897 49.8172 260.696 49.7637 260.49 49.7545C260.284 49.7454 260.079 49.7807 259.887 49.8585L252.888 52.9835C252.619 53.1044 252.389 53.305 252.227 53.5605C252.066 53.8159 251.98 54.115 251.98 54.4208V73.1708C251.981 73.5851 252.139 73.9821 252.42 74.275C252.701 74.5679 253.082 74.7327 253.48 74.7333C253.683 74.7325 253.884 74.6901 254.072 74.6084L260.479 71.7475L266.889 74.6084C267.077 74.6901 267.278 74.7325 267.481 74.7333C267.686 74.7147 267.885 74.6522 268.066 74.5497C268.068 74.5621 268.073 74.6082 268.073 74.6082L275.072 71.4832C275.342 71.3622 275.571 71.1616 275.733 70.9062C275.894 70.6507 275.98 70.3516 275.98 70.0459V51.2959C275.98 51.0374 275.919 50.7829 275.801 50.5554C275.684 50.3279 275.514 50.1345 275.306 49.9928ZM254.98 55.4523L258.979 53.667V69.0143L254.98 70.7996V55.4523ZM261.979 53.664L265.981 55.4523V70.8027L261.979 69.0143V53.664ZM272.98 69.0143L268.981 70.7996V55.4523L272.98 53.667V69.0143Z" fill="url(#paint3_linear_41_76)"/>
</g>
</g>
<g opacity="0.4">
<g clip-path="url(#clip3_41_76)">
<path d="M172.215 51.1822H158.215C155.963 51.1822 154.132 53.0138 154.132 55.2655V74.5155L162.298 70.4322L170.465 74.5155V64.0155H176.298V55.2655C176.298 53.0138 174.467 51.1822 172.215 51.1822ZM168.132 70.7402L162.298 67.8235L156.465 70.7402V55.2655C156.465 54.3007 157.25 53.5155 158.215 53.5155H168.542C168.275 54.0604 168.135 54.6587 168.132 55.2655V70.7402ZM173.965 61.6822H170.465V55.2655C170.465 54.3007 171.25 53.5155 172.215 53.5155C173.18 53.5155 173.965 54.3007 173.965 55.2655V61.6822Z" fill="url(#paint4_linear_41_76)"/>
<path d="M158.798 59.3488H165.798V61.6821H158.798V59.3488Z" fill="url(#paint5_linear_41_76)"/>
</g>
</g>
<g opacity="0.58" filter="url(#filter1_f_41_76)">
<ellipse cx="13.946" cy="13.6231" rx="13.946" ry="13.6231" transform="matrix(-1 0 0 1 372.49 51.8062)" fill="#D60036" fill-opacity="0.24"/>
</g>
<path d="M347.822 68.5875H345.07C344.905 68.5875 344.759 68.5269 344.633 68.4057C344.511 68.279 344.451 68.1303 344.451 67.9595V62.9849C344.451 62.5497 344.296 62.1779 343.988 61.8694C343.679 61.5609 343.308 61.4066 342.872 61.4066C342.443 61.4066 342.074 61.5609 341.765 61.8694C341.457 62.1779 341.302 62.5497 341.302 62.9849V69.9427C341.302 70.1135 341.242 70.2595 341.121 70.3807C340.999 70.5019 340.853 70.5625 340.683 70.5625H334.741C333.761 70.5625 332.909 70.2071 332.188 69.4965C331.472 68.7803 331.114 67.9154 331.114 66.9018C331.114 66.2022 331.298 65.5493 331.667 64.9434C332.042 64.3319 332.538 63.8691 333.155 63.5551L333.51 63.3733C333.543 63.3568 333.573 63.3485 333.601 63.3485C333.628 63.3485 333.656 63.354 333.683 63.3651C333.744 63.3816 333.788 63.4174 333.816 63.4725L334.171 64.1749C334.193 64.2189 334.204 64.2603 334.204 64.2988C334.204 64.3759 334.16 64.4365 334.072 64.4806L333.717 64.6624C333.303 64.8717 332.973 65.1802 332.725 65.5879C332.477 65.9956 332.353 66.4335 332.353 66.9018C332.353 67.5684 332.59 68.1385 333.064 68.6123C333.538 69.0861 334.108 69.323 334.774 69.323H340.063V62.9849C340.063 62.2027 340.338 61.5388 340.889 60.9935C341.435 60.4426 342.096 60.1671 342.872 60.1671C343.649 60.1671 344.313 60.4426 344.864 60.9935C345.415 61.5388 345.69 62.2027 345.69 62.9849V67.3397H347.822V68.5875ZM336.187 72.1738C336.336 72.1738 336.41 72.251 336.41 72.4052V73.3968C336.41 73.5456 336.336 73.6199 336.187 73.6199H335.353C335.198 73.6199 335.121 73.5456 335.121 73.3968V72.4052C335.121 72.251 335.198 72.1738 335.353 72.1738H336.187ZM338.443 72.1738C338.592 72.1738 338.666 72.251 338.666 72.4052V73.3968C338.666 73.5456 338.592 73.6199 338.443 73.6199H337.609C337.46 73.6199 337.386 73.5456 337.386 73.3968V72.4052C337.386 72.251 337.46 72.1738 337.609 72.1738H338.443ZM354.243 68.5793H353.664C352.833 68.5793 352.21 68.3727 351.797 67.9595C351.797 67.954 351.794 67.9485 351.789 67.943C351.783 67.9375 351.78 67.932 351.78 67.9264L351.706 68.0008H351.714C351.329 68.3864 350.808 68.5793 350.152 68.5793H347.244V67.3397H350.177C350.475 67.3397 350.695 67.2654 350.838 67.1166C350.993 66.9679 351.07 66.7338 351.07 66.4142V60.729C351.07 60.5748 351.141 60.4977 351.285 60.4977H352.078C352.227 60.4977 352.301 60.5748 352.301 60.729V66.6456C352.301 66.8384 352.351 66.9817 352.45 67.0753C352.62 67.2516 352.954 67.3397 353.45 67.3397H354.243V68.5793ZM350.136 58.4896C349.982 58.4896 349.905 58.4153 349.905 58.2665V57.2667C349.905 57.1179 349.982 57.0436 350.136 57.0436H350.979C351.128 57.0436 351.202 57.1179 351.202 57.2667V58.2665C351.202 58.4153 351.128 58.4896 350.979 58.4896H350.136ZM352.392 58.4896C352.243 58.4896 352.169 58.4153 352.169 58.2665V57.2667C352.169 57.1179 352.243 57.0436 352.392 57.0436H353.218C353.372 57.0436 353.45 57.1179 353.45 57.2667V58.2665C353.45 58.4153 353.372 58.4896 353.218 58.4896H352.392ZM360.465 68.5793H359.887C359.06 68.5793 358.441 68.3727 358.027 67.9595C358.016 67.9485 358.008 67.9375 358.003 67.9264C357.997 67.9375 357.986 67.9512 357.97 67.9678C357.959 67.9843 357.95 67.9953 357.945 68.0008C357.559 68.3864 357.036 68.5793 356.375 68.5793H353.838V67.3397H356.408C356.705 67.3397 356.926 67.2654 357.069 67.1166C357.218 66.9734 357.292 66.7393 357.292 66.4142V60.729C357.292 60.5748 357.366 60.4977 357.515 60.4977H358.3C358.454 60.4977 358.532 60.5748 358.532 60.729V66.6456C358.532 66.8384 358.578 66.9817 358.672 67.0753C358.848 67.2516 359.184 67.3397 359.68 67.3397H360.465V68.5793ZM357.49 58.4896C357.342 58.4896 357.267 58.4153 357.267 58.2665V57.2667C357.267 57.1179 357.342 57.0436 357.49 57.0436H358.325C358.479 57.0436 358.556 57.1179 358.556 57.2667V58.2665C358.556 58.4153 358.479 58.4896 358.325 58.4896H357.49ZM362.019 70.1906C362.173 70.1906 362.25 70.2677 362.25 70.422V71.4136C362.25 71.5623 362.173 71.6367 362.019 71.6367H361.184C361.035 71.6367 360.961 71.5623 360.961 71.4136V70.422C360.961 70.2677 361.035 70.1906 361.184 70.1906H362.019ZM364.275 70.1906C364.429 70.1906 364.506 70.2677 364.506 70.422V71.4136C364.506 71.5623 364.429 71.6367 364.275 71.6367H363.44C363.291 71.6367 363.217 71.5623 363.217 71.4136V70.422C363.217 70.2677 363.291 70.1906 363.44 70.1906H364.275ZM360.052 68.5793V67.3397H362.688C362.997 67.3342 363.22 67.2599 363.357 67.1166C363.506 66.9679 363.58 66.7365 363.58 66.4225V60.7208C363.58 60.572 363.658 60.4977 363.812 60.4977H364.597C364.751 60.4977 364.828 60.572 364.828 60.7208V66.4225C364.828 67.0836 364.63 67.6097 364.233 68.0008C363.837 68.3864 363.316 68.5793 362.671 68.5793H360.052ZM375.728 68.5793H375.157C374.419 68.5793 373.824 68.3561 373.373 67.9099C373.279 67.7942 373.232 67.7336 373.232 67.7281C372.736 68.2955 371.965 68.5793 370.918 68.5793H367.282C367.134 68.5793 367.059 68.5049 367.059 68.3561V67.5711C367.059 67.4169 367.134 67.3397 367.282 67.3397H370.918C371.563 67.3397 372.006 67.2158 372.249 66.9679C372.458 66.7641 372.563 66.417 372.563 65.9267V63.2163C372.563 62.7205 372.384 62.2936 372.026 61.9355C371.668 61.5829 371.241 61.4066 370.745 61.4066C370.029 61.4066 369.492 61.5333 369.133 61.7867L368.811 62.0099C368.767 62.0374 368.723 62.0512 368.679 62.0512H368.646C368.585 62.0457 368.536 62.0154 368.497 61.9603L368.043 61.3157C368.01 61.2827 367.993 61.2414 367.993 61.1918V61.1505C368.004 61.0899 368.037 61.0403 368.092 61.0017L368.406 60.7786C368.979 60.3709 369.759 60.1671 370.745 60.1671C371.582 60.1671 372.301 60.4646 372.902 61.0596C373.497 61.6545 373.794 62.3734 373.794 63.2163V66.4142C373.794 66.6621 373.874 66.866 374.034 67.0257C374.243 67.2351 374.546 67.3397 374.943 67.3397H375.728V68.5793ZM384.008 63.7369C384.008 63.0924 383.779 62.5442 383.322 62.0925C382.864 61.6352 382.314 61.4066 381.669 61.4066C381.025 61.4066 380.476 61.6352 380.025 62.0925C379.567 62.5442 379.339 63.0924 379.339 63.7369V67.3397H381.669C382.314 67.3397 382.864 67.1111 383.322 66.6539C383.779 66.1966 384.008 65.6485 384.008 65.0095V63.7369ZM381.669 60.1671C382.655 60.1671 383.498 60.5169 384.198 61.2166C384.897 61.9107 385.247 62.7508 385.247 63.7369V65.0095C385.247 65.9901 384.897 66.8302 384.198 67.5298C383.498 68.2294 382.655 68.5793 381.669 68.5793H375.323V67.3397H378.099V63.7369C378.099 62.7508 378.446 61.9107 379.14 61.2166C379.84 60.5169 380.683 60.1671 381.669 60.1671Z" fill="#D60036"/>
<path opacity="0.4" d="M250.819 97.4876L250.389 96.3622C251.11 96.1253 251.707 95.8538 252.181 95.5478C252.665 95.2418 253.045 94.916 253.321 94.5705C253.608 94.2249 253.81 93.8745 253.929 93.5191C254.047 93.1538 254.106 92.8034 254.106 92.4677C254.106 91.984 253.998 91.4953 253.781 91.0017C253.573 90.4983 253.341 90.0244 253.085 89.5802L254.166 89.0323C254.353 89.3778 254.516 89.7184 254.654 90.054C254.802 90.3897 254.931 90.7056 255.039 91.0017C255.158 91.2979 255.251 91.5694 255.321 91.8162C255.459 92.2407 255.636 92.5319 255.854 92.6898C256.081 92.8379 256.387 92.912 256.772 92.912C256.979 92.912 257.127 92.9712 257.216 93.0897C257.315 93.1983 257.364 93.3315 257.364 93.4895C257.364 93.6474 257.295 93.7955 257.157 93.9337C257.019 94.0621 256.841 94.1262 256.624 94.1262C256.189 94.1262 255.834 94.0522 255.557 93.9041C255.291 93.7462 255.089 93.5438 254.95 93.297C254.812 93.0403 254.718 92.7738 254.669 92.4973L255.143 92.7639C255.143 93.4154 254.995 94.0078 254.699 94.5408C254.412 95.0838 254.042 95.5527 253.588 95.9476C253.134 96.3524 252.66 96.6831 252.166 96.9397C251.673 97.1964 251.224 97.3791 250.819 97.4876ZM256.631 94.1262L256.779 92.912C257.026 92.912 257.277 92.912 257.534 92.912C257.801 92.9021 258.062 92.8873 258.319 92.8675C258.576 92.8478 258.822 92.8231 259.059 92.7935C259.296 92.7639 259.509 92.7195 259.696 92.6602C260.042 92.5516 260.358 92.4085 260.644 92.2308C260.94 92.0531 261.177 91.8359 261.355 91.5792C261.542 91.3226 261.636 91.0264 261.636 90.6908C261.636 90.4637 261.582 90.2317 261.473 89.9948C261.364 89.748 261.216 89.5407 261.029 89.3729C260.841 89.205 260.624 89.1211 260.377 89.1211C260.14 89.1211 259.918 89.2001 259.711 89.358C259.513 89.516 259.351 89.7233 259.222 89.98C259.104 90.2268 259.045 90.4835 259.045 90.75C259.045 91.0659 259.124 91.3522 259.281 91.6089C259.449 91.8557 259.652 92.0679 259.889 92.2456C260.126 92.4233 260.362 92.5664 260.599 92.675L259.193 93.0897C259.035 92.9712 258.847 92.8083 258.63 92.601C258.423 92.3838 258.235 92.1173 258.067 91.8014C257.909 91.4855 257.83 91.1251 257.83 90.7204C257.83 90.3255 257.899 89.9602 258.038 89.6246C258.186 89.2791 258.378 88.978 258.615 88.7213C258.862 88.4646 259.138 88.2672 259.444 88.129C259.76 87.9809 260.086 87.9069 260.422 87.9069C260.905 87.9069 261.33 88.0401 261.695 88.3067C262.06 88.5732 262.342 88.9138 262.539 89.3284C262.747 89.7332 262.85 90.1577 262.85 90.6019C262.85 91.0264 262.771 91.4114 262.613 91.7569C262.455 92.0926 262.238 92.3937 261.962 92.6602C261.695 92.9268 261.379 93.1538 261.014 93.3414C260.659 93.529 260.279 93.682 259.874 93.8004C259.647 93.8696 259.4 93.9238 259.133 93.9633C258.877 94.0028 258.605 94.0324 258.319 94.0522C258.033 94.0818 257.746 94.1015 257.46 94.1114C257.174 94.1213 256.897 94.1262 256.631 94.1262ZM263.961 94.1262C263.467 94.1262 262.954 94.0966 262.421 94.0374C261.898 93.9683 261.399 93.8844 260.925 93.7856C260.461 93.677 260.076 93.5586 259.77 93.4302L260.792 92.6898C261.088 92.7293 261.439 92.7688 261.843 92.8083C262.248 92.8379 262.653 92.8626 263.058 92.8824C263.462 92.9021 263.813 92.912 264.109 92.912C264.316 92.912 264.464 92.9712 264.553 93.0897C264.652 93.1983 264.701 93.3315 264.701 93.4895C264.701 93.6474 264.632 93.7955 264.494 93.9337C264.356 94.0621 264.178 94.1262 263.961 94.1262ZM260.288 86.3816C260.081 86.3816 259.903 86.3125 259.755 86.1743C259.617 86.0262 259.548 85.8535 259.548 85.656C259.548 85.4586 259.617 85.2858 259.755 85.1378C259.903 84.9897 260.081 84.9156 260.288 84.9156C260.486 84.9156 260.654 84.9897 260.792 85.1378C260.94 85.2858 261.014 85.4586 261.014 85.656C261.014 85.8535 260.94 86.0262 260.792 86.1743C260.654 86.3125 260.486 86.3816 260.288 86.3816ZM263.963 94.1262L264.111 92.912C264.427 92.912 264.683 92.8922 264.881 92.8527C265.078 92.8034 265.241 92.6898 265.369 92.5122C265.508 92.3246 265.636 92.0334 265.754 91.6385C265.873 91.2436 266.011 90.6908 266.169 89.98L267.28 90.291C267.24 90.4588 267.196 90.6513 267.146 90.8685C267.097 91.0758 267.052 91.293 267.013 91.52C266.974 91.7372 266.954 91.9396 266.954 92.1271C266.954 92.3739 267.048 92.5664 267.235 92.7047C267.423 92.8429 267.763 92.912 268.257 92.912C268.553 92.912 268.795 92.8873 268.982 92.8379C269.17 92.7886 269.323 92.6701 269.442 92.4825C269.57 92.295 269.683 91.9939 269.782 91.5792C269.881 91.1646 269.984 90.597 270.093 89.8763L271.218 90.0836C271.189 90.2613 271.154 90.4785 271.115 90.7352C271.075 90.9919 271.036 91.2485 270.996 91.5052C270.967 91.752 270.952 91.9593 270.952 92.1271C270.952 92.2654 270.982 92.3986 271.041 92.527C271.11 92.6454 271.238 92.7392 271.426 92.8083C271.623 92.8774 271.914 92.912 272.299 92.912C272.586 92.912 272.833 92.8774 273.04 92.8083C273.257 92.7392 273.42 92.6109 273.529 92.4233C273.647 92.2357 273.706 91.9741 273.706 91.6385C273.706 91.2633 273.617 90.7944 273.44 90.2317C273.272 89.6591 273.079 89.0915 272.862 88.5288L274.062 88.0846C274.19 88.4005 274.308 88.7608 274.417 89.1655C274.535 89.5703 274.634 89.9701 274.713 90.365C274.792 90.7599 274.832 91.1054 274.832 91.4016C274.832 91.8557 274.772 92.2555 274.654 92.601C274.535 92.9465 274.368 93.2328 274.15 93.4599C273.933 93.677 273.667 93.8449 273.351 93.9633C273.035 94.0719 272.68 94.1262 272.285 94.1262C271.821 94.1262 271.441 94.0719 271.144 93.9633C270.848 93.8547 270.621 93.6919 270.463 93.4747C270.305 93.2476 270.202 92.9613 270.152 92.6158H270.656C270.468 93.0403 270.271 93.3611 270.063 93.5783C269.856 93.7955 269.599 93.9436 269.293 94.0226C268.987 94.0917 268.583 94.1262 268.079 94.1262C267.832 94.1262 267.566 94.0867 267.28 94.0078C267.003 93.9288 266.761 93.7758 266.554 93.5487C266.347 93.3118 266.223 92.9613 266.184 92.4973L266.628 92.4085C266.46 92.912 266.253 93.2871 266.006 93.5339C265.769 93.7708 265.483 93.9288 265.147 94.0078C264.812 94.0867 264.417 94.1262 263.963 94.1262Z" fill="#D60036"/>
<path opacity="0.4" d="M145.635 94.067C145.635 93.8301 145.655 93.5783 145.694 93.3118C145.743 93.0354 145.813 92.7441 145.901 92.4381C146 92.1222 146.119 91.7915 146.257 91.446L147.323 91.8606C147.224 92.137 147.135 92.3986 147.056 92.6454C146.987 92.8922 146.933 93.1242 146.894 93.3414C146.864 93.5586 146.849 93.7659 146.849 93.9633C146.849 94.378 146.938 94.7284 147.116 95.0147C147.303 95.3109 147.56 95.5527 147.886 95.7403C148.211 95.9279 148.582 96.0661 148.996 96.1549C149.421 96.2438 149.87 96.2882 150.344 96.2882C150.916 96.2882 151.449 96.2388 151.943 96.1401C152.447 96.0414 152.886 95.8983 153.261 95.7107C153.646 95.533 153.947 95.3257 154.164 95.0887C154.381 94.8617 154.49 94.6149 154.49 94.3483C154.49 94.22 154.441 94.1015 154.342 93.993C154.243 93.8844 154.095 93.7807 153.898 93.682C153.7 93.5833 153.463 93.4895 153.187 93.4006C152.911 93.3019 152.595 93.2032 152.239 93.1045L152.521 91.8754C153.034 92.0728 153.488 92.2407 153.883 92.3789C154.278 92.5072 154.623 92.6109 154.92 92.6898C155.216 92.7688 155.472 92.8281 155.69 92.8675C155.907 92.8972 156.089 92.912 156.237 92.912C156.445 92.912 156.593 92.9712 156.682 93.0897C156.78 93.1983 156.83 93.3315 156.83 93.4895C156.83 93.6474 156.761 93.7955 156.622 93.9337C156.484 94.0621 156.307 94.1262 156.089 94.1262C156.03 94.1262 155.971 94.1262 155.912 94.1262C155.852 94.1262 155.788 94.1262 155.719 94.1262C155.66 94.1262 155.601 94.1262 155.541 94.1262C155.561 94.2151 155.576 94.2842 155.586 94.3335C155.596 94.3928 155.601 94.4668 155.601 94.5557C155.601 94.9209 155.472 95.2763 155.216 95.6218C154.969 95.9674 154.604 96.2783 154.12 96.5547C153.636 96.841 153.049 97.0681 152.358 97.2359C151.677 97.4037 150.897 97.4876 150.018 97.4876C149.238 97.4876 148.513 97.3593 147.841 97.1026C147.18 96.8558 146.647 96.4807 146.242 95.9772C145.837 95.4738 145.635 94.837 145.635 94.067ZM151.084 100.286C150.877 100.286 150.699 100.212 150.551 100.064C150.413 99.926 150.344 99.7582 150.344 99.5608C150.344 99.3633 150.413 99.1906 150.551 99.0425C150.699 98.8944 150.877 98.8204 151.084 98.8204C151.282 98.8204 151.449 98.8944 151.588 99.0425C151.736 99.1906 151.81 99.3633 151.81 99.5608C151.81 99.7582 151.736 99.926 151.588 100.064C151.449 100.212 151.282 100.286 151.084 100.286ZM149.056 100.286C148.848 100.286 148.671 100.212 148.522 100.064C148.384 99.926 148.315 99.7582 148.315 99.5608C148.315 99.3633 148.384 99.1906 148.522 99.0425C148.671 98.8944 148.848 98.8204 149.056 98.8204C149.253 98.8204 149.421 98.8944 149.559 99.0425C149.707 99.1906 149.781 99.3633 149.781 99.5608C149.781 99.7582 149.707 99.926 149.559 100.064C149.421 100.212 149.253 100.286 149.056 100.286ZM156.094 94.1262L156.242 92.912C156.825 92.912 157.279 92.8922 157.605 92.8527C157.93 92.8034 158.162 92.6898 158.301 92.5122C158.439 92.3246 158.508 92.0334 158.508 91.6385C158.508 91.3917 158.468 91.1005 158.389 90.7648C158.31 90.4193 158.207 90.054 158.078 89.669C157.95 89.284 157.812 88.9039 157.664 88.5288L158.863 88.0846C158.992 88.4005 159.11 88.7608 159.219 89.1655C159.337 89.5703 159.436 89.9701 159.515 90.365C159.594 90.7599 159.633 91.1054 159.633 91.4016C159.633 91.8952 159.564 92.3147 159.426 92.6602C159.298 93.0058 159.09 93.2871 158.804 93.5043C158.518 93.7215 158.148 93.8794 157.693 93.9781C157.249 94.0769 156.716 94.1262 156.094 94.1262ZM159.322 86.5445C159.115 86.5445 158.937 86.4754 158.789 86.3372C158.651 86.1891 158.582 86.0164 158.582 85.8189C158.582 85.6215 158.651 85.4487 158.789 85.3007C158.937 85.1526 159.115 85.0785 159.322 85.0785C159.52 85.0785 159.688 85.1526 159.826 85.3007C159.974 85.4487 160.048 85.6215 160.048 85.8189C160.048 86.0164 159.974 86.1891 159.826 86.3372C159.688 86.4754 159.52 86.5445 159.322 86.5445ZM157.294 86.5445C157.086 86.5445 156.909 86.4754 156.761 86.3372C156.622 86.1891 156.553 86.0164 156.553 85.8189C156.553 85.6215 156.622 85.4487 156.761 85.3007C156.909 85.1526 157.086 85.0785 157.294 85.0785C157.491 85.0785 157.659 85.1526 157.797 85.3007C157.945 85.4487 158.019 85.6215 158.019 85.8189C158.019 86.0164 157.945 86.1891 157.797 86.3372C157.659 86.4754 157.491 86.5445 157.294 86.5445ZM169.389 94.1262C168.797 94.1262 168.308 94.0769 167.923 93.9781C167.548 93.8794 167.252 93.7264 167.035 93.5191C166.827 93.3118 166.679 93.0502 166.591 92.7343C166.512 92.4085 166.462 92.0235 166.442 91.5792L166.146 83.4793H167.361L167.657 91.1054C167.676 91.5891 167.721 91.9643 167.79 92.2308C167.869 92.4875 168.037 92.6652 168.293 92.7639C168.56 92.8626 168.975 92.912 169.537 92.912C169.745 92.912 169.893 92.9712 169.982 93.0897C170.08 93.1983 170.13 93.3315 170.13 93.4895C170.13 93.6474 170.061 93.7955 169.922 93.9337C169.784 94.0621 169.606 94.1262 169.389 94.1262ZM162.622 94.1262C162.355 94.1262 162.084 94.1015 161.808 94.0522C161.541 94.0127 161.353 93.9831 161.245 93.9633L161.408 92.7935C162.089 92.8824 162.731 92.8972 163.333 92.8379C163.935 92.7787 164.458 92.6109 164.902 92.3345C165.357 92.0482 165.712 91.6187 165.969 91.0462C166.225 90.4736 166.354 89.7282 166.354 88.8102L167.064 90.5871C166.946 91.209 166.768 91.7323 166.531 92.1568C166.294 92.5714 166.018 92.912 165.702 93.1785C165.396 93.4352 165.065 93.6326 164.71 93.7708C164.355 93.909 163.999 94.0028 163.644 94.0522C163.288 94.1015 162.948 94.1262 162.622 94.1262ZM165.835 92.0975C165.677 91.7915 165.455 91.4361 165.169 91.0314C164.883 90.6167 164.537 90.1676 164.132 89.6838C163.728 89.2001 163.269 88.6966 162.755 88.1734C162.252 87.6502 161.704 87.122 161.112 86.5889L161.911 85.7449C162.563 86.3668 163.14 86.9493 163.644 87.4922C164.157 88.0253 164.606 88.5288 164.991 89.0027C165.376 89.4666 165.707 89.8911 165.983 90.2761C166.26 90.6612 166.492 91.0116 166.679 91.3275L165.835 92.0975ZM169.384 94.1262L169.517 92.912C170.03 92.912 170.534 92.8725 171.027 92.7935C171.521 92.7145 172.005 92.601 172.479 92.4529C172.953 92.3048 173.407 92.1271 173.841 91.9198C174.285 91.7026 174.705 91.4558 175.1 91.1794C174.843 90.9524 174.547 90.7549 174.211 90.5871C173.876 90.4193 173.505 90.291 173.101 90.2021C172.706 90.1034 172.286 90.054 171.842 90.054C171.684 90.054 171.536 90.059 171.398 90.0688C171.259 90.0787 171.121 90.0984 170.983 90.1281C170.845 90.1478 170.687 90.1774 170.509 90.2169L170.272 89.0915C170.539 89.0125 170.805 88.9533 171.072 88.9138C171.338 88.8644 171.595 88.8398 171.842 88.8398C172.355 88.8398 172.819 88.9039 173.234 89.0323C173.649 89.1507 174.024 89.2988 174.359 89.4765C174.705 89.6542 175.026 89.8319 175.322 90.0096C175.628 90.1873 175.924 90.3403 176.21 90.4686C176.497 90.5871 176.793 90.6463 177.099 90.6463H177.41L177.513 91.7125C177.089 91.7125 176.699 91.7718 176.344 91.8902C175.988 92.0087 175.638 92.1617 175.292 92.3493C174.957 92.527 174.601 92.7195 174.226 92.9268C173.851 93.1242 173.436 93.3167 172.982 93.5043C172.528 93.682 172.005 93.8301 171.413 93.9485C170.83 94.067 170.154 94.1262 169.384 94.1262ZM177.57 97.458L177.141 96.3326C178.138 96.0167 178.903 95.6366 179.436 95.1924C179.979 94.758 180.349 94.3039 180.546 93.8301C180.754 93.3562 180.857 92.9021 180.857 92.4677C180.857 92.1913 180.828 91.9248 180.769 91.6681C180.709 91.4114 180.606 91.1202 180.458 90.7944C180.31 90.4686 180.102 90.0639 179.836 89.5802L180.917 89.0323C181.292 89.674 181.558 90.2811 181.716 90.8537C181.884 91.4262 181.968 91.9297 181.968 92.3641C181.968 92.986 181.864 93.5487 181.657 94.0522C181.46 94.5557 181.193 94.9999 180.857 95.3849C180.532 95.7798 180.171 96.1154 179.776 96.3919C179.391 96.6683 179.002 96.8953 178.607 97.073C178.222 97.2507 177.876 97.3791 177.57 97.458Z" fill="#D60036"/>
<path opacity="0.4" d="M41.2717 94.3803L41.6567 93.166C42.8117 93.166 43.8039 93.1364 44.6331 93.0772C45.4722 93.018 46.1583 92.9242 46.6914 92.7958C47.2344 92.6576 47.6342 92.475 47.8909 92.248C48.1574 92.011 48.2907 91.7247 48.2907 91.3891C48.2907 91.014 48.2216 90.5796 48.0834 90.086C47.9452 89.5924 47.7675 89.0642 47.5503 88.5015L48.6905 88.1017C48.8189 88.4176 48.9373 88.7582 49.0459 89.1235C49.1644 89.4789 49.2631 89.8342 49.3421 90.1896C49.421 90.5352 49.4605 90.856 49.4605 91.1522C49.4605 91.7346 49.3273 92.2331 49.0607 92.6478C48.7942 93.0525 48.3499 93.3832 47.728 93.6399C47.1061 93.8966 46.2669 94.0841 45.2106 94.2026C44.1642 94.3211 42.8512 94.3803 41.2717 94.3803ZM41.2717 94.3803C40.3931 94.3803 39.6181 94.3211 38.9468 94.2026C38.2854 94.094 37.7326 93.9213 37.2884 93.6843C36.8441 93.4474 36.5085 93.1414 36.2814 92.7662C36.0544 92.3812 35.9408 91.9172 35.9408 91.3743C35.9408 91.1275 35.9606 90.8757 36.0001 90.6191C36.0395 90.3525 36.0889 90.086 36.1481 89.8194C36.2172 89.5529 36.2863 89.2962 36.3554 89.0494L37.466 89.3308C37.4266 89.4789 37.3821 89.6565 37.3328 89.8639C37.2834 90.0613 37.239 90.2637 37.1995 90.471C37.1699 90.6783 37.1551 90.8659 37.1551 91.0337C37.1551 91.547 37.2834 91.9617 37.5401 92.2776C37.8066 92.5836 38.2657 92.8107 38.9172 92.9587C39.5688 93.0969 40.4819 93.166 41.6567 93.166L41.9529 93.9064L41.2717 94.3803ZM43.7446 88.1313C43.5373 88.1313 43.3596 88.0622 43.2116 87.924C43.0733 87.7759 43.0042 87.6032 43.0042 87.4057C43.0042 87.2083 43.0733 87.0355 43.2116 86.8875C43.3596 86.7394 43.5373 86.6653 43.7446 86.6653C43.9421 86.6653 44.1099 86.7394 44.2481 86.8875C44.3962 87.0355 44.4702 87.2083 44.4702 87.4057C44.4702 87.6032 44.3962 87.7759 44.2481 87.924C44.1099 88.0622 43.9421 88.1313 43.7446 88.1313ZM41.7159 88.1313C41.5086 88.1313 41.3309 88.0622 41.1829 87.924C41.0446 87.7759 40.9755 87.6032 40.9755 87.4057C40.9755 87.2083 41.0446 87.0355 41.1829 86.8875C41.3309 86.7394 41.5086 86.6653 41.7159 86.6653C41.9134 86.6653 42.0812 86.7394 42.2194 86.8875C42.3675 87.0355 42.4415 87.2083 42.4415 87.4057C42.4415 87.6032 42.3675 87.7759 42.2194 87.924C42.0812 88.0622 41.9134 88.1313 41.7159 88.1313ZM51.5657 94.0693L51.2695 83.4964H52.469L52.7651 94.0693H51.5657ZM54.2501 93.403L54.8424 92.3812C55.0399 92.5096 55.3163 92.633 55.6717 92.7514C56.0271 92.8699 56.4417 92.9291 56.9156 92.9291C57.4092 92.9291 57.7991 92.8798 58.0854 92.781C58.3815 92.6823 58.5938 92.5392 58.7221 92.3516C58.8603 92.1542 58.9294 91.9271 58.9294 91.6704C58.9294 91.473 58.885 91.2311 58.7962 90.9448C58.7172 90.6487 58.5395 90.2538 58.2631 89.7602C57.9867 89.2567 57.5622 88.6002 56.9896 87.7907L58.0113 87.1244C58.5346 87.845 58.9492 88.4966 59.2552 89.079C59.5711 89.6615 59.7932 90.1748 59.9216 90.6191C60.0598 91.0534 60.1289 91.4286 60.1289 91.7445C60.1289 92.1394 60.0302 92.5244 59.8327 92.8995C59.6353 93.2648 59.3046 93.5659 58.8406 93.8028C58.3766 94.0397 57.7349 94.1582 56.9156 94.1582C56.5602 94.1582 56.2146 94.1286 55.879 94.0693C55.5532 94.0101 55.2521 93.9262 54.9757 93.8176C54.6993 93.6991 54.4574 93.5609 54.2501 93.403ZM62.1511 94.0693L61.855 83.4964H63.0544L63.3506 94.0693H62.1511ZM67.501 92.9291C67.9946 92.9291 68.3845 92.8798 68.6708 92.781C68.967 92.6823 69.1792 92.5392 69.3075 92.3516C69.4458 92.1542 69.5149 91.9271 69.5149 91.6704C69.5149 91.473 69.4606 91.2361 69.352 90.9597C69.2532 90.6832 69.115 90.3772 68.9373 90.0416C68.7596 89.696 68.5523 89.3357 68.3154 88.9606C68.0884 88.5756 67.8416 88.1856 67.575 87.7907L68.5968 87.1244C68.9818 87.7068 69.3174 88.2597 69.6037 88.7829C69.89 89.2962 70.1319 89.7799 70.3293 90.2341C70.5267 90.6783 70.6847 91.0979 70.8032 91.4927C70.9414 91.9271 71.0944 92.248 71.2622 92.4553C71.4399 92.6626 71.6225 92.7958 71.8101 92.8551C71.9977 92.9044 72.1704 92.9291 72.3284 92.9291C72.5357 92.9291 72.6887 92.9884 72.7874 93.1068C72.8861 93.2154 72.9355 93.3487 72.9355 93.5066C72.9355 93.6646 72.8664 93.8127 72.7282 93.9509C72.59 94.0792 72.4123 94.1434 72.1951 94.1434C71.8693 94.1434 71.5485 94.0841 71.2326 93.9657C70.9266 93.8373 70.66 93.635 70.433 93.3586C70.2059 93.0723 70.0479 92.6922 69.9591 92.2183L70.5514 91.7445C70.5514 92.1394 70.4675 92.5244 70.2997 92.8995C70.1319 93.2648 69.8258 93.5659 69.3816 93.8028C68.9472 94.0397 68.3203 94.1582 67.501 94.1582C67.1456 94.1582 66.8001 94.1286 66.4644 94.0693C66.1386 94.0101 65.8375 93.9262 65.5611 93.8176C65.2847 93.6991 65.0428 93.5609 64.8355 93.403L65.4278 92.3812C65.6253 92.5096 65.9017 92.633 66.2571 92.7514C66.6125 92.8699 67.0271 92.9291 67.501 92.9291ZM72.1985 94.1434L72.3465 92.9291C72.9685 92.9291 73.4473 92.9242 73.7829 92.9143C74.1284 92.9044 74.3802 92.8946 74.5381 92.8847C74.6961 92.865 74.8047 92.8551 74.8639 92.8551C74.6862 92.7564 74.4789 92.6033 74.242 92.396C74.005 92.1788 73.7977 91.9074 73.62 91.5816C73.4423 91.2459 73.3535 90.8511 73.3535 90.3969C73.3535 89.8342 73.4818 89.3406 73.7385 88.9161C74.005 88.4917 74.3654 88.1609 74.8195 87.924C75.2835 87.6871 75.8116 87.5686 76.4039 87.5686C76.631 87.5686 76.8729 87.5884 77.1295 87.6279C77.3862 87.6673 77.633 87.7266 77.8699 87.8055L77.6182 88.9458C77.4208 88.8964 77.2134 88.8569 76.9963 88.8273C76.7791 88.7977 76.5816 88.7829 76.4039 88.7829C76.0485 88.7829 75.7326 88.852 75.4562 88.9902C75.1798 89.1185 74.9626 89.3012 74.8047 89.5381C74.6467 89.775 74.5677 90.0613 74.5677 90.3969C74.5677 90.6536 74.622 90.8906 74.7306 91.1077C74.8392 91.315 74.9824 91.5026 75.1601 91.6704C75.3378 91.8383 75.5352 91.9765 75.7524 92.0851C75.9696 92.1937 76.1818 92.2776 76.3891 92.3368C76.6063 92.396 76.7988 92.4207 76.9666 92.4108C77.0851 92.3714 77.1937 92.3368 77.2924 92.3072C77.3911 92.2776 77.4997 92.243 77.6182 92.2035C77.7465 92.1542 77.8995 92.09 78.0772 92.011C78.2648 91.932 78.5017 91.8284 78.788 91.7001L79.2026 92.781C78.5412 93.0476 77.865 93.2845 77.174 93.4918C76.4928 93.6991 75.7474 93.862 74.9379 93.9805C74.1383 94.0891 73.2251 94.1434 72.1985 94.1434ZM81.0082 94.0693L80.712 83.4964H81.9115L82.2076 94.0693H81.0082Z" fill="#D60036"/>
</g>
</g>
<defs>
<filter id="filter0_d_41_76" x="-22.4244" y="0.79834" width="456.933" height="123.753" filterUnits="userSpaceOnUse" color-interpolation-filters="sRGB">
<feFlood flood-opacity="0" result="BackgroundImageFix"/>
<feColorMatrix in="SourceAlpha" type="matrix" values="0 0 0 0 0 0 0 0 0 0 0 0 0 0 0 0 0 0 127 0" result="hardAlpha"/>
<feOffset dy="-4.23086"/>
<feGaussianBlur stdDeviation="11.106"/>
<feComposite in2="hardAlpha" operator="out"/>
<feColorMatrix type="matrix" values="0 0 0 0 0 0 0 0 0 0 0 0 0 0 0 0 0 0 0.2 0"/>
<feBlend mode="normal" in2="BackgroundImageFix" result="effect1_dropShadow_41_76"/>
<feBlend mode="normal" in="SourceGraphic" in2="effect1_dropShadow_41_76" result="shape"/>
</filter>
<filter id="filter1_f_41_76" x="332.963" y="40.1714" width="51.1618" height="50.5159" filterUnits="userSpaceOnUse" color-interpolation-filters="sRGB">
<feFlood flood-opacity="0" result="BackgroundImageFix"/>
<feBlend mode="normal" in="SourceGraphic" in2="BackgroundImageFix" result="shape"/>
<feGaussianBlur stdDeviation="5.81743" result="effect1_foregroundBlur_41_76"/>
</filter>
<linearGradient id="paint0_linear_41_76" x1="61.3203" y1="56.6107" x2="57.3516" y2="62.7486" gradientUnits="userSpaceOnUse">
<stop stop-color="#ED2241"/>
<stop offset="1" stop-color="#AD001A"/>
</linearGradient>
<linearGradient id="paint1_linear_41_76" x1="65.7854" y1="49.7056" x2="52.8869" y2="69.654" gradientUnits="userSpaceOnUse">
<stop stop-color="#ED2241"/>
<stop offset="1" stop-color="#AD001A"/>
</linearGradient>
<linearGradient id="paint2_linear_41_76" x1="360.58" y1="96.3242" x2="360.58" y2="106.087" gradientUnits="userSpaceOnUse">
<stop stop-color="#D60036"/>
<stop offset="1" stop-color="#B70330"/>
</linearGradient>
<linearGradient id="paint3_linear_41_76" x1="263.98" y1="49.7348" x2="263.98" y2="74.7334" gradientUnits="userSpaceOnUse">
<stop stop-color="#ED2241"/>
<stop offset="1" stop-color="#AD001A"/>
</linearGradient>
<linearGradient id="paint4_linear_41_76" x1="165.215" y1="51.1822" x2="165.215" y2="74.5155" gradientUnits="userSpaceOnUse">
<stop stop-color="#ED2241"/>
<stop offset="1" stop-color="#CE0221"/>
</linearGradient>
<linearGradient id="paint5_linear_41_76" x1="162.298" y1="59.3488" x2="162.298" y2="61.6821" gradientUnits="userSpaceOnUse">
<stop stop-color="#ED2241"/>
<stop offset="1" stop-color="#CE0221"/>
</linearGradient>
<clipPath id="clip0_41_76">
<path d="M412.296 64.2612C412.296 43.8156 395.722 27.2412 375.276 27.2412H36.8076C16.362 27.2412 -0.212402 43.8156 -0.212402 64.2612V106.57H412.296V64.2612Z" fill="white"/>
</clipPath>
<clipPath id="clip1_41_76">
<rect width="29.2372" height="29.2372" fill="white" transform="translate(54.9976 39.4662) rotate(32.8864)"/>
</clipPath>
<clipPath id="clip2_41_76">
<rect width="24" height="25" fill="white" transform="translate(251.98 49.7339)"/>
</clipPath>
<clipPath id="clip3_41_76">
<rect width="27" height="28" fill="white" transform="translate(150.57 48.8486)"/>
</clipPath>
</defs>
</svg>
