<svg width="399" height="275" viewBox="0 0 399 275" fill="none" xmlns="http://www.w3.org/2000/svg">
<g clip-path="url(#clip0_0_233)">
<mask id="mask0_0_233" style="mask-type:luminance" maskUnits="userSpaceOnUse" x="-16" y="0" width="415" height="275">
<path d="M398.739 0H-15.2607V275H398.739V0Z" fill="white"/>
</mask>
<g mask="url(#mask0_0_233)">
<path d="M360.689 214.79H54.4298V170.016H360.689V214.79Z" fill="#E8505B"/>
<path d="M360.689 214.79H54.4298V170.016H360.689V214.79Z" fill="black"/>
<path d="M66.0544 214.067C65.8193 230.316 78.8481 243.678 95.1558 243.912C111.464 244.146 124.876 231.165 125.111 214.916C125.346 198.667 112.316 185.305 96.0081 185.071C79.7004 184.836 66.2896 197.819 66.0544 214.067Z" fill="#253138"/>
<path d="M66.0594 213.991C66.0588 214.017 66.0544 214.042 66.0544 214.067C65.8187 230.316 78.8487 243.679 95.1564 243.912C111.464 244.147 124.876 231.165 125.111 214.916C125.111 214.891 125.108 214.866 125.108 214.84L66.0594 213.991Z" fill="#253138"/>
<path d="M74.8517 214.194C74.6866 225.601 83.8338 234.983 95.2834 235.148C106.732 235.311 116.148 226.198 116.314 214.79C116.479 203.382 107.331 194 95.8812 193.835C84.4316 193.672 75.0167 202.786 74.8517 214.194Z" fill="#F9F9F9"/>
<path d="M95.8812 193.835C84.4316 193.671 75.0167 202.785 74.8517 214.194L116.314 214.789C116.478 203.381 107.331 194 95.8812 193.835Z" fill="#DFDFDF"/>
<path d="M82.9539 214.31C82.8534 221.26 88.4258 226.973 95.3992 227.074C102.374 227.174 108.11 221.622 108.211 214.673C108.312 207.723 102.739 202.01 95.7647 201.909C88.7901 201.809 83.0543 207.36 82.9539 214.31Z" fill="#253138"/>
<path d="M291.878 214.067C291.642 230.316 304.672 243.678 320.98 243.912C337.288 244.146 350.699 231.164 350.933 214.916C351.169 198.667 338.14 185.305 321.831 185.071C305.524 184.836 292.113 197.819 291.878 214.067Z" fill="#253138"/>
<path d="M291.883 213.991C291.883 214.017 291.878 214.042 291.878 214.067C291.642 230.316 304.672 243.679 320.98 243.912C337.288 244.147 350.699 231.164 350.934 214.916C350.935 214.891 350.932 214.866 350.932 214.84L291.883 213.991Z" fill="#253138"/>
<path d="M300.676 214.194C300.51 225.601 309.658 234.983 321.107 235.148C332.557 235.311 341.972 226.198 342.137 214.79C342.302 203.382 333.155 194 321.705 193.835C310.255 193.672 300.841 202.786 300.676 214.194Z" fill="#F9F9F9"/>
<path d="M321.705 193.835C310.255 193.671 300.84 202.785 300.675 214.194L342.137 214.789C342.302 203.381 333.155 194 321.705 193.835Z" fill="#DFDFDF"/>
<path d="M308.778 214.31C308.677 221.26 314.25 226.973 321.224 227.074C328.198 227.174 333.933 221.622 334.034 214.673C334.135 207.723 328.562 202.01 321.588 201.909C314.614 201.809 308.879 207.36 308.778 214.31Z" fill="#253138"/>
<path d="M134.294 144.825C134.294 144.825 90.8061 148.021 74.6883 151.623C63.3286 154.162 41.4242 158.542 41.688 172.273L43.4257 182.116C43.4257 182.116 35.2992 185.813 35.2992 195.248C35.2992 204.683 33.3147 219.32 52.2798 219.905C55.4058 220.001 61.3425 219.905 61.3425 219.905C61.3425 219.905 57.7016 179.659 94.8103 178.481C132.561 177.283 130.053 219.537 130.053 219.537H287.608C287.608 219.537 281.142 178.371 321.781 178.312C362.419 178.254 356.236 219.805 356.236 219.805C356.236 219.805 371.186 221.095 378.141 208.575C385.097 196.056 383.287 187.146 383.287 187.146L383.056 179.234C382.978 176.54 380.818 174.367 378.115 174.263C378.115 174.263 380.83 154.339 376.664 150.89C372.498 147.442 349.658 126.64 349.658 126.64L350.746 125.959C352.568 124.818 352.253 122.082 350.217 121.385C341.547 118.414 324.403 112.536 320.372 111.131C319.765 110.919 319.14 110.788 318.499 110.739C316.094 110.555 309.284 110.125 296.782 109.992C281.552 109.831 221.084 109.992 221.084 109.992C221.084 109.992 200.275 111.697 188.681 116.782C176.493 122.128 134.294 144.825 134.294 144.825Z" fill="#ED2241"/>
<path d="M46.3237 194.159C44.7472 193.839 42.3283 193.808 41.126 194.874C40.2335 195.665 39.9967 196.944 39.8609 198.127C39.6743 199.751 39.5816 201.416 39.9696 203.005C40.3577 204.593 41.2872 206.113 42.7291 206.894C44.1714 207.674 46.1498 207.546 47.2715 206.352C48.296 205.262 48.4136 203.623 48.3865 202.128C48.3484 200.006 48.5195 198.209 48.1276 196.122C48.0525 195.726 47.8428 195.223 47.585 194.912C47.1666 194.408 46.847 194.19 46.3237 194.159Z" fill="black"/>
<path d="M43.4262 182.116C48.0426 182.126 52.5204 181.863 57.1269 181.557C57.6248 181.524 58.1646 181.471 58.5312 181.133C58.9711 180.727 59.007 180.057 59.0119 179.458C59.0335 176.993 58.9109 174.191 57.0341 172.585C55.8876 171.603 54.3139 171.298 52.8091 171.157C49.1036 170.809 45.2186 171.096 41.6891 172.273L43.4262 182.116Z" fill="#F9F9F9"/>
<path d="M139.285 218.277C139.285 218.277 139.268 218.144 139.249 217.884C139.231 217.615 139.206 217.231 139.173 216.73C139.117 215.706 139.035 214.212 138.929 212.291C138.821 210.364 138.693 208.005 138.415 205.279C138.131 202.557 137.71 199.453 136.788 196.132C135.862 192.818 134.442 189.284 132.342 185.816C130.232 182.375 127.461 178.933 123.752 176.27C116.3 170.99 106.239 168.006 95.7128 167.877C85.1602 167.752 75.1353 171.074 67.8732 176.611C64.2068 179.324 61.173 182.491 58.8342 185.8C56.4794 189.101 54.7577 192.494 53.5438 195.716C52.3167 198.941 51.6742 202.012 51.3099 204.719C50.9136 207.431 50.9721 209.801 51.0389 211.724C51.1896 213.644 51.3601 215.134 51.5798 216.126C51.6698 216.619 51.7382 216.998 51.7868 217.263C51.8315 217.52 51.8475 217.653 51.8475 217.653C51.8475 217.653 51.8128 217.525 51.7581 217.27C51.7029 217.005 51.6251 216.629 51.523 216.137C51.2845 215.147 51.0957 213.656 50.9274 211.731C50.8429 209.803 50.7684 207.424 51.1504 204.699C51.5009 201.979 52.1329 198.89 53.3534 195.646C54.5606 192.404 56.2801 188.987 58.6404 185.662C60.9831 182.329 64.0291 179.135 67.7148 176.399C75.0128 170.816 85.105 167.464 95.7155 167.591C106.3 167.721 116.404 170.724 123.907 176.056C127.649 178.752 130.432 182.226 132.546 185.694C134.65 189.187 136.066 192.744 136.984 196.078C137.898 199.42 138.305 202.534 138.575 205.263C138.838 207.996 138.95 210.357 139.041 212.285C139.123 214.208 139.187 215.702 139.23 216.728C139.251 217.229 139.267 217.613 139.278 217.883C139.287 218.143 139.285 218.277 139.285 218.277Z" fill="white"/>
<path d="M140.958 218.961C140.958 218.961 140.948 218.85 140.939 218.631C140.931 218.407 140.919 218.083 140.903 217.656C140.876 216.79 140.837 215.515 140.785 213.854C140.69 210.519 140.55 205.638 140.373 199.432C140.202 193.221 139.996 185.683 139.759 177.046C139.7 174.885 139.639 172.657 139.578 170.363C139.501 169.218 139.621 168.047 139.728 166.868C139.812 166.282 139.895 165.691 139.98 165.097C140.101 164.51 140.223 163.919 140.346 163.324C140.902 160.958 141.713 158.586 142.802 156.278C143.895 153.973 145.192 151.694 146.846 149.584L146.857 149.57L146.876 149.558C155.302 144.269 164.467 138.516 174.161 132.432C176.585 130.911 179.042 129.369 181.53 127.809C183.97 126.16 186.606 124.75 189.328 123.47C192.055 122.194 194.889 121.075 197.798 120.1C199.248 119.594 200.733 119.178 202.217 118.737C203.718 118.361 205.215 117.934 206.747 117.629C212.622 116.329 218.536 115.685 224.333 115.418C230.131 115.147 235.821 115.163 241.356 115.474L241.518 115.482L241.482 115.642C238.87 127.283 236.408 138.259 234.151 148.32L234.146 148.34L234.133 148.36C232.758 150.613 231.663 152.986 230.845 155.378C230.06 157.777 229.555 160.242 229.732 162.643C229.919 165.057 229.986 167.42 230.048 169.711C230.093 172.004 230.136 174.231 230.179 176.39C230.306 185.024 230.338 192.556 230.363 198.761C230.369 204.964 230.375 209.84 230.379 213.173C230.373 214.833 230.368 216.108 230.364 216.973C230.36 217.399 230.358 217.724 230.356 217.947C230.352 218.166 230.346 218.277 230.346 218.277C230.346 218.277 230.338 218.166 230.336 217.947C230.333 217.724 230.33 217.399 230.325 216.973C230.32 216.108 230.311 214.833 230.301 213.173C230.281 209.841 230.252 204.964 230.216 198.762C230.171 192.557 230.118 185.026 229.974 176.393C229.927 174.236 229.879 172.009 229.83 169.717C229.763 167.425 229.694 165.072 229.503 162.66C229.321 160.214 229.83 157.723 230.617 155.304C231.44 152.887 232.533 150.508 233.923 148.226L233.906 148.266C236.155 138.203 238.609 127.224 241.211 115.582L241.337 115.75C235.82 115.444 230.131 115.43 224.346 115.701C218.559 115.97 212.665 116.614 206.808 117.909C205.282 118.213 203.791 118.638 202.295 119.013C200.815 119.452 199.334 119.866 197.89 120.37C194.99 121.343 192.165 122.456 189.449 123.727C186.737 125.002 184.113 126.403 181.686 128.042C179.198 129.601 176.739 131.143 174.314 132.662C164.612 138.741 155.441 144.486 147.009 149.769L147.039 149.743C145.407 151.82 144.107 154.094 143.019 156.379C141.935 158.672 141.126 161.027 140.569 163.376C139.327 168.089 139.953 172.739 139.963 177.046C140.178 185.683 140.365 193.219 140.52 199.43C140.667 205.636 140.783 210.517 140.863 213.852C140.898 215.514 140.925 216.789 140.944 217.655C140.95 218.082 140.955 218.407 140.959 218.631C140.961 218.849 140.958 218.961 140.958 218.961Z" fill="#253138"/>
<path d="M241.17 116.402C241.17 116.402 241.257 116.392 241.428 116.384C241.61 116.378 241.861 116.37 242.187 116.36C242.867 116.343 243.851 116.32 245.117 116.289C247.68 116.238 251.381 116.166 255.986 116.075C265.224 115.919 278.085 115.7 292.631 115.452L292.7 115.452L292.743 115.504C294.388 117.511 296.119 119.622 297.877 121.768C303.078 128.123 308.033 134.175 312.54 139.681C313.103 140.369 313.658 141.049 314.207 141.72C314.75 142.404 315.21 143.146 315.578 143.912C316.301 145.453 316.668 147.103 316.675 148.698C316.691 150.296 316.358 151.832 315.786 153.198C315.205 154.545 314.648 155.837 314.115 157.072C311.98 161.995 310.25 165.983 309.05 168.752C308.449 170.119 307.982 171.186 307.659 171.921C307.5 172.274 307.378 172.547 307.291 172.742C307.206 172.927 307.156 173.018 307.156 173.018C307.156 173.018 307.188 172.918 307.264 172.731C307.345 172.533 307.458 172.256 307.605 171.899C307.917 171.158 308.368 170.084 308.947 168.707C310.127 165.931 311.829 161.931 313.929 156.992C314.88 154.506 316.551 151.89 316.437 148.7C316.426 147.138 316.061 145.525 315.35 144.02C314.986 143.27 314.539 142.552 314.003 141.88C313.454 141.21 312.896 140.532 312.332 139.845C307.82 134.344 302.861 128.296 297.654 121.948C295.896 119.803 294.167 117.691 292.522 115.684L292.635 115.736C278.089 115.946 265.227 116.131 255.989 116.265C251.383 116.318 247.682 116.361 245.119 116.391C243.853 116.4 242.868 116.408 242.188 116.413C241.861 116.412 241.61 116.413 241.429 116.412C241.257 116.41 241.17 116.402 241.17 116.402Z" fill="#253138"/>
<path d="M222.671 164.953C222.67 164.938 222.826 164.941 223.111 164.89C223.393 164.841 223.814 164.727 224.271 164.429C224.722 164.134 225.208 163.628 225.451 162.898C225.577 162.533 225.619 162.131 225.602 161.688C225.592 161.256 225.483 160.802 225.26 160.38C224.82 159.54 223.855 158.836 222.717 158.836C221.551 158.84 220.305 158.843 218.997 158.847C216.372 158.851 213.492 158.855 210.468 158.859C209.744 158.859 209.04 159.138 208.523 159.613C208.004 160.084 207.673 160.739 207.6 161.413C207.531 162.104 207.623 162.782 207.954 163.354C208.272 163.928 208.79 164.361 209.365 164.604C209.947 164.862 210.575 164.826 211.202 164.828C211.823 164.83 212.425 164.833 213.008 164.835C214.172 164.842 215.258 164.848 216.253 164.853C218.214 164.872 219.81 164.887 220.949 164.898C221.482 164.909 221.907 164.918 222.225 164.924C222.518 164.934 222.671 164.943 222.671 164.953C222.671 164.964 222.518 164.974 222.225 164.983C221.907 164.99 221.482 164.998 220.949 165.009C219.81 165.02 218.214 165.036 216.253 165.056C215.258 165.061 214.172 165.066 213.008 165.072C212.425 165.075 211.823 165.077 211.202 165.079C210.888 165.076 210.584 165.093 210.248 165.072C209.917 165.048 209.581 164.98 209.265 164.849C208.634 164.587 208.066 164.116 207.715 163.49C207.35 162.871 207.247 162.102 207.32 161.382C207.398 160.641 207.76 159.921 208.33 159.403C208.897 158.881 209.673 158.571 210.468 158.572C213.492 158.576 216.372 158.58 218.997 158.584C220.307 158.589 221.553 158.594 222.721 158.599C223.952 158.61 224.982 159.381 225.439 160.285C225.672 160.741 225.781 161.227 225.784 161.685C225.796 162.13 225.744 162.575 225.603 162.95C225.331 163.716 224.807 164.232 224.331 164.523C223.847 164.818 223.409 164.915 223.118 164.947C222.825 164.98 222.671 164.953 222.671 164.953Z" fill="#253138"/>
<path d="M304.329 164.953C304.328 164.938 304.483 164.941 304.768 164.89C305.051 164.841 305.472 164.727 305.928 164.429C306.379 164.134 306.866 163.628 307.109 162.898C307.236 162.533 307.278 162.131 307.26 161.688C307.25 161.256 307.14 160.802 306.917 160.38C306.478 159.54 305.513 158.836 304.375 158.836C303.208 158.84 301.964 158.843 300.655 158.847C298.03 158.851 295.149 158.855 292.125 158.859C291.402 158.859 290.698 159.138 290.181 159.613C289.662 160.084 289.332 160.739 289.258 161.413C289.189 162.104 289.281 162.782 289.612 163.354C289.93 163.928 290.448 164.361 291.024 164.604C291.605 164.862 292.232 164.826 292.86 164.828C293.481 164.83 294.083 164.833 294.667 164.835C295.83 164.842 296.916 164.848 297.91 164.853C299.872 164.872 301.468 164.887 302.607 164.898C303.14 164.909 303.565 164.918 303.884 164.924C304.176 164.934 304.329 164.943 304.329 164.953C304.329 164.964 304.176 164.974 303.884 164.983C303.565 164.99 303.14 164.998 302.607 165.009C301.468 165.02 299.872 165.036 297.91 165.056C296.916 165.061 295.83 165.066 294.667 165.072C294.083 165.075 293.481 165.077 292.86 165.079C292.545 165.076 292.242 165.093 291.906 165.072C291.575 165.048 291.239 164.98 290.923 164.849C290.293 164.587 289.724 164.116 289.373 163.49C289.007 162.871 288.905 162.102 288.978 161.382C289.057 160.641 289.418 159.921 289.989 159.403C290.554 158.881 291.331 158.571 292.125 158.572C295.149 158.576 298.03 158.58 300.655 158.584C301.965 158.589 303.211 158.594 304.379 158.599C305.61 158.61 306.64 159.381 307.098 160.285C307.33 160.741 307.44 161.227 307.443 161.685C307.454 162.13 307.402 162.575 307.261 162.95C306.989 163.716 306.466 164.232 305.989 164.523C305.505 164.818 305.068 164.915 304.777 164.947C304.484 164.98 304.329 164.953 304.329 164.953Z" fill="#253138"/>
<path d="M375.938 151.677H359.599C357.36 151.677 355.304 152.913 354.261 154.888C353.407 156.509 353.34 158.43 354.08 160.106L360.488 174.607L376.849 174.447C376.849 174.447 380.328 156.065 375.938 151.677Z" fill="#F9F9F9"/>
<path d="M149.013 149.626L233.321 148.078L288.191 147.075L306.284 136.667C307.749 135.824 308.141 133.892 307.118 132.549L295.854 117.804C294.679 116.266 292.857 115.357 290.917 115.342L229.547 114.844C229.547 114.844 206.437 113.506 188.231 123.664C169.068 134.356 149.013 149.626 149.013 149.626Z" fill="#253138"/>
<path d="M187.652 116.367C187.652 116.367 191.877 118.288 189.127 120.067C186.377 121.846 143.663 148.677 143.663 148.677L133.844 144.249C151.237 134.594 168.805 125.217 187.652 116.367Z" fill="#455A63"/>
<path d="M145.043 149.348C145.043 149.348 144.956 149.375 144.781 149.415C144.594 149.455 144.335 149.511 144.003 149.584C143.305 149.727 142.298 149.934 141.007 150.201C138.401 150.717 134.626 151.443 129.943 152.244C120.58 153.85 107.576 155.722 93.1284 156.966C89.5156 157.279 85.9844 157.536 82.5736 157.759C79.1628 157.982 75.8734 158.189 72.748 158.474C66.4977 159.017 60.8977 159.924 56.3497 161.273C51.788 162.577 48.3032 164.25 46.0108 165.57C44.8356 166.187 43.9993 166.791 43.4042 167.156C43.1172 167.338 42.8942 167.479 42.7325 167.581C42.5801 167.675 42.4984 167.718 42.4984 167.718C42.4984 167.718 42.5691 167.659 42.7159 167.556C42.8738 167.449 43.0918 167.3 43.3722 167.108C43.9574 166.727 44.7859 166.107 45.955 165.473C48.2359 164.12 51.7212 162.412 56.2923 161.078C60.8497 159.7 66.4652 158.769 72.7237 158.211C75.853 157.918 79.1451 157.706 82.5548 157.479C85.9646 157.252 89.4929 156.993 93.103 156.681C107.542 155.437 120.541 153.599 129.909 152.044C134.594 151.269 138.374 150.574 140.986 150.092C142.281 149.848 143.291 149.658 143.992 149.526C144.326 149.466 144.586 149.42 144.775 149.386C144.951 149.356 145.043 149.348 145.043 149.348Z" fill="#253138"/>
<path d="M382.466 186.964C382.466 187.043 376.847 187.107 369.917 187.107C362.984 187.107 357.366 187.043 357.366 186.964C357.366 186.885 362.984 186.82 369.917 186.82C376.847 186.82 382.466 186.885 382.466 186.964Z" fill="#253138"/>
<path d="M279.668 201.252C279.668 201.331 247.949 201.395 208.83 201.395C169.697 201.395 137.983 201.331 137.983 201.252C137.983 201.172 169.697 201.109 208.83 201.109C247.949 201.109 279.668 201.172 279.668 201.252Z" fill="#253138"/>
<path d="M57.5746 187.437C57.5746 187.516 53.0901 187.58 47.5585 187.58C42.0253 187.58 37.5414 187.516 37.5414 187.437C37.5414 187.358 42.0253 187.294 47.5585 187.294C53.0901 187.294 57.5746 187.358 57.5746 187.437Z" fill="#253138"/>
<path d="M349.209 126.063C349.209 126.063 345.445 130.263 346.924 133.345C348.404 136.427 363.697 147.213 363.697 147.213L374.797 149.289L349.209 126.063Z" fill="#455A63"/>
<path d="M243.668 118.549L241.17 145.407L285.838 144.139L303.842 133.712L292.186 118.549H243.668Z" fill="#455A63"/>
<path d="M159.591 146.782C159.591 146.782 186.537 127.392 197.17 123.537C207.431 119.817 212.781 118.885 222.419 118.612C231.632 118.351 237.246 118.604 237.246 118.604L230.125 145.91L159.591 146.782Z" fill="#455A63"/>
<path d="M155.648 146.871C155.648 145.17 156.569 143.602 158.057 142.769L164.247 139.304C166.012 138.316 168.003 137.797 170.027 137.797C171.287 137.797 172.526 137.998 173.702 138.382C176.347 139.246 178.109 141.749 178.215 144.522C178.362 148.373 175.268 151.577 171.4 151.577H160.37C157.762 151.577 155.648 149.47 155.648 146.871Z" fill="#ED2241"/>
<path d="M155.648 146.871C155.663 146.871 155.666 147.08 155.719 147.468C155.77 147.854 155.911 148.425 156.263 149.079C156.625 149.72 157.233 150.438 158.16 150.94C158.625 151.183 159.164 151.366 159.753 151.44C160.338 151.509 160.986 151.469 161.656 151.476C164.351 151.466 167.55 151.456 171.099 151.444C171.981 151.45 172.872 151.341 173.728 151.016C174.581 150.699 175.385 150.196 176.062 149.537C176.738 148.877 177.293 148.066 177.637 147.153C177.986 146.242 178.123 145.241 178.05 144.244C177.898 142.243 176.822 140.391 175.264 139.319C174.492 138.767 173.602 138.455 172.706 138.245C171.811 138.033 170.911 137.932 170.032 137.929C168.273 137.927 166.61 138.319 165.187 138.964C164.474 139.28 163.824 139.682 163.178 140.03C162.537 140.385 161.922 140.725 161.334 141.051C160.161 141.699 159.097 142.286 158.16 142.803C157.229 143.303 156.621 144.022 156.265 144.666C155.906 145.316 155.775 145.891 155.716 146.276C155.659 146.664 155.664 146.872 155.648 146.871C155.648 146.871 155.62 146.664 155.659 146.268C155.7 145.876 155.814 145.287 156.166 144.613C156.515 143.947 157.129 143.191 158.082 142.663C159.012 142.135 160.068 141.536 161.234 140.875C161.819 140.544 162.431 140.197 163.069 139.837C163.71 139.485 164.358 139.078 165.088 138.747C166.536 138.08 168.233 137.67 170.032 137.665C170.931 137.664 171.852 137.765 172.769 137.979C173.679 138.189 174.618 138.513 175.425 139.089C177.056 140.207 178.178 142.137 178.337 144.221C178.413 145.26 178.268 146.305 177.904 147.254C177.544 148.206 176.964 149.052 176.258 149.738C175.552 150.423 174.712 150.945 173.823 151.272C172.935 151.608 171.991 151.719 171.099 151.709C167.55 151.697 164.351 151.687 161.656 151.678C160.984 151.665 160.347 151.699 159.729 151.621C159.117 151.536 158.56 151.34 158.084 151.081C157.131 150.548 156.52 149.796 156.164 149.131C155.82 148.454 155.695 147.869 155.662 147.475C155.626 147.08 155.648 146.871 155.648 146.871Z" fill="#253138"/>
<path d="M363.265 218.527C363.265 218.527 363.266 218.398 363.281 218.146C363.299 217.885 363.324 217.513 363.356 217.029C363.386 216.538 363.445 215.931 363.478 215.213C363.502 214.493 363.531 213.664 363.563 212.732C363.572 211.799 363.558 210.761 363.547 209.625C363.474 208.492 363.468 207.255 363.314 205.937C363.075 203.3 362.633 200.3 361.716 197.09C361.239 195.494 360.703 193.827 359.958 192.166C359.252 190.488 358.354 188.814 357.294 187.168C355.191 183.857 352.214 180.808 348.664 178.193C345.103 175.585 340.89 173.493 336.285 172.113C331.68 170.706 326.671 170.195 321.571 170.16C316.466 170.147 311.473 170.839 306.885 172.289C304.591 173.01 302.403 173.919 300.349 174.976C298.298 176.042 296.419 177.321 294.675 178.671C291.2 181.398 288.272 184.456 285.932 187.604C284.781 189.19 283.845 190.841 283.027 192.466C282.256 194.115 281.556 195.719 281.017 197.299C278.783 203.601 278.082 209.019 277.831 212.731C277.743 214.596 277.753 216.047 277.8 217.029C277.828 217.513 277.849 217.885 277.865 218.146C277.877 218.398 277.877 218.527 277.877 218.527C277.877 218.527 277.857 218.399 277.835 218.148C277.813 217.887 277.782 217.516 277.741 217.032C277.676 216.049 277.648 214.596 277.719 212.725C277.936 209.002 278.608 203.565 280.825 197.231C281.36 195.643 282.058 194.029 282.827 192.369C283.645 190.732 284.582 189.067 285.741 187.463C288.086 184.291 291.02 181.212 294.511 178.463C296.264 177.102 298.153 175.812 300.221 174.734C302.289 173.666 304.491 172.75 306.8 172.021C311.417 170.558 316.441 169.861 321.571 169.874C326.691 169.909 331.728 170.425 336.366 171.845C341.001 173.237 345.239 175.348 348.82 177.98C350.612 179.294 352.244 180.729 353.702 182.246C355.161 183.761 356.443 185.368 357.494 187.04C358.558 188.701 359.457 190.39 360.162 192.079C360.906 193.752 361.438 195.43 361.912 197.036C362.82 200.263 363.25 203.277 363.474 205.923C363.621 207.246 363.619 208.485 363.684 209.622C363.687 210.759 363.692 211.8 363.675 212.735C363.633 213.667 363.596 214.497 363.563 215.218C363.522 215.937 363.453 216.543 363.414 217.033C363.369 217.516 363.335 217.887 363.31 218.148C363.285 218.399 363.265 218.527 363.265 218.527Z" fill="white"/>
<path d="M228.946 149.626C228.946 149.631 228.903 149.636 228.818 149.641C228.717 149.645 228.594 149.65 228.443 149.657C228.09 149.664 227.609 149.675 227.003 149.688C225.727 149.711 223.925 149.743 221.71 149.783C217.239 149.866 211.064 150.03 204.244 150.215C197.421 150.4 191.243 150.531 186.77 150.563C184.534 150.581 182.725 150.582 181.474 150.567C180.868 150.558 180.387 150.55 180.034 150.545C179.884 150.539 179.761 150.536 179.659 150.532C179.575 150.528 179.532 150.523 179.532 150.518C179.532 150.513 179.575 150.508 179.659 150.503C179.761 150.499 179.884 150.493 180.034 150.487C180.387 150.48 180.868 150.469 181.473 150.456C182.75 150.433 184.552 150.4 186.767 150.361C191.238 150.278 197.413 150.114 204.236 149.929C211.056 149.744 217.233 149.612 221.706 149.58C223.943 149.563 225.752 149.562 227.003 149.576C227.609 149.586 228.09 149.593 228.443 149.598C228.594 149.604 228.717 149.608 228.818 149.612C228.903 149.616 228.946 149.621 228.946 149.626Z" fill="white"/>
<path d="M221.627 157.896C221.627 157.975 219.461 158.039 216.79 158.039C214.119 158.039 211.955 157.975 211.955 157.896C211.955 157.816 214.119 157.753 216.79 157.753C219.461 157.753 221.627 157.816 221.627 157.896Z" fill="white"/>
<path d="M223.402 128.463C223.432 128.536 217.428 131.028 209.994 134.025C202.557 137.024 196.507 139.395 196.477 139.322C196.447 139.249 202.45 136.759 209.886 133.76C217.32 130.761 223.372 128.39 223.402 128.463Z" fill="white"/>
<path d="M211.236 130.342C211.268 130.414 205.551 132.924 198.47 135.945C191.387 138.967 185.621 141.358 185.59 141.286C185.559 141.213 191.274 138.705 198.358 135.682C205.439 132.66 211.205 130.269 211.236 130.342Z" fill="white"/>
<path d="M288.385 127.423C288.414 127.496 282.411 129.987 274.976 132.985C267.54 135.984 261.489 138.355 261.46 138.282C261.43 138.208 267.432 135.719 274.869 132.719C282.303 129.721 288.355 127.35 288.385 127.423Z" fill="white"/>
<path d="M276.22 129.301C276.251 129.374 270.535 131.883 263.453 134.905C256.37 137.927 250.604 140.318 250.573 140.245C250.542 140.172 256.257 137.664 263.34 134.641C270.421 131.619 276.189 129.229 276.22 129.301Z" fill="white"/>
<path d="M289.558 149.621C289.558 149.701 277.618 149.835 262.893 149.923C248.162 150.01 236.225 150.017 236.224 149.938C236.224 149.859 248.161 149.724 262.891 149.636C277.617 149.549 289.557 149.542 289.558 149.621Z" fill="white"/>
<path d="M302.78 157.436C302.78 157.516 299.432 157.61 295.301 157.649C291.169 157.687 287.82 157.654 287.82 157.576C287.819 157.496 291.167 157.401 295.299 157.362C299.429 157.324 302.779 157.357 302.78 157.436Z" fill="white"/>
<path d="M74.1693 153.37C74.1699 153.38 74.0584 153.401 73.8448 153.432C73.5997 153.464 73.29 153.504 72.9086 153.554C72.5018 153.6 72.0049 153.661 71.4309 153.756C70.8568 153.847 70.1994 153.93 69.4818 154.074C68.0399 154.323 66.3381 154.701 64.4701 155.196C62.6077 155.712 60.5813 156.357 58.5014 157.162C56.4259 157.98 54.4988 158.88 52.781 159.764C51.0726 160.667 49.5673 161.542 48.3402 162.336C47.7153 162.716 47.1771 163.101 46.6941 163.423C46.2083 163.742 45.8021 164.034 45.472 164.276C45.1584 164.497 44.904 164.678 44.7025 164.82C44.5247 164.942 44.4281 165.002 44.4221 164.995C44.416 164.987 44.5004 164.911 44.6671 164.774C44.8603 164.621 45.1043 164.426 45.4052 164.187C45.7253 163.931 46.1233 163.625 46.6014 163.292C47.0772 162.957 47.6088 162.559 48.2287 162.166C49.4464 161.348 50.9478 160.45 52.6573 159.531C54.3768 158.629 56.3099 157.718 58.3959 156.895C60.4864 156.086 62.526 155.444 64.4017 154.941C66.2824 154.458 67.9963 154.099 69.4475 153.875C70.1701 153.743 70.8314 153.674 71.4093 153.597C71.9867 153.518 72.4874 153.473 72.897 153.443C73.2806 153.415 73.5925 153.392 73.8392 153.374C74.0545 153.362 74.1688 153.36 74.1693 153.37Z" fill="white"/>
<path d="M172.741 140.394C172.719 140.41 172.578 140.178 172.21 139.882C171.846 139.588 171.223 139.254 170.386 139.148C169.548 139.037 168.535 139.18 167.443 139.466C166.347 139.739 165.164 140.127 163.968 140.643C161.568 141.672 159.613 143.041 158.313 144.146C157.002 145.245 156.308 146.054 156.267 146.016C156.252 146.003 156.418 145.796 156.733 145.431C157.054 145.073 157.535 144.566 158.18 143.993C159.457 142.839 161.421 141.423 163.853 140.381C165.065 139.857 166.267 139.471 167.381 139.209C168.486 138.934 169.542 138.805 170.414 138.948C171.289 139.085 171.926 139.466 172.282 139.797C172.463 139.964 172.579 140.115 172.651 140.22C172.72 140.329 172.749 140.388 172.741 140.394Z" fill="white"/>
<path d="M350.46 125.869C350.46 125.869 349.641 126.114 348.11 126.108C347.348 126.089 346.414 126 345.354 125.768C344.294 125.539 343.113 125.171 341.841 124.688C340.567 124.208 339.206 123.601 337.739 122.976C336.999 122.679 336.235 122.372 335.448 122.055C334.659 121.742 333.826 121.472 332.984 121.166C329.593 120.004 325.784 118.963 321.734 118.111C313.625 116.414 306.13 115.712 300.709 115.503C299.353 115.43 298.125 115.429 297.047 115.398C295.975 115.398 295.047 115.398 294.281 115.398C293.538 115.415 292.953 115.428 292.533 115.437C292.346 115.438 292.196 115.44 292.077 115.44C291.975 115.44 291.922 115.436 291.922 115.431C291.921 115.426 291.974 115.42 292.076 115.411C292.194 115.403 292.344 115.393 292.53 115.38C292.951 115.358 293.535 115.326 294.278 115.287C295.046 115.273 295.974 115.257 297.048 115.238C298.127 115.253 299.358 115.24 300.717 115.3C306.149 115.458 313.663 116.13 321.793 117.83C325.854 118.686 329.674 119.737 333.071 120.916C333.915 121.227 334.748 121.502 335.539 121.82C336.327 122.142 337.092 122.455 337.833 122.758C339.299 123.394 340.651 124.01 341.915 124.499C343.176 124.992 344.342 125.37 345.389 125.612C346.436 125.857 347.358 125.96 348.113 125.996C348.869 126.016 349.457 125.979 349.853 125.932C350.037 125.909 350.186 125.892 350.304 125.877C350.406 125.867 350.459 125.864 350.46 125.869Z" fill="#253138"/>
<path d="M84.8776 126.625C82.6723 114.591 81.1875 112.743 79.9394 108.602C78.7057 104.511 76.7107 101.77 74.24 100.824C72.5746 100.185 64.2687 97.1988 61.3745 98.1888C58.1542 99.2904 55.3456 100.888 53.3551 102.202C51.4159 103.481 49.9503 105.353 49.1687 107.535L44.7229 119.947L52.4978 127.673L56.3944 119.422L60.6233 129.297L59.9973 139.281L84.2511 145.783C86.4607 142.264 86.129 133.454 84.8776 126.625Z" fill="#FCE00F"/>
<path d="M61.0114 125.635C60.9755 125.655 60.5764 125.013 59.9405 123.971C59.2604 122.866 58.3965 121.463 57.4416 119.91C56.4623 118.373 55.5775 116.983 54.8809 115.888C54.2212 114.86 53.8183 114.221 53.8519 114.198C53.8685 114.187 53.991 114.332 54.1986 114.604C54.4072 114.876 54.6976 115.276 55.0498 115.776C55.7536 116.775 56.6947 118.177 57.6856 119.759C58.6748 121.34 59.5254 122.8 60.1166 123.869C60.4125 124.404 60.6448 124.841 60.7983 125.146C60.9518 125.452 61.0285 125.625 61.0114 125.635Z" fill="#253138"/>
<path d="M77.9329 136.872C77.939 136.891 77.7364 136.967 77.3632 137.086C77.1778 137.149 76.9481 137.218 76.676 137.277C76.4044 137.338 76.0975 137.422 75.7497 137.47C75.0592 137.597 74.224 137.675 73.295 137.691C72.3665 137.692 71.3431 137.621 70.286 137.435C69.2306 137.237 68.2486 136.943 67.3792 136.616C66.5159 136.275 65.7624 135.907 65.1618 135.545C64.8532 135.378 64.5955 135.191 64.3631 135.039C64.1296 134.888 63.9391 134.742 63.7879 134.619C63.4815 134.375 63.3187 134.234 63.3308 134.218C63.3634 134.174 64.0451 134.707 65.2612 135.369C65.8673 135.704 66.6185 136.046 67.473 136.369C68.3336 136.678 69.3007 136.958 70.3379 137.152C71.3773 137.336 72.3809 137.413 73.295 137.427C74.2091 137.426 75.0332 137.37 75.7188 137.27C77.0911 137.079 77.9174 136.82 77.9329 136.872Z" fill="#253138"/>
<path d="M68.2023 118.123C68.1603 118.339 62.377 117.184 62.377 117.184L50.0801 110.728L48.8249 105.447C48.6289 104.623 48.12 103.906 47.4046 103.446C46.6461 102.959 45.7199 102.802 44.8433 103.012L41.2166 104.492C40.9158 104.614 40.6801 104.873 40.6199 105.191C40.5697 105.459 40.6354 105.718 41.0985 105.681C41.9999 105.612 43.8762 105.413 43.8762 105.413L43.0195 108.42C42.9836 108.545 42.956 108.672 42.9361 108.799C42.8771 109.177 42.8859 109.562 42.9621 109.935C42.9814 110.03 43.0051 110.124 43.0333 110.217C43.0912 110.41 43.168 110.599 43.2629 110.78L44.9824 113.77C44.9824 113.77 56.9365 126.006 63.6488 126.801C67.6817 127.279 75.4274 122.336 75.4274 122.336L68.2023 118.123Z" fill="#B78776"/>
<path d="M46.9463 111.94C46.9331 111.922 47.0379 111.813 47.2444 111.677C47.447 111.547 47.7727 111.375 48.1751 111.391C48.5874 111.415 48.8927 111.682 48.9997 111.918C49.1113 112.165 49.0367 112.333 49.0207 112.324C48.9898 112.322 49.0086 112.166 48.8877 111.979C48.774 111.795 48.5013 111.588 48.1657 111.57C47.8234 111.555 47.5182 111.688 47.3068 111.788C47.0931 111.89 46.9612 111.962 46.9463 111.94Z" fill="#AA6450"/>
<path d="M48.4937 113.816C48.4683 113.825 48.4147 113.716 48.2966 113.572C48.1801 113.427 47.9869 113.249 47.7275 113.147C47.468 113.045 47.2047 113.043 47.0209 113.069C46.8349 113.094 46.7212 113.137 46.7085 113.113C46.6974 113.094 46.7946 113.007 46.9933 112.946C47.1882 112.883 47.4918 112.861 47.7932 112.98C48.0951 113.099 48.3016 113.322 48.4015 113.5C48.5036 113.681 48.5146 113.81 48.4937 113.816Z" fill="#AA6450"/>
<path d="M70.7531 101.804L67.4229 117.53L76.2488 122.814L79.6397 113.15C79.6397 113.15 78.2371 101.417 70.7531 101.804Z" fill="#FCE00F"/>
<path d="M75.5112 102.081C75.5156 102.09 75.4378 102.138 75.286 102.222C75.1342 102.305 74.9095 102.427 74.6153 102.574C74.0286 102.873 73.1724 103.289 72.0955 103.767C69.946 104.714 66.8862 105.921 63.3203 106.523C59.7527 107.127 56.4225 106.845 54.1455 106.214C53.0034 105.907 52.1097 105.557 51.5141 105.273C51.2116 105.141 50.9914 105.009 50.8368 104.93C50.6845 104.846 50.6072 104.798 50.6122 104.789C50.6232 104.767 50.9527 104.922 51.5588 105.17C52.1644 105.421 53.0597 105.739 54.1957 106.017C56.4606 106.591 59.7445 106.837 63.2728 106.24C66.8012 105.645 69.8521 104.477 72.0149 103.581C73.0984 103.129 73.9667 102.741 74.5673 102.474C75.1673 102.207 75.5018 102.062 75.5112 102.081Z" fill="#EBEBEB"/>
<path d="M77.8341 103.817C77.8396 103.825 77.7546 103.886 77.589 103.996C77.3941 104.12 77.1518 104.275 76.8559 104.463C76.5385 104.668 76.1439 104.908 75.6664 105.153C75.1911 105.401 74.6612 105.71 74.0402 105.978C73.7316 106.119 73.4093 106.266 73.0742 106.419C72.738 106.571 72.3748 106.698 72.0055 106.845C71.2708 107.152 70.4566 107.399 69.6054 107.676C67.8876 108.176 65.9617 108.606 63.9099 108.858C61.8548 109.09 59.8808 109.12 58.0929 109.033C57.2003 108.962 56.3519 108.911 55.5648 108.784C55.1712 108.726 54.7881 108.687 54.4254 108.618C54.0639 108.547 53.7161 108.479 53.3832 108.413C52.7164 108.297 52.1297 108.121 51.6091 107.989C51.0869 107.862 50.6475 107.721 50.2909 107.596C49.9586 107.481 49.6865 107.387 49.4679 107.312C49.2813 107.243 49.1853 107.203 49.188 107.194C49.1914 107.185 49.294 107.207 49.4867 107.257C49.7086 107.319 49.9851 107.395 50.323 107.489C50.6829 107.598 51.1256 107.722 51.6489 107.834C52.1705 107.95 52.7578 108.113 53.4235 108.215C53.7553 108.274 54.1014 108.336 54.4619 108.4C54.8229 108.463 55.2032 108.496 55.5946 108.549C56.3767 108.665 57.2213 108.706 58.1073 108.77C59.8819 108.842 61.8382 108.804 63.8768 108.574C65.9114 108.324 67.8219 107.906 69.5303 107.423C70.3766 107.155 71.1875 106.919 71.9211 106.624C72.2892 106.482 72.6519 106.361 72.9886 106.216C73.3237 106.07 73.6461 105.929 73.9546 105.794C74.5778 105.54 75.1105 105.245 75.5902 105.011C76.0732 104.781 76.4745 104.556 76.7991 104.367C77.1054 104.198 77.3566 104.059 77.5581 103.947C77.7336 103.854 77.8286 103.809 77.8341 103.817Z" fill="#EBEBEB"/>
<path d="M76.2493 122.814C76.241 122.828 75.9893 122.7 75.5328 122.451C75.0437 122.178 74.3907 121.813 73.5887 121.365C71.9056 120.398 69.6016 119.076 66.9498 117.553L66.8647 117.504L66.8835 117.409C67.1203 116.234 67.3748 114.975 67.637 113.673C68.0383 111.718 68.4203 109.856 68.7691 108.156C68.9535 107.31 69.0992 106.502 69.2676 105.745C69.4426 104.99 69.6656 104.292 69.9758 103.701C70.5841 102.496 71.5562 101.844 72.2589 101.619C72.6149 101.504 72.9069 101.476 73.1023 101.48C73.2978 101.484 73.3988 101.504 73.3977 101.512C73.401 101.548 72.9781 101.472 72.2959 101.724C71.6302 101.973 70.7188 102.623 70.1574 103.792C69.8693 104.368 69.6628 105.051 69.5 105.797C69.3526 106.553 69.1953 107.358 69.0297 108.204C68.688 109.905 68.3132 111.768 67.9202 113.725C67.6541 115.026 67.3963 116.284 67.1562 117.459L67.09 117.315C69.7213 118.872 72.0066 120.225 73.677 121.213C74.4619 121.691 75.1011 122.079 75.5803 122.37C76.0213 122.645 76.2576 122.8 76.2493 122.814Z" fill="#253138"/>
<path d="M78.9519 112.686C78.9878 112.688 78.9944 113.249 78.9077 114.152C78.8222 115.053 78.6273 116.296 78.2746 117.636C77.9196 118.975 77.4758 120.151 77.1043 120.979C76.7334 121.806 76.4508 122.291 76.4187 122.276C76.379 122.257 76.5965 121.743 76.9161 120.902C77.2368 120.061 77.6453 118.887 77.9964 117.563C78.3452 116.238 78.5699 115.016 78.7062 114.127C78.8431 113.238 78.9083 112.682 78.9519 112.686Z" fill="#253138"/>
<path d="M31.0626 200.148L30.9649 208.545C30.9649 208.545 22.3669 211.266 22.1969 212.815L38.5295 213.589L39.2206 200.512L31.0626 200.148Z" fill="#455A63"/>
<path d="M36.0488 208.078C36.3607 208.179 36.5622 208.544 36.4739 208.859C36.3855 209.173 36.0151 209.38 35.7016 209.284C35.3875 209.19 35.1325 208.759 35.2556 208.456C35.3792 208.154 35.8269 207.934 36.1084 208.102" fill="#DFDFDF"/>
<path d="M38.5295 213.589L38.5471 212.268L22.8803 212.02C22.8803 212.02 22.1384 212.301 22.1963 212.815L38.5295 213.589Z" fill="#DFDFDF"/>
<path d="M30.7038 208.449C30.7027 208.529 31.0996 208.583 31.4799 208.858C31.8674 209.122 32.0534 209.475 32.1285 209.447C32.2025 209.436 32.1064 208.955 31.64 208.632C31.1768 208.304 30.69 208.375 30.7038 208.449Z" fill="#253138"/>
<path d="M28.9572 209.074C28.9351 209.15 29.2741 209.301 29.5291 209.651C29.794 209.992 29.8454 210.359 29.9249 210.359C29.9994 210.374 30.0767 209.912 29.751 209.484C29.4297 209.054 28.9627 208.998 28.9572 209.074Z" fill="#253138"/>
<path d="M27.887 211.071C27.9587 211.091 28.0885 210.7 27.9046 210.255C27.7236 209.809 27.3559 209.619 27.319 209.684C27.2704 209.747 27.5017 209.992 27.6469 210.36C27.8014 210.724 27.808 211.059 27.887 211.071Z" fill="#253138"/>
<path d="M30.9394 206.538C30.9698 206.612 31.3407 206.52 31.7901 206.572C32.2405 206.615 32.5839 206.781 32.6291 206.715C32.6777 206.66 32.3493 206.35 31.8193 206.297C31.2894 206.238 30.9036 206.473 30.9394 206.538Z" fill="#253138"/>
<path d="M31.0454 201.812L31.0261 203.308L39.0566 203.615L39.1311 202.269L31.0454 201.812Z" fill="black"/>
<path d="M30.9902 204.845C30.988 204.878 31.3005 204.942 31.8083 204.879C32.0611 204.848 32.3603 204.78 32.6766 204.658C32.8345 204.596 32.9968 204.521 33.1579 204.432C33.2358 204.387 33.3274 204.343 33.4146 204.252C33.5068 204.173 33.567 203.964 33.4709 203.831C33.3937 203.702 33.2479 203.641 33.1303 203.633C33.01 203.623 32.9112 203.642 32.8212 203.66C32.6374 203.695 32.4641 203.748 32.3046 203.81C31.9861 203.937 31.7239 204.103 31.5268 204.267C31.131 204.599 30.988 204.89 31.014 204.906C31.0493 204.934 31.2453 204.695 31.6449 204.424C31.8436 204.289 32.0965 204.152 32.394 204.049C32.543 203.998 32.7025 203.955 32.8704 203.927C33.0459 203.89 33.1927 203.895 33.2336 203.974C33.2479 204.004 33.2496 204.016 33.2109 204.065C33.1718 204.109 33.0994 204.152 33.0227 204.196C32.8742 204.283 32.7246 204.358 32.5789 204.421C32.2874 204.549 32.0103 204.632 31.7741 204.686C31.2999 204.794 30.9908 204.801 30.9902 204.845Z" fill="#253138"/>
<path d="M31.0891 204.964C31.1167 204.977 31.2884 204.7 31.3425 204.186C31.3678 203.932 31.3557 203.622 31.2724 203.289C31.2304 203.123 31.1697 202.953 31.088 202.784C30.9997 202.619 30.8931 202.398 30.5857 202.348C30.4245 202.335 30.2843 202.454 30.2335 202.56C30.1739 202.667 30.159 202.761 30.1352 202.854C30.096 203.043 30.0905 203.229 30.1087 203.403C30.1435 203.752 30.2721 204.047 30.4179 204.262C30.717 204.698 31.0455 204.809 31.0538 204.783C31.0819 204.744 30.8109 204.577 30.5857 204.16C30.4753 203.955 30.3809 203.686 30.3643 203.382C30.3555 203.231 30.3649 203.071 30.4013 202.912C30.435 202.74 30.5073 202.604 30.5713 202.624C30.6525 202.627 30.7844 202.764 30.8451 202.905C30.9218 203.055 30.9814 203.207 31.0262 203.356C31.1145 203.655 31.1459 203.939 31.1459 204.177C31.1459 204.656 31.046 204.95 31.0891 204.964Z" fill="#253138"/>
<path d="M64.3481 139.369C64.3481 139.369 38.8413 128.709 30.9422 128.253C25.9885 127.966 22.2427 131.137 22.9161 136.243C23.2534 138.798 30.3024 168.702 30.3024 168.702L41.0543 163.808L35.8903 143.135L56.8426 153.285L64.3481 139.369Z" fill="#253138"/>
<path d="M32.67 137.901C32.5866 137.972 33.434 139.057 34.3205 140.493C35.2136 141.926 35.8092 143.167 35.9097 143.125C36.0013 143.09 35.5514 141.76 34.6395 140.297C33.7342 138.831 32.7417 137.835 32.67 137.901Z" fill="#455A63"/>
<path d="M30.5812 139.088C30.5277 139.182 31.816 139.997 33.3252 141.106C34.8388 142.211 36.0029 143.193 36.0769 143.114C36.1459 143.043 35.0817 141.925 33.5476 140.804C32.0175 139.68 30.6281 139.002 30.5812 139.088Z" fill="#455A63"/>
<path d="M84.2517 145.783C84.2517 145.783 81.0418 149.901 77.9826 151.027C74.1385 152.444 45.7143 165.805 45.7143 165.805C45.7143 165.805 40.5592 203.967 40.9666 202.375L29.0704 202.089L30.3643 166.938C30.52 162.435 34.1395 157.269 38.0288 154.971L64.3488 139.37L84.2517 145.783Z" fill="#253138"/>
<path d="M30.1385 173.37C30.1512 173.371 30.1672 173.205 30.1865 172.889C30.2053 172.534 30.2296 172.076 30.2588 171.506C30.3278 170.309 30.3935 168.567 30.7302 166.453C31.0808 164.358 31.7233 161.826 33.2998 159.485C34.0825 158.319 35.1313 157.26 36.3584 156.338C37.5839 155.412 38.965 154.601 40.3947 153.793C46.1189 150.525 51.0599 147.194 54.7124 144.909C56.5318 143.755 58.0117 142.834 59.0401 142.207C59.527 141.908 59.92 141.667 60.2225 141.481C60.4919 141.313 60.6293 141.219 60.6233 141.207C60.6166 141.196 60.4665 141.268 60.1855 141.415C59.9045 141.565 59.4894 141.783 58.9661 142.082C57.9135 142.672 56.4109 143.559 54.5717 144.685C50.881 146.914 45.9141 150.211 40.2081 153.468C38.7767 154.278 37.3818 155.098 36.1354 156.047C34.8885 156.99 33.8098 158.088 33.0133 159.292C31.4103 161.71 30.7899 164.291 30.468 166.412C30.1617 168.552 30.1379 170.3 30.1137 171.502C30.1131 172.072 30.112 172.532 30.1115 172.887C30.1164 173.204 30.1258 173.37 30.1385 173.37Z" fill="#455A63"/>
<path d="M73.7521 149.805C73.794 149.757 73.4496 149.436 73.024 148.828C72.5967 148.224 72.1259 147.301 71.899 146.197C71.6776 145.091 71.7511 144.058 71.9095 143.336C72.0646 142.611 72.2567 142.182 72.1998 142.155C72.1651 142.135 71.883 142.529 71.6528 143.271C71.4199 144.007 71.2968 145.103 71.5314 146.271C71.7704 147.437 72.3119 148.4 72.8131 148.988C73.3143 149.582 73.7283 149.837 73.7521 149.805Z" fill="#455A63"/>
<path d="M33.4406 202.089C33.4472 202.09 33.4588 202.023 33.477 201.894C33.4958 201.742 33.5195 201.552 33.5488 201.317C33.6062 200.781 33.6857 200.038 33.7867 199.096C33.9805 197.135 34.2554 194.349 34.5937 190.917C34.7588 189.187 34.9393 187.296 35.1325 185.267C35.3301 183.237 35.5332 181.064 35.6933 178.778C35.8711 176.494 36.088 174.099 36.5059 171.647C36.9381 169.204 37.5789 166.693 38.6912 164.31C39.7853 161.918 41.3364 159.828 43.0112 158C44.7102 156.184 46.5517 154.626 48.3981 153.271C52.0965 150.558 55.7464 148.578 58.7509 146.83C61.7703 145.103 64.1765 143.629 65.7768 142.518C66.5805 141.969 67.1893 141.522 67.5956 141.209C67.7827 141.062 67.934 140.944 68.0543 140.849C68.1559 140.766 68.2061 140.721 68.2022 140.716C68.1984 140.711 68.1404 140.746 68.0311 140.819C67.9053 140.905 67.7468 141.013 67.5509 141.148C67.1314 141.44 66.5098 141.869 65.6951 142.398C64.0738 143.468 61.655 144.903 58.6201 146.601C55.6001 148.319 51.9287 150.278 48.1922 152.994C46.3281 154.35 44.464 155.917 42.7412 157.751C41.0416 159.599 39.4657 161.718 38.3506 164.152C37.2196 166.577 36.5749 169.121 36.1437 171.586C35.7275 174.057 35.5172 176.464 35.3489 178.752C35.1982 181.042 35.0072 183.211 34.8228 185.242C34.6462 187.272 34.4806 189.164 34.3293 190.894C34.0406 194.329 33.8066 197.119 33.6415 199.081C33.5698 200.027 33.5146 200.772 33.4737 201.309C33.4599 201.547 33.4483 201.737 33.4389 201.89C33.4334 202.021 33.434 202.088 33.4406 202.089Z" fill="#455A63"/>
<path d="M51.1449 124.037L38.3263 113.15L34.0991 114.103C34.0991 114.103 38.5532 123.329 41.7774 126.711C41.7774 126.711 44.9636 130.961 50.2164 129.124C55.4687 127.287 51.1449 124.037 51.1449 124.037Z" fill="#B78776"/>
<path d="M37.3587 101.164H31.9099C31.0858 101.164 30.3505 102.116 30.6464 102.895L36.125 113.528C36.3364 113.94 36.7636 114.199 37.229 114.199L43.8706 114.185C44.6324 114.083 44.9106 113.241 44.5949 112.784L39.3083 102.374C38.944 101.634 38.1878 101.164 37.3587 101.164Z" fill="#455A63"/>
<path d="M36.9911 101.804H31.5423C30.8595 101.804 30.4179 102.522 30.7287 103.126L36.0775 113.527C36.2889 113.939 36.7151 114.199 37.181 114.199H43.7476C44.1478 114.199 44.4072 113.779 44.2267 113.424L38.9408 103.014C38.577 102.274 37.8202 101.804 36.9911 101.804Z" fill="#253138"/>
<path d="M36.5279 106.159L33.2131 107.479L32.5027 110.141L34.0996 114.103L39.9585 114.952L38.2418 113.205L38.4632 111.684C38.4632 111.684 40.0971 111.173 40.1379 110.924C40.1777 110.674 39.9354 109.838 39.6848 109.799C39.4341 109.759 37.7196 110.394 37.7196 110.394C37.7196 110.394 39.7488 108.794 39.6919 108.536C39.6351 108.279 39.417 107.622 39.0119 107.549C38.6073 107.476 35.3333 109.014 35.3333 109.014L34.8012 110.222L34.3375 108.29C34.3375 108.29 37.2471 107.477 36.5279 106.159Z" fill="#B78776"/>
<path d="M36.9453 112.4C36.9254 112.406 36.8641 112.285 36.8332 112.07C36.8017 111.857 36.8172 111.549 36.9331 111.236C37.0496 110.924 37.2395 110.681 37.4023 110.539C37.5657 110.396 37.691 110.345 37.702 110.362C37.7346 110.402 37.3024 110.711 37.0926 111.296C36.8696 111.876 36.9955 112.391 36.9453 112.4Z" fill="#AA6450"/>
<path d="M35.3698 111.823C35.3499 111.813 35.468 111.502 35.5012 110.958C35.5266 110.689 35.542 110.355 35.6679 109.999C35.7314 109.823 35.8252 109.641 35.9731 109.488C36.1211 109.333 36.317 109.227 36.5152 109.148C37.3079 108.862 38.0216 108.63 38.5443 108.462C39.066 108.296 39.3928 108.205 39.4005 108.227C39.4082 108.249 39.0958 108.381 38.5846 108.576C38.0751 108.772 37.357 109.025 36.5792 109.306C36.391 109.381 36.2199 109.475 36.0935 109.605C35.9654 109.733 35.8782 109.893 35.8158 110.053C35.6916 110.378 35.6618 110.702 35.6215 110.972C35.5569 111.521 35.3924 111.837 35.3698 111.823Z" fill="#AA6450"/>
<path d="M34.6091 111.227C34.5628 111.219 34.5721 110.927 34.6307 110.575C34.6886 110.223 34.7731 109.944 34.82 109.952C34.8664 109.959 34.857 110.251 34.7985 110.603C34.7405 110.955 34.6555 111.234 34.6091 111.227Z" fill="#AA6450"/>
<path d="M34.5198 103.81C34.5198 104.192 34.8306 104.502 35.2136 104.502C35.5973 104.502 35.9086 104.192 35.9086 103.81C35.9086 103.428 35.5973 103.118 35.2136 103.118C34.8306 103.118 34.5198 103.428 34.5198 103.81Z" fill="#F9F9F9"/>
<path d="M60.5707 76.5648C59.6956 74.5573 57.1726 73.4237 55.0726 74.0933C54.5904 74.2478 54.1233 74.485 53.6165 74.5074C52.9951 74.5358 52.407 74.2376 51.7898 74.1584C50.4621 73.9869 49.0933 75.0021 48.886 76.3117C47.8308 76.1697 46.6823 76.3922 45.9014 77.109C45.12 77.8252 44.8236 79.0876 45.3891 79.9817C45.6324 80.3654 46.0054 80.6577 46.2295 81.052C46.6001 81.7022 46.5081 82.5181 46.7849 83.2123C47.1943 84.2412 48.3606 84.8152 49.4759 84.8661C50.5912 84.9164 51.6763 84.5448 52.7297 84.1785" fill="#253138"/>
<path d="M56.9444 98.4659C56.7325 97.4201 56.5896 96.6869 56.5896 96.6869C56.5896 96.6869 53.0424 96.8995 51.3104 92.6425C50.4485 90.5255 49.7253 86.899 49.2298 83.9123C48.7836 81.2241 50.6844 78.7104 53.4144 78.3855L62.8029 77.2674L63.105 78.6999L66.8249 96.4807C67.3923 99.1936 65.623 101.844 62.8815 102.387C60.1509 102.929 57.4924 101.171 56.9444 98.4659Z" fill="#B78776"/>
<path d="M50.7404 86.4031C50.7989 86.7049 51.1058 86.9041 51.4244 86.8495C51.7431 86.7954 51.9543 86.5069 51.8953 86.2057C51.8368 85.9039 51.5303 85.7035 51.2117 85.7581C50.8931 85.8128 50.6819 86.1013 50.7404 86.4031Z" fill="#253138"/>
<path d="M50.4514 85.6112C50.5394 85.6689 50.8985 85.253 51.5147 85.1154C52.128 84.9686 52.6531 85.1797 52.7023 85.0898C52.7277 85.0492 52.6244 84.9322 52.3948 84.8351C52.1685 84.7373 51.8063 84.6755 51.4229 84.7636C51.0402 84.8527 50.7501 85.0661 50.598 85.2512C50.4416 85.4381 50.4087 85.5861 50.4514 85.6112Z" fill="#253138"/>
<path d="M56.5876 85.0115C56.6467 85.3133 56.9531 85.5131 57.2718 85.459C57.5904 85.4044 57.8017 85.1164 57.7426 84.8147C57.6841 84.5129 57.3777 84.3125 57.059 84.3666C56.7403 84.4212 56.5291 84.7097 56.5876 85.0115Z" fill="#253138"/>
<path d="M56.5301 84.3513C56.6182 84.409 56.9779 83.9936 57.5934 83.8555C58.2062 83.7088 58.7308 83.9204 58.7805 83.8305C58.8059 83.7899 58.7033 83.6728 58.4725 83.5759C58.2462 83.4781 57.885 83.4156 57.5017 83.5042C57.119 83.5934 56.8289 83.8062 56.6768 83.9913C56.5209 84.1782 56.4874 84.3257 56.5301 84.3513Z" fill="#253138"/>
<path d="M55.3443 89.3789C55.3391 89.3436 54.9416 89.3651 54.3043 89.4271C54.1431 89.4465 53.9874 89.4487 53.9362 89.348C53.8732 89.2443 53.8998 89.0618 53.9341 88.8635C53.994 88.4531 54.0571 88.024 54.1231 87.5732C54.376 85.7399 54.5205 84.2461 54.4457 84.2363C54.371 84.227 54.1056 85.7058 53.8527 87.5392C53.7945 87.9905 53.7381 88.4208 53.6849 88.8324C53.6666 89.0231 53.6108 89.2458 53.7452 89.4614C53.8145 89.568 53.9495 89.6264 54.0564 89.6303C54.1642 89.6379 54.253 89.62 54.3317 89.6071C54.9625 89.4995 55.3501 89.4141 55.3443 89.3789Z" fill="#253138"/>
<path d="M56.5882 96.6852C56.5882 96.6852 59.6332 96.1968 62.1948 93.7528C62.1948 93.7528 61.4499 97.116 56.8904 97.7149L56.5882 96.6852Z" fill="#AA6450"/>
<path d="M57.2506 89.3879C57.1489 89.4051 57.3008 90.0671 56.8383 90.6661C56.3771 91.2671 55.6476 91.3542 55.6646 91.4478C55.6648 91.4911 55.8529 91.5404 56.1551 91.4803C56.4521 91.4237 56.8608 91.2321 57.144 90.8653C57.4262 90.4981 57.4863 90.0799 57.4462 89.8032C57.4074 89.521 57.2955 89.3734 57.2506 89.3879Z" fill="#253138"/>
<path d="M55.8177 81.9987C55.9172 82.1511 56.5135 81.9325 57.2555 81.8554C57.996 81.7626 58.627 81.8405 58.6883 81.6697C58.7148 81.589 58.5773 81.4556 58.3044 81.3489C58.0336 81.2414 57.6257 81.1738 57.1811 81.2244C56.7365 81.2755 56.3552 81.4337 56.1165 81.5993C55.8763 81.7651 55.7734 81.926 55.8177 81.9987Z" fill="#253138"/>
<path d="M50.2696 83.7966C50.4097 83.9106 50.8002 83.6709 51.3085 83.5488C51.8121 83.4084 52.2721 83.4282 52.3379 83.2611C52.365 83.1809 52.2652 83.0576 52.0456 82.9692C51.8298 82.8805 51.4937 82.8442 51.1453 82.9337C50.7975 83.0243 50.5228 83.2185 50.3788 83.4007C50.2311 83.5838 50.2059 83.74 50.2696 83.7966Z" fill="#253138"/>
<path d="M48.6273 81.9894C48.6273 81.9894 51.1788 82.6545 53.9135 80.5668C55.708 79.1968 57.9316 78.2656 58.5219 78.5631C59.112 78.8601 59.6228 80.8711 61.7116 81.0816C61.7116 81.0816 62.3455 84.9831 63.8777 84.542C64.9695 84.2279 64.0231 79.9406 63.3887 77.5017C63.1344 76.5241 62.2282 75.8542 61.2096 75.8834L58.2992 75.9657L54.7437 77.2107L50.9294 78.5201L48.0575 79.9325L48.6273 81.9894Z" fill="#253138"/>
<path d="M63.4214 82.9726C63.4774 82.9278 65.7951 81.515 66.4201 84.0857C67.0445 86.6558 64.3119 86.7443 64.2891 86.6713C64.267 86.5988 63.4214 82.9726 63.4214 82.9726Z" fill="#B78776"/>
<path d="M64.8457 85.5084C64.8555 85.4974 64.8986 85.529 64.9837 85.5452C65.0661 85.5617 65.2 85.5544 65.3231 85.4723C65.5727 85.3078 65.6983 84.8223 65.5985 84.3558C65.548 84.1203 65.4449 83.9092 65.3163 83.7447C65.1913 83.5755 65.0366 83.4736 64.8929 83.482C64.7481 83.4829 64.6697 83.5884 64.6559 83.6681C64.6388 83.7482 64.6675 83.7955 64.6547 83.803C64.6492 83.811 64.5885 83.7729 64.5836 83.6615C64.5821 83.6079 64.5978 83.54 64.6471 83.4765C64.6967 83.4113 64.7819 83.364 64.8805 83.3514C65.0839 83.3176 65.3086 83.4576 65.4493 83.6378C65.6022 83.8171 65.7241 84.0533 65.78 84.3179C65.8897 84.8397 65.7402 85.3875 65.3911 85.5838C65.2199 85.6741 65.0544 85.6561 64.9614 85.6141C64.8655 85.5701 64.8379 85.515 64.8457 85.5084Z" fill="#AA6450"/>
<path d="M49.4358 75.3141C49.4582 75.3016 49.5362 75.4455 49.7369 75.6454C49.9343 75.8455 50.2841 76.0809 50.7738 76.2099C51.2627 76.345 51.8766 76.3505 52.528 76.1693C53.1824 76 53.8619 75.6737 54.6004 75.36C55.339 75.0474 56.0989 74.8107 56.8237 74.8121C57.5466 74.795 58.197 75.081 58.5848 75.4592C58.9861 75.8315 59.1637 76.2654 59.1881 76.5643C59.2178 76.8661 59.1524 77.0257 59.1405 77.0221C59.1144 77.0194 59.138 76.8566 59.0771 76.5827C59.0219 76.3111 58.832 75.9318 58.4486 75.6098C58.0702 75.2808 57.4965 75.0473 56.8263 75.0746C56.1588 75.0863 55.4388 75.3154 54.7131 75.6223C53.9853 75.9309 53.2854 76.2596 52.5931 76.4238C51.906 76.6003 51.2293 76.5748 50.7163 76.4035C50.1972 76.2397 49.8374 75.9562 49.6546 75.7195C49.4674 75.483 49.4229 75.3193 49.4358 75.3141Z" fill="#455A63"/>
<path d="M58.4787 77.2111C58.4589 77.2289 58.3354 77.0819 58.0494 76.9123C57.7681 76.7408 57.2948 76.5909 56.701 76.6137C56.1038 76.6251 55.4211 76.8414 54.7277 77.2334C54.0283 77.6088 53.3078 78.1453 52.4161 78.5001C50.6091 79.2129 48.7669 78.8524 47.6753 78.3045C47.1161 78.0331 46.7099 77.7334 46.4555 77.5014C46.2021 77.2682 46.0834 77.1198 46.0954 77.1086C46.1342 77.061 46.6525 77.6396 47.7601 78.1217C48.8373 78.6058 50.5999 78.9108 52.3088 78.2357C53.1539 77.9016 53.8763 77.3777 54.6018 77.0027C55.3179 76.6125 56.0664 76.3951 56.6976 76.4115C57.3301 76.413 57.8315 76.6082 58.1105 76.8199C58.3949 77.0302 58.4893 77.2043 58.4787 77.2111Z" fill="#455A63"/>
</g>
</g>
<defs>
<clipPath id="clip0_0_233">
<rect width="414" height="275" fill="white" transform="translate(-15.2607)"/>
</clipPath>
</defs>
</svg>
