<svg width="414" height="490" viewBox="0 0 414 490" fill="none" xmlns="http://www.w3.org/2000/svg">
<mask id="mask0_0_738" style="mask-type:luminance" maskUnits="userSpaceOnUse" x="-65" y="0" width="489" height="490">
<path d="M424 0H-65V490H424V0Z" fill="white"/>
</mask>
<g mask="url(#mask0_0_738)">
<path d="M89.2213 295.157C103.062 295.157 114.283 285.148 114.283 272.801C114.283 260.454 103.062 250.445 89.2213 250.445C75.3802 250.445 64.1601 260.454 64.1601 272.801C64.1601 285.148 75.3802 295.157 89.2213 295.157Z" fill="#313131"/>
<mask id="mask1_0_738" style="mask-type:luminance" maskUnits="userSpaceOnUse" x="73" y="176" width="197" height="197">
<path d="M73.4176 176.339H269.018V372.339H73.4176V176.339Z" fill="white"/>
</mask>
<g mask="url(#mask1_0_738)">
<g opacity="0.5">
<mask id="mask2_0_738" style="mask-type:luminance" maskUnits="userSpaceOnUse" x="205" y="274" width="61" height="20">
<path d="M265.017 293.816H205.449V274.461H265.017V293.816Z" fill="white"/>
</mask>
<g mask="url(#mask2_0_738)">
<path d="M245.966 290.309C249.285 290.309 251.98 292.445 251.98 295.076C251.98 297.707 249.285 299.843 245.966 299.843C242.646 299.843 239.951 297.707 239.951 295.076C239.951 292.445 242.646 290.309 245.966 290.309Z" fill="#C4C4D8"/>
<path d="M238.75 286.856C242.571 286.856 245.673 289.523 245.673 292.808C245.673 296.093 242.571 298.761 238.75 298.761C234.929 298.761 231.826 296.093 231.826 292.808C231.826 289.523 234.929 286.856 238.75 286.856Z" fill="#C4C4D8"/>
<path d="M231.274 284.544C235.597 284.544 239.107 287.743 239.107 291.682C239.107 295.621 235.597 298.819 231.274 298.819C226.951 298.819 223.441 295.621 223.441 291.682C223.441 287.743 226.951 284.544 231.274 284.544Z" fill="#C4C4D8"/>
<path d="M223.717 284.896C227.986 284.896 231.452 288.037 231.452 291.905C231.452 295.774 227.986 298.915 223.717 298.915C219.448 298.915 215.982 295.774 215.982 291.905C215.982 288.037 219.448 284.896 223.717 284.896Z" fill="#C4C4D8"/>
<path d="M216.368 288.048C220.045 288.048 223.031 290.564 223.031 293.661C223.031 296.759 220.045 299.274 216.368 299.274C212.69 299.274 209.705 296.759 209.705 293.661C209.705 290.564 212.69 288.048 216.368 288.048Z" fill="#C4C4D8"/>
<path d="M209.567 292.744C212.654 292.744 215.159 294.633 215.159 296.96C215.159 299.287 212.654 301.176 209.567 301.176C206.481 301.176 203.976 299.287 203.976 296.96C203.976 294.633 206.481 292.744 209.567 292.744Z" fill="#C4C4D8"/>
</g>
</g>
</g>
<path d="M199.247 295.158C213.089 295.158 224.308 285.148 224.308 272.802C224.308 260.455 213.089 250.445 199.247 250.445C185.406 250.445 174.186 260.455 174.186 272.802C174.186 285.148 185.406 295.158 199.247 295.158Z" fill="#313131"/>
<path d="M267.402 295.157C281.243 295.157 292.463 285.148 292.463 272.801C292.463 260.454 281.243 250.445 267.402 250.445C253.561 250.445 242.34 260.454 242.34 272.801C242.34 285.148 253.561 295.157 267.402 295.157Z" fill="#313131"/>
<path d="M270.154 285.97C277.243 285.97 282.99 280.212 282.99 273.108C282.99 266.004 277.243 260.245 270.154 260.245C263.064 260.245 257.317 266.004 257.317 273.108C257.317 280.212 263.064 285.97 270.154 285.97Z" fill="#3D3D3D"/>
<path d="M160.737 295.158C174.578 295.158 185.798 285.148 185.798 272.801C185.798 260.455 174.578 250.445 160.737 250.445C146.896 250.445 135.676 260.455 135.676 272.801C135.676 285.148 146.896 295.158 160.737 295.158Z" fill="#313131"/>
<path d="M163.795 285.97C170.884 285.97 176.631 280.212 176.631 273.108C176.631 266.004 170.884 260.245 163.795 260.245C156.705 260.245 150.958 266.004 150.958 273.108C150.958 280.212 156.705 285.97 163.795 285.97Z" fill="#3D3D3D"/>
<path d="M161.17 282.57C165.052 282.57 168.199 278.731 168.199 273.995C168.199 269.259 165.052 265.42 161.17 265.42C157.287 265.42 154.14 269.259 154.14 273.995C154.14 278.731 157.287 282.57 161.17 282.57Z" fill="white"/>
<path d="M268.445 282.57C272.327 282.57 275.474 278.731 275.474 273.995C275.474 269.259 272.327 265.42 268.445 265.42C264.562 265.42 261.415 269.259 261.415 273.995C261.415 278.731 264.562 282.57 268.445 282.57Z" fill="white"/>
<path d="M121.619 217.645H127.307C127.8 217.645 128.246 217.942 128.435 218.399L130.473 223.299C130.732 223.923 130.438 224.64 129.815 224.9C129.666 224.963 129.506 224.995 129.344 224.995H122.433C121.836 224.995 121.326 224.561 121.228 223.971L120.413 219.071C120.302 218.403 120.752 217.773 121.417 217.661C121.484 217.65 121.551 217.645 121.619 217.645Z" fill="#D91533"/>
<path d="M316.452 243.299L317.732 243.302C318.407 243.304 318.953 243.854 318.952 244.53C318.952 244.545 318.952 244.559 318.951 244.575L318.74 250.058C318.715 250.707 318.188 251.224 317.54 251.236L316.434 251.256L316.452 243.299Z" fill="#AB6F6C"/>
<path d="M317.726 243.272L317.361 251.25L316.248 251.247L316.454 243.269L317.726 243.272Z" fill="#D6D5E1"/>
<path d="M185.792 270.086L253.64 270.238L253.628 275.75L185.78 275.598L185.792 270.086Z" fill="#313131"/>
<path d="M103.885 269.903L139.92 269.984L139.907 275.496L103.873 275.415L103.885 269.903Z" fill="#313131"/>
<path d="M40.3831 239.166C40.3933 234.537 44.1989 231.529 51.8005 230.142C59.4014 228.754 83.0603 226.973 122.778 224.795L153.832 198.392C155.673 196.737 157.792 195.912 160.19 195.917L242.512 196.102C253.62 196.48 264.026 200.643 273.728 208.59C288.283 220.51 285.561 219.654 296.989 225.185C308.419 230.717 316.519 231.032 316.508 235.97C316.497 240.909 317.748 256.138 314.741 261.003C312.737 264.246 305.414 268.218 292.77 272.917C290.278 258.59 283.583 251.414 272.683 251.389C265.037 251.372 254.499 254.171 251.036 263.896C248.919 269.843 243.734 272.807 235.482 272.789L185.802 272.677C184.26 258.352 177.085 251.175 164.275 251.146C148.327 251.11 144.257 268.226 137.891 268.212L42.4201 267.998L40.3831 239.166Z" fill="#ED2241"/>
<path d="M248.966 202.921C248.932 202.781 248.916 202.636 248.916 202.491C248.918 201.477 249.742 200.656 250.754 200.658C262.994 206.214 269.67 210.382 270.783 213.162C271.896 215.942 270.653 217.903 267.053 219.046L255.991 221.803C255.983 221.805 255.975 221.807 255.967 221.809C254.654 222.122 253.335 221.309 253.022 219.993L248.966 202.921Z" fill="#313131"/>
<path d="M200.379 223.606L242.512 223.701C244.199 223.704 245.572 222.336 245.575 220.645C245.576 220.399 245.546 220.154 245.488 219.915L241.169 202.11C240.836 200.74 239.614 199.774 238.206 199.771L221.07 199.732C219.182 199.728 217.38 200.519 216.104 201.911L199.033 220.526C198.348 221.273 198.397 222.435 199.143 223.122C199.479 223.432 199.921 223.605 200.379 223.606Z" fill="#313131"/>
<path d="M134.39 223.454L190.198 223.579C191.066 223.581 191.895 223.213 192.475 222.567L210.286 202.769C210.964 202.015 210.904 200.853 210.152 200.173C209.816 199.871 209.38 199.702 208.929 199.701L160.026 199.591C158.431 199.588 156.887 200.153 155.669 201.184L133.21 220.213C132.436 220.869 132.34 222.028 132.993 222.803C133.341 223.215 133.851 223.453 134.39 223.454Z" fill="#313131"/>
<path d="M314.904 260.948C312.899 264.192 305.575 268.163 292.932 272.862C291.362 263.837 288.125 257.649 283.218 254.3L316.605 254.375C316.319 257.122 315.801 259.497 314.904 260.948ZM251.199 263.842C249.082 269.788 243.897 272.752 235.645 272.734L185.964 272.622C184.992 263.599 181.786 257.411 176.343 254.061L259.822 254.248C256.066 256.183 252.839 259.236 251.199 263.842ZM138.054 268.158L42.5827 267.945L41.5734 253.661C43.6551 253.21 43.6598 251.123 43.6705 246.286C43.6787 242.586 43.6945 235.469 49.5069 235.483L124.561 235.65C134.607 235.673 135.348 239.259 135.332 246.491C135.322 251.312 137.803 253.81 142.778 253.986L154.043 254.011C146.184 258.889 142.741 268.169 138.054 268.158Z" fill="#D91533"/>
<path d="M143.022 262.176C148.338 253.923 156.058 249.807 166.184 249.83C176.31 249.852 183.269 255.496 187.063 266.761" stroke="#ED2241" stroke-width="4.88161" stroke-miterlimit="10" stroke-linecap="round"/>
<path d="M153.998 252.303C157.575 250.644 161.636 249.82 166.183 249.83C167.639 249.833 169.029 249.953 170.354 250.188" stroke="white" stroke-width="4.88161" stroke-miterlimit="10" stroke-linecap="round"/>
<path d="M249.38 262.414C254.696 254.161 262.416 250.045 272.541 250.068C282.667 250.09 289.626 255.734 293.42 266.999" stroke="#ED2241" stroke-width="4.88161" stroke-miterlimit="10" stroke-linecap="round"/>
<path d="M191.934 256.687L191.998 227.788C192.001 226.589 192.443 225.433 193.239 224.538L215.877 199.103M250.079 256.817L250.146 226.615C250.146 226.244 250.106 225.874 250.023 225.513L244.018 199.166" stroke="#D91533" stroke-width="0.697373" stroke-miterlimit="10" stroke-linecap="round"/>
<path d="M239.677 227.331L244.567 227.342C245.579 227.344 246.398 228.169 246.396 229.184L246.392 231.021C246.39 232.036 245.567 232.857 244.554 232.855L239.664 232.844C238.652 232.841 237.832 232.017 237.835 231.002L237.839 229.165C237.841 228.15 238.664 227.329 239.677 227.331Z" fill="#D91533"/>
<path d="M240.535 230.166L248.362 230.183" stroke="white" stroke-width="3.48687" stroke-miterlimit="10" stroke-linecap="round"/>
<path d="M158.115 224.7C111.709 225.922 98.0117 227.628 91.3494 230.49C86.9075 232.399 84.5897 235.117 84.3936 238.646L76.4529 238.629C76.6075 234.525 78.5927 231.806 82.4069 230.47C87.472 228.698 111.811 224.596 145.492 224.671C162.455 224.709 162.758 224.169 158.115 224.7Z" fill="white"/>
<path d="M176.454 224.741C130.048 225.963 116.351 227.669 109.688 230.531C105.246 232.44 102.929 235.158 102.732 238.687L94.7917 238.67C94.9463 234.566 96.9315 231.847 100.746 230.511C105.811 228.739 130.15 224.637 163.831 224.712C180.793 224.75 181.097 224.21 176.454 224.741Z" fill="white"/>
<path d="M103.545 235.603C103.065 236.551 102.793 237.58 102.732 238.689L94.7908 238.671C94.8337 237.536 95.0163 236.507 95.3392 235.584L103.545 235.603Z" fill="#ED2241"/>
<path d="M85.2073 235.562C84.7272 236.511 84.456 237.54 84.3948 238.648L76.4535 238.63C76.4963 237.496 76.6789 236.466 77.0019 235.543L85.2073 235.562Z" fill="#ED2241"/>
<path d="M260.403 252.54C263.98 250.881 268.042 250.057 272.589 250.068C274.045 250.071 275.436 250.19 276.76 250.426" stroke="white" stroke-width="4.88161" stroke-miterlimit="10" stroke-linecap="round"/>
<path d="M49.754 238.973H124.921C126.848 238.973 128.446 240.468 128.579 242.395L129.296 252.807C129.435 254.832 127.91 256.587 125.889 256.726C125.804 256.732 125.721 256.735 125.637 256.735H50.4703C48.5425 256.735 46.9447 255.24 46.812 253.313L46.0956 242.9C45.9563 240.876 47.4807 239.121 49.5009 238.981C49.5853 238.976 49.6696 238.973 49.754 238.973Z" fill="#FF4763"/>
<path d="M119.479 253.672C121.673 253.672 123.452 251.205 123.452 248.16C123.452 245.115 121.673 242.647 119.479 242.647C117.285 242.647 115.506 245.115 115.506 248.16C115.506 251.205 117.285 253.672 119.479 253.672Z" fill="white"/>
<path d="M57.132 253.672C59.3264 253.672 61.1051 251.205 61.1051 248.16C61.1051 245.115 59.3264 242.647 57.132 242.647C54.9376 242.647 53.1589 245.115 53.1589 248.16C53.1589 251.205 54.9376 253.672 57.132 253.672Z" fill="white"/>
<path d="M69.0507 243.873H69.6619C70.3368 243.873 70.8844 244.421 70.8844 245.098V250.61C70.8844 251.286 70.3368 251.835 69.6619 251.835H69.0507C68.3759 251.835 67.8282 251.286 67.8282 250.61V245.098C67.8282 244.421 68.3759 243.873 69.0507 243.873Z" fill="#313131"/>
<path d="M107.56 243.872H108.171C108.846 243.872 109.393 244.421 109.393 245.097V250.61C109.393 251.286 108.846 251.835 108.171 251.835H107.56C106.885 251.835 106.337 251.286 106.337 250.61V245.097C106.337 244.421 106.885 243.872 107.56 243.872Z" fill="#313131"/>
<path d="M74.5515 243.873H102.669C103.344 243.873 103.891 244.421 103.891 245.098V250.61C103.891 251.286 103.344 251.835 102.669 251.835H74.5515C73.8767 251.835 73.329 251.286 73.329 250.61V245.098C73.329 244.421 73.8767 243.873 74.5515 243.873Z" fill="#313131"/>
<path d="M307.439 256.232H316.827C318.515 256.232 319.883 257.603 319.883 259.295C319.883 259.47 319.868 259.646 319.838 259.819L318.456 267.781C318.202 269.249 316.931 270.32 315.445 270.32H308.475C306.94 270.32 305.643 269.179 305.444 267.653L304.408 259.69C304.19 258.013 305.369 256.477 307.043 256.258C307.173 256.241 307.307 256.232 307.439 256.232Z" fill="#D6D5E1"/>
<path d="M40.7469 258.069H138.496C140.03 258.069 141.326 259.211 141.525 260.736L142.562 268.699C142.78 270.376 141.6 271.913 139.926 272.131C139.795 272.148 139.663 272.157 139.531 272.157H41.7836C40.2481 272.157 38.9504 271.016 38.7524 269.49L37.7157 261.528C37.4975 259.851 38.6772 258.314 40.3514 258.095C40.4822 258.078 40.6148 258.069 40.7469 258.069Z" fill="#D6D5E1"/>
<path d="M65.5649 258.069H67.2605L69.2324 272.157H66.9255L65.5649 258.069Z" fill="#C4C4D7"/>
<path d="M116.298 258.069H118.605L120.576 272.157H118.27L116.298 258.069Z" fill="#C4C4D7"/>
<path d="M112.451 255.007H114.093C115.626 255.007 116.922 256.145 117.123 257.669L118.899 271.144C119.12 272.82 117.943 274.359 116.27 274.58C116.137 274.598 116.003 274.607 115.869 274.607H114.227C112.693 274.607 111.397 273.469 111.197 271.945L109.421 258.47C109.2 256.793 110.377 255.254 112.05 255.033C112.183 255.016 112.317 255.007 112.451 255.007Z" fill="#D6D5E1"/>
<path d="M61.105 255.007H62.7474C64.2804 255.007 65.5763 256.145 65.7774 257.669L67.553 271.144C67.7737 272.82 66.597 274.36 64.9234 274.581C64.7908 274.598 64.6569 274.607 64.5231 274.607H62.8806C61.347 274.607 60.0512 273.469 59.8507 271.945L58.075 258.47C57.8543 256.794 59.031 255.254 60.704 255.033C60.8372 255.016 60.9711 255.007 61.105 255.007Z" fill="#D6D5E1"/>
<path d="M198.331 228.057C199.513 228.057 200.47 227.097 200.47 225.913C200.47 224.729 199.513 223.77 198.331 223.77C197.15 223.77 196.192 224.729 196.192 225.913C196.192 227.097 197.15 228.057 198.331 228.057Z" fill="#D91533"/>
<path d="M202.882 223.157L198.638 225.826" stroke="#ED2241" stroke-width="1.39475" stroke-miterlimit="10" stroke-linecap="round"/>
<path d="M202.917 217.645H211.475C212.149 217.645 212.697 218.194 212.697 218.87V223.77C212.697 224.446 212.149 224.995 211.475 224.995H202.917C202.242 224.995 201.695 224.446 201.695 223.77V218.87C201.695 218.194 202.242 217.645 202.917 217.645Z" fill="#D91533"/>
<mask id="mask3_0_738" style="mask-type:luminance" maskUnits="userSpaceOnUse" x="-62" y="-1" width="490" height="491">
<path d="M-61.6385 -0.918396H427.361V489.082H-61.6385V-0.918396Z" fill="white"/>
</mask>
<g mask="url(#mask3_0_738)">
<g opacity="0.6">
<mask id="mask4_0_738" style="mask-type:luminance" maskUnits="userSpaceOnUse" x="-65" y="-1" width="490" height="491">
<path d="M424 -0.000244141H-64.9999V490H424V-0.000244141Z" fill="white"/>
</mask>
<g mask="url(#mask4_0_738)">
<path d="M369.731 284.008C378.029 284.008 384.767 289.348 384.767 295.925C384.767 302.502 378.029 307.843 369.731 307.843C361.433 307.843 354.695 302.502 354.695 295.925C354.695 289.348 361.433 284.008 369.731 284.008Z" fill="#C4C4D8"/>
<path d="M351.691 275.375C361.243 275.375 368.999 282.043 368.999 290.256C368.999 298.468 361.243 305.136 351.691 305.136C342.138 305.136 334.382 298.468 334.382 290.256C334.382 282.043 342.138 275.375 351.691 275.375Z" fill="#C4C4D8"/>
<path d="M332.997 269.595C343.804 269.595 352.579 277.591 352.579 287.439C352.579 297.286 343.804 305.282 332.997 305.282C322.19 305.282 313.415 297.286 313.415 287.439C313.415 277.591 322.19 269.595 332.997 269.595Z" fill="#C4C4D8"/>
<path d="M314.108 270.474C324.78 270.474 333.445 278.326 333.445 287.998C333.445 297.669 324.78 305.522 314.108 305.522C303.436 305.522 294.771 297.669 294.771 287.998C294.771 278.326 303.436 270.474 314.108 270.474Z" fill="#C4C4D8"/>
<path d="M295.735 278.356C304.929 278.356 312.393 284.644 312.393 292.388C312.393 300.132 304.929 306.42 295.735 306.42C286.541 306.42 279.077 300.132 279.077 292.388C279.077 284.644 286.541 278.356 295.735 278.356Z" fill="#C4C4D8"/>
<path d="M278.734 290.094C286.449 290.094 292.714 294.817 292.714 300.634C292.714 306.452 286.449 311.175 278.734 311.175C271.019 311.175 264.755 306.452 264.755 300.634C264.755 294.817 271.019 290.094 278.734 290.094Z" fill="#C4C4D8"/>
</g>
</g>
</g>
</g>
</svg>
