<svg width="175" height="202" viewBox="0 0 175 202" fill="none" xmlns="http://www.w3.org/2000/svg">
<path d="M55.1123 34.5502L39.4853 50.7324L23.3022 35.1054L38.93 18.9232L55.1123 34.5502Z" fill="#FA4F69"/>
<path d="M32.3978 33.7955L16.4908 49.7026L0.582855 33.7955L16.4908 17.8885L32.3978 33.7955Z" fill="#FFC100"/>
<path d="M172.85 48.8706L156.947 32.9678V32.9589L102.309 32.9576V64.7806L156.947 64.7819V64.7743L172.85 48.8706Z" fill="#FA4F69"/>
<path d="M16.381 64.7805V64.789L0.477753 80.6918L16.381 96.5954V96.6035L71.0187 96.6018V64.7792L16.381 64.7805Z" fill="#FFC100"/>
<path d="M85.6691 0.730347L86.948 133.52C86.948 133.52 87.2864 153.216 95.1626 164.774C101.635 174.273 115.515 184.093 128.298 184.462C140.43 184.812 144.104 182.716 150.925 179.782C156.568 177.355 162.615 171.46 162.615 171.46" stroke="#FC4028" stroke-width="34.9559"/>
<path d="M85.6691 0.730347L86.948 133.52C86.948 133.52 87.2864 153.216 95.1626 164.774C101.635 174.273 115.515 184.093 128.298 184.462C140.43 184.812 144.104 182.716 150.925 179.782C156.568 177.355 162.615 171.46 162.615 171.46" stroke="#4B5DA9" stroke-width="34.9559"/>
<path d="M85.6691 0.730347L86.948 133.52C86.948 133.52 87.2864 153.216 95.1626 164.774C101.635 174.273 115.515 184.093 128.298 184.462C140.43 184.812 144.104 182.716 150.925 179.782C156.568 177.355 162.615 171.46 162.615 171.46" stroke="#ED2241" stroke-width="34.9559"/>
</svg>
