<svg width="386" height="355" viewBox="0 0 386 355" fill="none" xmlns="http://www.w3.org/2000/svg">
<path opacity="0.2" d="M78.9941 52.8684C76.5216 55.8687 75.5696 60.0873 74.5049 64.0531C65.9324 96.0147 44.8082 121.723 20.7513 140.086C10.5637 147.864 -1.83926 158.296 0.389569 172.242C1.58971 179.731 6.85497 185.245 10.7667 191.344C18.9737 204.117 21.6356 221.479 17.7239 236.769C13.2753 254.167 0.840748 270.4 4.68931 287.992C7.06252 298.82 15.1206 306.526 22.8673 313.149C34.9529 323.475 47.4235 333.149 60.2792 342.169C68.8967 348.215 78.0647 354.098 88.1079 354.865C96.951 355.542 105.614 352.181 114.01 348.865C121.346 345.964 128.868 342.945 134.791 337.134C138.658 333.34 141.74 328.444 146.035 325.34C156.123 318.049 169.081 322.669 180.649 325.791C207.946 333.119 237.16 330.443 263.134 318.239C302.978 299.515 333.347 260.194 372.32 239.097C389.076 230.024 407.304 224.393 422.82 212.708C431.562 206.054 439.074 197.925 445.018 188.687C456.749 170.59 463.092 147.517 461.261 124.931C459.429 102.345 449.164 80.5799 433.044 67.8295C415.786 54.1813 393.99 51.6322 374.354 43.4387C354.087 34.9656 336.049 20.4105 315.976 11.3373C299.723 4.00723 282.035 0.409634 264.21 0.808589C246.385 1.20754 228.876 5.59292 212.967 13.6428C191.108 24.6967 168.959 50.4862 144.614 52.4443C127.27 53.7978 92.5385 36.4364 78.9941 52.8684Z" fill="#FFC100"/>
</svg>
