<svg width="188" height="18" viewBox="0 0 188 18" fill="none" xmlns="http://www.w3.org/2000/svg">
<path d="M4.3584 14.5815L183.583 14.5815" stroke="#707070" stroke-linecap="round" stroke-dasharray="2 5"/>
<ellipse cx="185.103" cy="14.5815" rx="2.56157" ry="2.6412" fill="#707070"/>
<ellipse cx="2.55473" cy="14.5815" rx="2.56157" ry="2.6412" fill="#707070"/>
<path d="M77.3985 13.941H79.604C79.6936 15.7689 81.2041 17.2227 83.0543 17.2227C84.9045 17.2227 86.4151 15.7689 86.5046 13.941H102.13C102.22 15.7689 103.73 17.2227 105.581 17.2227C107.431 17.2227 108.941 15.7689 109.031 13.941H110.839C111.042 13.941 111.226 13.8498 111.359 13.703C111.492 13.5562 111.575 13.3538 111.575 13.1295C111.575 12.9367 111.512 12.7499 111.398 12.6031L111.023 12.1186C111.861 10.2213 111.568 7.5025 111.288 5.9373C111.128 5.03575 110.635 4.24758 109.925 3.76719C109.074 3.19112 107.625 2.40397 105.236 1.56468C100.482 -0.105307 92.0769 1.34599 90.4221 2.70364C89.1034 3.78491 86.4944 6.34835 83.1874 6.728C81.4688 6.92492 79.9972 7.42758 78.9798 7.86545C78.0742 8.25473 77.4683 9.20387 77.4353 10.2745L77.3994 11.4352L76.8258 11.8569C76.6821 11.9627 76.5672 12.1039 76.4882 12.2669C76.4092 12.4294 76.3662 12.6137 76.3662 12.8035C76.3663 13.4317 76.8284 13.941 77.3985 13.941ZM107.763 13.941C107.675 15.0673 106.73 15.9572 105.581 15.9572C104.432 15.9572 103.486 15.0673 103.398 13.941C103.394 13.8843 103.391 13.8266 103.391 13.7684C103.391 12.561 104.373 11.579 105.581 11.579C106.788 11.579 107.77 12.561 107.77 13.7684C107.77 13.8266 107.767 13.8843 107.763 13.941ZM110.56 8.40001C110.728 8.43494 110.852 8.57966 110.861 8.75182C110.903 9.51777 110.789 10.3067 110.713 10.7284C110.681 10.9085 110.524 11.039 110.341 11.039H110.088C109.865 11.039 109.69 10.8473 109.711 10.6255L109.863 9.00427C109.871 8.92307 109.904 8.84653 109.959 8.78604L110.202 8.51694C110.292 8.41732 110.428 8.37282 110.56 8.40001ZM103.14 4.88206L103.394 3.69743C103.506 3.17923 103.938 2.79127 104.465 2.73599L104.681 2.71331C104.726 2.72835 104.772 2.74308 104.816 2.75862C107.155 3.5804 108.5 4.33055 109.215 4.81509C109.64 5.10231 109.941 5.59207 110.042 6.15902C110.054 6.22797 110.066 6.29661 110.078 6.365H104.338C104.077 6.365 103.822 6.28127 103.611 6.12607C103.223 5.84021 103.039 5.35334 103.14 4.88206ZM97.9032 9.11543H96.6376C96.4 9.11543 96.2074 8.92277 96.2074 8.68515C96.2074 8.44754 96.4 8.25488 96.6376 8.25488H97.9032C98.1408 8.25488 98.3334 8.44754 98.3334 8.68515C98.3334 8.92277 98.1408 9.11543 97.9032 9.11543ZM90.7144 4.11313C90.9085 3.94725 91.0761 3.80394 91.2246 3.68225C91.445 3.50138 92.3707 3.05364 94.2974 2.65226C95.9006 2.31832 97.6791 2.12085 99.3618 2.08648L98.7735 5.46192C98.625 6.31387 97.9023 6.94689 97.0383 6.98197L88.2512 7.33859C87.7508 7.35889 87.2692 7.17377 86.9123 6.83501C88.5079 5.99795 89.7968 4.89725 90.7144 4.11313ZM83.0543 11.579C84.2616 11.579 85.2436 12.561 85.2436 13.7684C85.2436 13.8266 85.2411 13.8843 85.2366 13.941C85.1485 15.0673 84.2034 15.9572 83.0543 15.9572C81.9052 15.9572 80.9601 15.0673 80.8721 13.941C80.8675 13.8843 80.8649 13.8266 80.8649 13.7684C80.865 12.561 81.847 11.579 83.0543 11.579ZM78.76 9.1492C79.1048 9.1492 79.3843 9.57224 79.3843 10.0941C79.3843 10.616 79.1048 11.0391 78.76 11.0391C78.4152 11.0391 78.1357 10.616 78.1357 10.0941C78.1357 9.57224 78.4152 9.1492 78.76 9.1492Z" fill="#ED2241"/>
</svg>
