<svg width="24" height="24" viewBox="0 0 24 24" fill="none" xmlns="http://www.w3.org/2000/svg">
<path d="M19.145 0.525146H4.14502C1.93588 0.525146 0.14502 2.31601 0.14502 4.52515V19.5251C0.14502 21.7343 1.93588 23.5251 4.14502 23.5251H19.145C21.3542 23.5251 23.145 21.7343 23.145 19.5251V4.52515C23.145 2.31601 21.3542 0.525146 19.145 0.525146Z" fill="#AD001A"/>
<g clip-path="url(#clip0_115_445)">
<g clip-path="url(#clip1_115_445)">
<path d="M12.895 5.27515H10.395V6.77515H12.895V5.27515ZM12.395 6.27515H10.895V5.77515H12.395V6.27515Z" fill="white"/>
<path d="M12.6448 17.2751H10.6448C10.0971 17.2751 9.57357 17.5369 9.24457 17.9754L8.94482 18.3751L9.34482 18.6749L9.64457 18.2751C9.87957 17.9621 10.2536 17.7751 10.6448 17.7751H12.6448C13.0361 17.7751 13.4101 17.9621 13.6451 18.2751L13.9448 18.6751L14.3448 18.3754L14.0451 17.9751C13.7161 17.5369 13.1926 17.2751 12.6448 17.2751Z" fill="white"/>
<path d="M15.895 15.7751H15.52L15.72 15.3179C16.002 14.6601 16.145 13.9636 16.145 13.2476C16.145 12.9181 16.1138 12.5871 16.0523 12.2644L15.3728 8.69765C15.2278 7.93665 14.5993 7.3749 13.8438 7.2919C13.8755 7.2089 13.895 7.1194 13.895 7.02515V5.02515C13.895 4.61165 13.5585 4.27515 13.145 4.27515H10.145C9.73152 4.27515 9.39502 4.61165 9.39502 5.02515V7.02515C9.39502 7.1194 9.41452 7.20865 9.44627 7.2919C8.69077 7.3749 8.06202 7.9369 7.91727 8.69765L7.23777 12.2641C7.17627 12.5871 7.14502 12.9179 7.14502 13.2476C7.14502 13.9636 7.28802 14.6601 7.57002 15.3179L7.76627 15.7751H7.39502C6.98152 15.7751 6.64502 16.1116 6.64502 16.5251V18.5251C6.64502 19.2144 7.20577 19.7751 7.89502 19.7751H15.395C16.0843 19.7751 16.645 19.2144 16.645 18.5251V16.5251C16.645 16.1116 16.3085 15.7751 15.895 15.7751ZM14.8815 8.79115L15.561 12.3579C15.6168 12.6501 15.645 12.9494 15.645 13.2476C15.645 13.8956 15.5155 14.5256 15.2605 15.1211L14.9218 15.9131L14.8918 15.9731C14.7413 16.1104 14.645 16.3059 14.645 16.5251V17.1381C14.4953 16.9799 14.326 16.8434 14.145 16.7256V7.88015C14.517 8.0404 14.802 8.3734 14.8815 8.79115ZM9.64502 9.27515H13.645V10.2751H9.64502V9.27515ZM13.645 14.4216L13.1235 13.9001L13.645 13.3786V14.4216ZM11.645 10.8786L12.4165 11.6501L11.645 12.4216L10.8735 11.6501L11.645 10.8786ZM10.52 11.2966L9.99852 10.7751H11.0415L10.52 11.2966ZM12.2485 10.7751H13.2915L12.77 11.2966L12.2485 10.7751ZM11.2915 12.7751L10.52 13.5466L9.74852 12.7751L10.52 12.0036L11.2915 12.7751ZM11.645 13.1286L12.4165 13.9001L11.645 14.6716L10.8735 13.9001L11.645 13.1286ZM11.9985 12.7751L12.77 12.0036L13.5415 12.7751L12.77 13.5466L11.9985 12.7751ZM13.645 12.1716L13.1235 11.6501L13.645 11.1286V12.1716ZM9.64502 11.1286L10.1665 11.6501L9.64502 12.1716V11.1286ZM9.64502 13.3786L10.1665 13.9001L9.64502 14.4216V13.3786ZM10.52 14.2536L11.0415 14.7751H9.99852L10.52 14.2536ZM12.77 14.2536L13.2915 14.7751H12.2485L12.77 14.2536ZM13.645 7.77515V8.77515H9.64502V7.77515H10.145H13.145H13.645ZM9.64502 15.2751H13.645V16.4684C13.329 16.3444 12.9908 16.2751 12.645 16.2751H10.645C10.2993 16.2751 9.96102 16.3444 9.64502 16.4684V15.2751ZM9.89502 5.02515C9.89502 4.8874 10.007 4.77515 10.145 4.77515H13.145C13.283 4.77515 13.395 4.8874 13.395 5.02515V7.02515C13.395 7.1629 13.283 7.27515 13.145 7.27515H10.145C10.007 7.27515 9.89502 7.1629 9.89502 7.02515V5.02515ZM7.72902 12.3579L8.40852 8.79115C8.48802 8.3734 8.77302 8.04015 9.14502 7.88015V16.7256C8.96402 16.8434 8.79477 16.9799 8.64502 17.1381V16.5251C8.64502 16.3079 8.55077 16.1139 8.40302 15.9766L8.02977 15.1209C7.77452 14.5256 7.64502 13.8954 7.64502 13.2476C7.64502 12.9494 7.67327 12.6501 7.72902 12.3579ZM16.145 18.5251C16.145 18.9386 15.8085 19.2751 15.395 19.2751H7.89502C7.48152 19.2751 7.14502 18.9386 7.14502 18.5251V16.5251C7.14502 16.3871 7.25702 16.2751 7.39502 16.2751H7.89502C8.03302 16.2751 8.14502 16.3871 8.14502 16.5251V17.7751H8.77002L8.84502 17.6754C9.26777 17.1116 9.94077 16.7751 10.645 16.7751H12.645C13.3493 16.7751 14.0223 17.1116 14.445 17.6754L14.52 17.7751H15.145V16.5251C15.145 16.3871 15.257 16.2751 15.395 16.2751H15.895C16.033 16.2751 16.145 16.3871 16.145 16.5251V18.5251Z" fill="white"/>
</g>
</g>
<defs>
<clipPath id="clip0_115_445">
<rect width="16" height="16" fill="white" transform="translate(3.64502 4.02515)"/>
</clipPath>
<clipPath id="clip1_115_445">
<rect width="16" height="16" fill="white" transform="translate(3.64502 4.02515)"/>
</clipPath>
</defs>
</svg>
