<svg width="197" height="88" viewBox="0 0 197 88" fill="none" xmlns="http://www.w3.org/2000/svg">
<path d="M42.0137 80.6589L42.0137 32.0266C42.0137 25.4836 47.3178 20.1794 53.8608 20.1794H65.4973" stroke="#FCDA3B" stroke-width="12.4531" stroke-linecap="square"/>
<path d="M82.6333 18.9682C83.0414 19.3735 83.042 20.0334 82.6347 20.4394L68.5795 34.4505C67.9256 35.1023 66.8099 34.6398 66.8091 33.7164L66.784 5.71949C66.7832 4.79618 67.898 4.33161 68.5531 4.98229L82.6333 18.9682Z" fill="#FCDA3B"/>
<path d="M12.8849 13.4038H40.3609L37.56 16.2048C35.3662 18.3986 33.6111 20.9909 32.389 23.8426L31.6764 25.5053L12.8619 25.1744C12.8135 25.1735 12.7657 25.1633 12.7212 25.1442C7.81145 23.04 7.53142 16.1847 12.2532 13.687L12.7035 13.4489C12.7594 13.4193 12.8217 13.4038 12.8849 13.4038Z" fill="#FCDA3B" stroke="#FCE00F" stroke-width="0.518878"/>
<path d="M58.5603 79.7122L58.5603 61.0833C58.5603 52.4862 65.5296 45.5169 74.1266 45.5169H78.4852" stroke="white" stroke-width="12.4531" stroke-linecap="square"/>
<rect x="90.2068" y="52.8826" width="10.3521" height="32.0939" fill="white"/>
<rect x="90.2068" y="39.1248" width="10.352" height="9.89538" fill="white"/>
<rect x="148.206" y="52.8826" width="10.35" height="32.0939" fill="white"/>
<rect x="148.206" y="39.1248" width="10.35" height="9.89538" fill="white"/>
<path d="M196.153 61.5306V84.9765H187.765V84.0379C187.765 83.8599 187.593 83.7325 187.422 83.7845L184.912 84.55C183.985 84.8327 183.022 84.9765 182.052 84.9765H177.108L176.964 84.9593C170.631 84.204 165.587 79.3041 164.649 72.9958C164.576 72.5068 164.539 72.0131 164.539 71.5187V60.898C164.539 60.5849 164.568 60.2724 164.625 59.9644C165.744 53.9053 170.612 49.2408 176.714 48.3824L177.66 48.2493L183.514 48.2493C189.147 48.8758 193.854 52.8218 195.453 58.2591L195.901 59.782C196.068 60.3498 196.153 60.9387 196.153 61.5306Z" fill="white" stroke="white" stroke-width="0.264959"/>
<path d="M120.986 70.6054V69.6909C120.986 66.2579 123.769 63.4748 127.202 63.4748H129.51H129.805C131.12 63.4748 132.185 62.4092 132.185 61.0948L132.185 53.5613C132.185 52.573 131.384 51.7718 130.396 51.7718H129.988H122.285H122.136C120.434 51.7718 119.055 53.1513 119.055 54.8529V54.8886V87.3439H106.082V52.2427C106.762 46.2158 111.043 41.2098 116.891 39.6027L118.63 39.1248H131.924L133.364 39.3983C139.255 40.5174 143.821 45.1958 144.796 51.1126L144.796 63.4748C143.867 70.5871 137.807 75.9069 130.634 75.9069H126.288C123.36 75.9069 120.986 73.5333 120.986 70.6054Z" fill="white" stroke="white" stroke-width="0.256756"/>
<rect x="171.641" y="56.7922" width="15.1091" height="19.6571" rx="6.09406" fill="#ED2241"/>
<path d="M4.49836 19.5584L25.4173 19.4055C25.6408 19.4039 25.7704 19.5763 25.7068 19.7906C25.6431 20.0049 25.4103 20.1799 25.1868 20.1816L4.26786 20.3344C4.04432 20.3361 3.91469 20.1637 3.97835 19.9494C4.042 19.7351 4.27482 19.56 4.49836 19.5584Z" fill="#ED2241"/>
<path d="M7.01936 21.5657L27.9383 21.4128C28.1618 21.4111 28.2914 21.5835 28.2278 21.7978C28.1641 22.0121 27.9313 22.1872 27.7078 22.1888L6.78886 22.3417C6.56531 22.3433 6.43569 22.1709 6.49934 21.9566C6.56299 21.7423 6.79581 21.5673 7.01936 21.5657Z" fill="#ED2241"/>
<path d="M7.90472 17.5436L31.8779 17.2388C32.1337 17.2356 32.2815 17.4316 32.208 17.6766C32.1346 17.9216 31.8676 18.1229 31.6118 18.1262L7.63866 18.431C7.38286 18.4342 7.23506 18.2382 7.30853 17.9932C7.382 17.7481 7.64892 17.5468 7.90472 17.5436Z" fill="#ED2241"/>
<path d="M26.9185 19.415L27.7735 19.4041C27.997 19.4012 28.1262 19.5725 28.062 19.7867C27.9978 20.0008 27.7645 20.1767 27.541 20.1795L26.686 20.1904C26.4625 20.1932 26.3333 20.022 26.3975 19.8078C26.4617 19.5937 26.695 19.4178 26.9185 19.415Z" fill="#ED2241"/>
<path d="M28.5658 19.8556L28.6032 19.7309C28.6571 19.5512 28.8529 19.4036 29.0405 19.4012C29.2281 19.3988 29.3364 19.5425 29.2826 19.7222L29.2452 19.8469C29.1913 20.0266 28.9956 20.1742 28.808 20.1766C28.6204 20.179 28.512 20.0353 28.5658 19.8556Z" fill="#ED2241"/>
<path d="M27.0196 14.9745L28.818 14.937C29.0413 14.9324 29.1898 15.1068 29.1496 15.3265C29.1094 15.5463 28.8957 15.7282 28.6724 15.7329L26.874 15.7703C26.6506 15.775 26.5021 15.6006 26.5424 15.3808C26.5826 15.1611 26.7962 14.9792 27.0196 14.9745Z" fill="#ED2241"/>
<path d="M29.6607 15.4015L29.6841 15.274C29.7178 15.0895 29.8973 14.9367 30.0849 14.9328C30.2725 14.9289 30.3972 15.0753 30.3634 15.2599L30.3401 15.3873C30.3063 15.5719 30.1269 15.7247 29.9393 15.7286C29.7517 15.7325 29.627 15.586 29.6607 15.4015Z" fill="#ED2241"/>
<path d="M4.92893 15.0991L25.8485 14.8486C26.0719 14.8459 26.2206 15.022 26.1808 15.2418C26.1409 15.4615 25.9276 15.6419 25.7042 15.6446L4.78465 15.8951C4.56129 15.8977 4.41252 15.7217 4.45236 15.5019C4.4922 15.2821 4.70557 15.1018 4.92893 15.0991Z" fill="#ED2241"/>
<path d="M4.21638 23.3921L25.1353 23.2392C25.3588 23.2376 25.4884 23.41 25.4248 23.6243C25.3611 23.8386 25.1283 24.0136 24.9048 24.0153L3.98588 24.1682C3.76233 24.1698 3.63271 23.9974 3.69636 23.7831C3.76001 23.5688 3.99283 23.3937 4.21638 23.3921Z" fill="#ED2241"/>
</svg>
