<svg width="28" height="29" viewBox="0 0 28 29" fill="none" xmlns="http://www.w3.org/2000/svg">
<g clip-path="url(#clip0_316_20)">
<path d="M26.8475 8.16525C27.0909 7.96206 27.1242 7.60046 26.9222 7.3571C26.8441 7.26297 26.7373 7.19639 26.618 7.16654L25.7111 6.93696C25.4034 6.86004 25.2163 6.54781 25.2932 6.24131C25.3024 6.20343 25.3162 6.16784 25.3323 6.1334L25.8374 5.11174C25.9751 4.8259 25.8546 4.48267 25.5699 4.34492C25.4459 4.28523 25.3047 4.2726 25.1716 4.30818L22.8757 4.95103C22.7024 5.00154 22.5152 4.9671 22.3706 4.85919C21.3776 4.11418 20.1689 3.71126 18.9268 3.71126C15.7573 3.71126 13.1871 6.28149 13.1871 9.45093V9.86419C13.1883 10.01 13.0792 10.134 12.9346 10.1512C9.70888 10.53 6.62093 8.88845 3.29192 5.05434C3.14498 4.89134 2.91884 4.82476 2.70647 4.88215C2.51591 4.96939 2.38849 5.15421 2.37357 5.36428C1.91325 7.25264 2.09921 9.24086 2.90162 11.0121C2.97279 11.1533 2.91654 11.3267 2.77535 11.3978C2.72139 11.4242 2.6617 11.4346 2.60316 11.4254L1.31747 11.1728C1.00408 11.1223 0.710212 11.3358 0.659703 11.6481C0.649371 11.7158 0.650519 11.7835 0.663147 11.8501C0.864035 13.6352 1.86504 15.2308 3.38375 16.1893C3.5261 16.2582 3.58579 16.4304 3.51691 16.5727C3.48822 16.6313 3.4423 16.6783 3.38375 16.7059L2.77535 16.947C2.48148 17.0652 2.33798 17.3992 2.45622 17.6931C2.46196 17.7092 2.46885 17.7241 2.47688 17.739C3.15991 19.2336 4.53284 20.2978 6.15028 20.5859C6.29951 20.6399 6.37642 20.8052 6.32247 20.9532C6.29377 21.0336 6.23063 21.0956 6.15028 21.1254C4.58909 21.7706 2.91425 22.0954 1.22563 22.0782C0.908805 22.0151 0.60001 22.2206 0.536874 22.5374C0.473737 22.8542 0.679218 23.163 0.996048 23.2262C3.92099 24.6129 7.10421 25.3682 10.3402 25.4417C13.186 25.4853 15.9823 24.6863 18.3758 23.1458C22.3752 20.4757 24.7709 15.9815 24.7583 11.1728V10.1741C24.7595 10.0054 24.8352 9.84582 24.9649 9.73792L26.8475 8.16525Z" fill="#79AFFF"/>
</g>
<defs>
<clipPath id="clip0_316_20">
<rect width="27.5504" height="27.5504" fill="white" transform="translate(0.0778046 0.772552)"/>
</clipPath>
</defs>
</svg>
