<svg width="24" height="24" viewBox="0 0 24 24" fill="none" xmlns="http://www.w3.org/2000/svg">
<path d="M19.5669 0.618103H4.56689C2.35776 0.618103 0.566895 2.40896 0.566895 4.6181V19.6181C0.566895 21.8272 2.35776 23.6181 4.56689 23.6181H19.5669C21.776 23.6181 23.5669 21.8272 23.5669 19.6181V4.6181C23.5669 2.40896 21.776 0.618103 19.5669 0.618103Z" fill="#FFC100"/>
<path d="M11.5791 21.7615C12.5926 21.7615 13.4141 20.9399 13.4141 19.9265C13.4141 18.913 12.5926 18.0915 11.5791 18.0915C10.5657 18.0915 9.74414 18.913 9.74414 19.9265C9.74414 20.9399 10.5657 21.7615 11.5791 21.7615Z" fill="white"/>
<path d="M16.474 9.18347C16.4741 8.40163 16.2869 7.63114 15.928 6.93653C15.5691 6.24192 15.049 5.6434 14.4113 5.19109C13.7735 4.73878 13.0367 4.44585 12.2625 4.33682C11.4883 4.22779 10.6992 4.30584 9.96139 4.56443C9.22354 4.82302 8.55839 5.25462 8.02162 5.8231C7.48486 6.39158 7.0921 7.08039 6.87625 7.83185C6.66039 8.58331 6.62772 9.37555 6.78096 10.1422C6.9342 10.9089 7.2689 11.6277 7.75704 12.2385L11.385 16.7755C11.408 16.8041 11.4371 16.8271 11.4701 16.843C11.5032 16.8588 11.5394 16.867 11.576 16.867C11.6127 16.867 11.6489 16.8588 11.6819 16.843C11.715 16.8271 11.7441 16.8041 11.767 16.7755L15.401 12.2385C16.0965 11.3722 16.475 10.2943 16.474 9.18347ZM14.608 11.6655L11.579 15.4485L8.57904 11.7025L8.54804 11.6645L8.52004 11.6285C7.9623 10.9363 7.6597 10.0734 7.66304 9.18447C7.66304 8.14602 8.07556 7.1501 8.80986 6.4158C9.54416 5.6815 10.5401 5.26897 11.5785 5.26897C12.617 5.26897 13.6129 5.6815 14.3472 6.4158C15.0815 7.1501 15.494 8.14602 15.494 9.18447C15.4974 10.0738 15.1944 10.9372 14.636 11.6295L14.608 11.6655Z" fill="white"/>
<path d="M11.579 10.8965C12.525 10.8965 13.292 10.1295 13.292 9.18347C13.292 8.23741 12.525 7.47047 11.579 7.47047C10.6329 7.47047 9.86597 8.23741 9.86597 9.18347C9.86597 10.1295 10.6329 10.8965 11.579 10.8965Z" fill="white"/>
</svg>
